<svg width="30" height="30" viewBox="0 0 30 30" fill="none" xmlns="http://www.w3.org/2000/svg">
<g clip-path="url(#clip0_4000_52)">
<path d="M14.999 15.9355C15.5168 15.9355 15.9365 15.5158 15.9365 14.998C15.9365 14.4803 15.5168 14.0605 14.999 14.0605C14.4813 14.0605 14.0615 14.4803 14.0615 14.998C14.0615 15.5158 14.4813 15.9355 14.999 15.9355Z" fill="#FFCF57"/>
<path d="M19.2396 12.9029L20.9505 11.2782L19.2405 9.65917C18.8674 9.3001 18.8561 8.70667 19.2152 8.33354C19.5743 7.96042 20.1677 7.94917 20.5408 8.30823L22.4899 10.1579C22.7918 10.4485 22.9661 10.8564 22.9671 11.2764V11.2782C22.9671 11.6982 22.7936 12.1051 22.4918 12.3967L20.5418 14.2529C20.1686 14.612 19.5752 14.6017 19.2161 14.2285C18.8571 13.8554 18.8674 13.262 19.2405 12.902L19.2396 12.9029Z" fill="#FFCF57"/>
<path d="M22.0754 10.3425V12.2175H8.90918C8.39168 12.2175 7.97168 11.7975 7.97168 11.28C7.97168 10.7625 8.39168 10.3425 8.90918 10.3425H22.0754Z" fill="#FFCF57"/>
<path d="M10.7607 17.0972L9.04977 18.7218L10.7598 20.3409C11.1329 20.7 11.1441 21.2934 10.7851 21.6665C10.426 22.0397 9.83258 22.0509 9.45945 21.6918L7.51039 19.8422C7.20852 19.5515 7.03414 19.1437 7.0332 18.7237V18.7218C7.0332 18.3018 7.20664 17.895 7.50852 17.6034L9.45852 15.7472C9.83164 15.3881 10.4251 15.3984 10.7841 15.7715C11.1432 16.1447 11.1329 16.7381 10.7598 17.0981L10.7607 17.0972Z" fill="#FFCF57"/>
<path d="M7.9248 19.6575V17.7825H21.0911C21.6086 17.7825 22.0286 18.2025 22.0286 18.72C22.0286 19.2375 21.6086 19.6575 21.0911 19.6575H7.9248Z" fill="#FFCF57"/>
<path d="M24.375 29.0625H18.75C16.1616 29.0625 14.0625 26.9634 14.0625 24.375V22.5037C14.0625 21.9862 14.4825 21.5662 15 21.5662C15.5175 21.5662 15.9375 21.9862 15.9375 22.5037V24.375C15.9375 25.9284 17.1966 27.1875 18.75 27.1875H24.375C25.9284 27.1875 27.1875 25.9284 27.1875 24.375V5.625C27.1875 4.07156 25.9284 2.8125 24.375 2.8125H18.75C17.1966 2.8125 15.9375 4.07156 15.9375 5.625V7.49625C15.9375 8.01375 15.5175 8.43375 15 8.43375C14.4825 8.43375 14.0625 8.01375 14.0625 7.49625V5.625C14.0625 3.03656 16.1616 0.9375 18.75 0.9375H24.375C26.9634 0.9375 29.0625 3.03656 29.0625 5.625V24.375C29.0625 26.9634 26.9634 29.0625 24.375 29.0625Z" fill="#FFCF57"/>
<path d="M11.25 29.0625H5.625C3.04031 29.0625 0.9375 26.9597 0.9375 24.375V5.625C0.9375 3.04031 3.04031 0.9375 5.625 0.9375H11.25C13.8347 0.9375 15.9375 3.04031 15.9375 5.625H14.0625C14.0625 4.07437 12.8006 2.8125 11.25 2.8125H5.625C4.07437 2.8125 2.8125 4.07437 2.8125 5.625V24.375C2.8125 25.9256 4.07437 27.1875 5.625 27.1875H11.25C12.8006 27.1875 14.0625 25.9256 14.0625 24.375H15.9375C15.9375 26.9597 13.8347 29.0625 11.25 29.0625Z" fill="#FFCF57"/>
</g>
<defs>
<clipPath id="clip0_4000_52">
<rect width="30" height="30" fill="white"/>
</clipPath>
</defs>
</svg>
