<svg width="30" height="30" viewBox="0 0 30 30" fill="none" xmlns="http://www.w3.org/2000/svg">
<g clip-path="url(#clip0_4000_33)">
<path d="M23.4375 8.20679H16.9565C16.4388 8.20679 16.019 8.62652 16.019 9.14429C16.019 9.66205 16.4388 10.0818 16.9565 10.0818H23.4375C23.9552 10.0818 24.375 9.66205 24.375 9.14429C24.375 8.62652 23.9552 8.20679 23.4375 8.20679Z" fill="#FFCF57"/>
<path d="M13.0434 22.6772H6.5625C6.04473 22.6772 5.625 23.097 5.625 23.6147C5.625 24.1325 6.04473 24.5522 6.5625 24.5522H13.0434C13.5612 24.5522 13.9809 24.1325 13.9809 23.6147C13.9809 23.097 13.5612 22.6772 13.0434 22.6772Z" fill="#FFCF57"/>
<path d="M8.98242 8.4375C7.98023 8.4375 7.03898 8.04656 6.33117 7.33875C5.62242 6.63094 5.23242 5.68875 5.23242 4.6875C5.23242 3.68625 5.62242 2.74406 6.33117 2.03625C7.03898 1.32844 7.98023 0.9375 8.98242 0.9375C9.98461 0.9375 10.9249 1.3275 11.6337 2.03625C12.3424 2.74406 12.7324 3.68625 12.7324 4.6875C12.7324 5.68875 12.3424 6.63094 11.6337 7.33875C10.9249 8.0475 9.98367 8.4375 8.98242 8.4375ZM8.98242 2.8125C8.4818 2.8125 8.01117 3.0075 7.6568 3.36188C7.30242 3.71625 7.10742 4.18688 7.10742 4.6875C7.10742 5.18813 7.30242 5.65875 7.6568 6.01312C8.36555 6.72188 9.5993 6.72188 10.308 6.01312C10.6624 5.65875 10.8574 5.18813 10.8574 4.6875C10.8574 4.18688 10.6624 3.71625 10.308 3.36188C9.95367 3.0075 9.48305 2.8125 8.98242 2.8125Z" fill="#FFCF57"/>
<path d="M10.3076 4.68816C9.94147 4.32205 9.34788 4.32205 8.98176 4.68816C8.61564 5.05428 8.61564 5.64787 8.98176 6.01399L11.3503 8.38257C11.7165 8.74869 12.3101 8.74869 12.6762 8.38257C13.0423 8.01646 13.0423 7.42286 12.6762 7.05675L10.3076 4.68816Z" fill="#FFCF57"/>
<path d="M24.4893 23.2595C23.9981 23.4236 23.4674 23.1582 23.3034 22.667L21.7715 18.077C21.689 17.8295 21.4893 17.7929 21.3777 17.7929C21.2662 17.7929 21.0665 17.8295 20.984 18.0761L19.4521 22.6661C19.2881 23.1573 18.7574 23.4226 18.2662 23.2586C17.7749 23.0945 17.5106 22.5639 17.6746 22.0726L19.1727 17.5857C19.4765 16.6764 20.279 15.977 21.2352 15.9217C22.2993 15.8598 23.2181 16.487 23.5499 17.4826L25.0827 22.0726C25.2468 22.5639 24.9815 23.0945 24.4912 23.2586L24.4893 23.2595Z" fill="#FFCF57"/>
<path d="M19.3208 20.1414H23.4336V22.0164H19.3208V20.1414Z" fill="#FFCF57"/>
<path d="M25.3125 29.0625H4.6875C2.61656 29.0625 0.9375 27.3834 0.9375 25.3125V21.5625C0.9375 19.4916 2.61656 17.8125 4.6875 17.8125H16.1175C16.635 17.8125 17.055 18.2325 17.055 18.75C17.055 19.2675 16.635 19.6875 16.1175 19.6875H4.6875C3.65156 19.6875 2.8125 20.5266 2.8125 21.5625V25.3125C2.8125 26.3484 3.65156 27.1875 4.6875 27.1875H25.3125C26.3484 27.1875 27.1875 26.3484 27.1875 25.3125V21.5625C27.1875 20.9794 26.9147 20.4394 26.4722 20.0897C26.1741 19.8534 26.0897 19.4334 26.2209 19.0762C26.4384 18.4809 27.1866 18.2522 27.6778 18.6534C28.5356 19.3537 29.0634 20.4178 29.0634 21.5625V25.3125C29.0634 27.3834 27.3834 29.0625 25.3125 29.0625Z" fill="#FFCF57"/>
<path d="M4.68746 14.7693H25.3125C27.3834 14.7693 29.0625 13.0902 29.0625 11.0193V7.26929C29.0625 5.19835 27.3834 3.51929 25.3125 3.51929H14.8209C14.3034 3.51929 13.8834 3.93929 13.8834 4.45679C13.8834 4.97429 14.3034 5.39429 14.8209 5.39429H25.3134C26.3493 5.39429 27.1884 6.23335 27.1884 7.26929V11.0193C27.1884 12.0552 26.3493 12.8943 25.3134 12.8943H4.68746C3.65152 12.8943 2.81246 12.0552 2.81246 11.0193V7.26929C2.81246 6.68616 3.08527 6.14616 3.52777 5.79647C3.8259 5.56022 3.91027 5.14022 3.77902 4.78304C3.56152 4.18772 2.8134 3.95897 2.32215 4.36022C1.46434 5.06054 0.936523 6.1246 0.936523 7.26929V11.0193C0.936523 13.0902 2.61652 14.7693 4.68746 14.7693Z" fill="#FFCF57"/>
</g>
<defs>
<clipPath id="clip0_4000_33">
<rect width="30" height="30" fill="white"/>
</clipPath>
</defs>
</svg>
