<svg width="31" height="30" viewBox="0 0 31 30" fill="none" xmlns="http://www.w3.org/2000/svg">
<g clip-path="url(#clip0_2690_809)">
<path d="M9.26347 28.7695C9.26347 29.4168 8.72139 29.9414 8.05253 29.9414C5.38184 29.9414 3.20902 27.8387 3.20902 25.2541V13.7888L2.12674 14.8338C1.89047 15.0623 1.58087 15.1763 1.27152 15.1763C0.961212 15.1763 0.650909 15.0616 0.414398 14.8322C-0.0581516 14.3742 -0.0572055 13.6322 0.416054 13.1749L13.1479 0.877999C13.1642 0.862206 13.181 0.8471 13.1983 0.832222C14.5812 -0.359337 16.6632 -0.354988 18.0406 0.842064C18.0581 0.857171 18.0752 0.872964 18.0917 0.888985L27.4091 9.98612C27.8797 10.4459 27.8764 11.1878 27.4015 11.6435C26.9264 12.0992 26.1596 12.0957 25.6889 11.6361L16.4007 2.56738C15.9487 2.19293 15.2836 2.19178 14.8302 2.5644L5.61268 11.467C5.6238 11.5302 5.63065 11.5947 5.63065 11.6609V25.2541C5.63065 26.5464 6.71719 27.5979 8.05253 27.5979C8.72139 27.5977 9.26347 28.1225 9.26347 28.7695ZM31.0596 17.3442V26.4258C31.0596 28.4301 28.5869 29.9414 25.3079 29.9414C23.4215 29.9414 21.8024 29.4413 20.7669 28.635C19.7315 29.4413 18.1123 29.9414 16.2261 29.9414C12.9471 29.9414 10.4744 28.4301 10.4744 26.4258V21.8557C10.4744 21.8504 10.4751 21.8452 10.4751 21.8399C10.4749 21.8255 10.4744 21.8115 10.4744 21.7971C10.4744 19.793 12.9471 18.2817 16.2261 18.2817C17.4319 18.2817 18.5934 18.5069 19.556 18.9205V17.52C19.556 17.4957 19.5569 17.4719 19.5583 17.4481C19.5569 17.4136 19.556 17.379 19.556 17.3442C19.556 15.3399 22.0287 13.8286 25.3079 13.8286C28.5869 13.8286 31.0596 15.3399 31.0596 17.3442ZM19.556 26.4258V21.8557C19.556 21.5394 18.411 20.6252 16.2261 20.6252C14.041 20.6252 12.896 21.4959 12.896 21.7971C12.896 22.0983 14.041 22.969 16.2261 22.969C16.895 22.969 17.4371 23.4936 17.4371 24.1409C17.4371 24.7879 16.895 25.3127 16.2261 25.3127C14.9653 25.3127 13.8239 25.0889 12.896 24.7V26.4258C12.896 26.727 14.041 27.5977 16.2261 27.5977C18.411 27.5977 19.556 26.7272 19.556 26.4258ZM28.6378 17.3442C28.6378 17.043 27.4928 16.1723 25.3079 16.1723C23.1228 16.1723 21.9778 17.043 21.9778 17.3442C21.9778 17.6452 23.1228 18.5161 25.3079 18.5161C25.9765 18.5161 26.5186 19.0407 26.5186 19.6877C26.5186 20.335 25.9765 20.8596 25.3079 20.8596C24.0471 20.8596 22.9054 20.6362 21.9778 20.2474V21.7971C21.9778 22.0983 23.1228 22.969 25.3079 22.969C25.9765 22.969 26.5186 23.4936 26.5186 24.1409C26.5186 24.7879 25.9765 25.3127 25.3079 25.3127C24.0468 25.3127 22.9054 25.0889 21.9778 24.7V26.4258C21.9778 26.727 23.1228 27.5977 25.3079 27.5977C27.4928 27.5977 28.6378 26.727 28.6378 26.4258V17.3442Z" fill="#F4CA64"/>
</g>
<defs>
<clipPath id="clip0_2690_809">
<rect width="31" height="30" fill="white"/>
</clipPath>
</defs>
</svg>
