<svg width="30" height="29" viewBox="0 0 30 29" fill="none" xmlns="http://www.w3.org/2000/svg">
<path d="M12.5863 23.819C6.80113 23.5752 2.26941 18.8444 2.26941 13.0491C2.26941 7.10517 7.10517 2.26941 13.0491 2.26941C18.0612 2.26941 22.4868 5.81473 23.5721 10.6993C23.708 11.3111 24.314 11.6967 24.9259 11.5609C25.5377 11.4249 25.9234 10.8188 25.7875 10.2071C25.1538 7.3552 23.5489 4.76496 21.2686 2.91358C18.9544 1.03474 16.0353 0 13.0491 0C9.5635 0 6.28665 1.35733 3.82196 3.82196C1.35733 6.28665 0 9.5635 0 13.0491C0 16.4373 1.29265 19.6482 3.63973 22.0903C5.98 24.5252 9.1233 25.9445 12.4907 26.0864C12.507 26.0871 12.5231 26.0874 12.5393 26.0874C13.144 26.0874 13.6465 25.6104 13.6722 25.0005C13.6986 24.3744 13.2124 23.8454 12.5863 23.819Z" fill="#F4CA64"/>
<path d="M13.0489 4.54712C12.4222 4.54712 11.9142 5.05513 11.9142 5.68182V12.5791L8.24838 16.2449C7.80523 16.688 7.80523 17.4064 8.24838 17.8496C8.46994 18.0711 8.76031 18.1819 9.05073 18.1819C9.34116 18.1819 9.63153 18.0711 9.85308 17.8496L13.8513 13.8514C14.0641 13.6386 14.1836 13.35 14.1836 13.0491V5.68182C14.1836 5.05513 13.6756 4.54712 13.0489 4.54712Z" fill="#F4CA64"/>
<path d="M26.7133 14.0899C25.5302 13.607 23.9816 13.3411 22.353 13.3411C20.7243 13.3411 19.1757 13.607 17.9926 14.0899C15.9615 14.9189 15.6582 16.1094 15.6582 16.7452V25.5959C15.6582 26.2317 15.9615 27.4221 17.9926 28.2511C19.1757 28.734 20.7243 29 22.353 29C23.9816 29 25.5302 28.734 26.7133 28.2511C28.7444 27.4221 29.0477 26.2316 29.0477 25.5959V16.7452C29.0477 16.1093 28.7444 14.9189 26.7133 14.0899ZM26.7783 25.5599C26.5908 25.9088 25.0653 26.7306 22.353 26.7306C19.6406 26.7306 18.1151 25.9088 17.9276 25.5599V23.7414C17.9495 23.7506 17.9703 23.7599 17.9926 23.769C19.1757 24.2519 20.7243 24.5179 22.353 24.5179C22.7458 24.5179 23.139 24.5023 23.5217 24.4717C24.1463 24.4216 24.6121 23.8745 24.562 23.2498C24.5118 22.6251 23.9656 22.1596 23.3401 22.2095C23.0176 22.2354 22.6855 22.2485 22.353 22.2485C19.6399 22.2485 18.1144 21.4264 17.9276 21.0777V19.3729C17.9495 19.3821 17.9703 19.3914 17.9926 19.4005C19.1757 19.8834 20.7243 20.1494 22.353 20.1494C22.7458 20.1494 23.139 20.1338 23.5217 20.1032C24.1463 20.0531 24.6121 19.506 24.562 18.8813C24.5118 18.2566 23.9656 17.791 23.3401 17.841C23.0176 17.8669 22.6855 17.88 22.353 17.88C19.7294 17.88 18.2166 17.1113 17.9506 16.7453C18.217 16.3791 19.7299 15.6106 22.353 15.6106C25.0653 15.6106 26.5908 16.4324 26.7783 16.7813V25.5599Z" fill="#F4CA64"/>
</svg>
