<svg width="28" height="28" viewBox="0 0 28 28" fill="none" xmlns="http://www.w3.org/2000/svg">
<g clip-path="url(#clip0_2690_815)">
<path d="M26.1139 13.7172C25.1387 13.2295 23.8664 12.9609 22.5312 12.9609C21.1961 12.9609 19.9238 13.2295 18.9486 13.7172C17.7322 14.3251 17.0625 15.2219 17.0625 16.2422C17.0625 16.2747 17.0631 16.3069 17.0644 16.3392C17.0631 16.3614 17.0625 16.3836 17.0625 16.4062V17.7576C16.1273 17.3436 14.9773 17.1172 13.7812 17.1172C12.4461 17.1172 11.1738 17.3857 10.1986 17.8734C8.98221 18.4814 8.3125 19.3782 8.3125 20.3984C8.3125 20.4115 8.31314 20.4243 8.31335 20.4373C8.31314 20.4427 8.3125 20.4478 8.3125 20.4531V24.7188C8.3125 25.739 8.98221 26.6358 10.1986 27.2438C11.1738 27.7315 12.4461 28 13.7812 28C15.1164 28 16.3887 27.7315 17.3639 27.2438C17.6615 27.0951 17.926 26.9289 18.1562 26.7482C18.3865 26.9289 18.651 27.0951 18.9486 27.2438C19.9238 27.7315 21.1961 28 22.5312 28C23.8664 28 25.1387 27.7315 26.1139 27.2438C27.3303 26.6358 28 25.739 28 24.7188V16.2422C28 15.2219 27.3303 14.3251 26.1139 13.7172ZM16.3857 25.2872C15.7182 25.6211 14.7688 25.8125 13.7812 25.8125C12.7937 25.8125 11.8443 25.6211 11.1768 25.2872C10.6177 25.0078 10.5 24.7566 10.5 24.7188V23.0623C11.4293 23.4614 12.5794 23.6797 13.7812 23.6797C13.8221 23.6797 13.8629 23.6795 13.9034 23.679C14.5076 23.6718 14.9914 23.1766 14.9844 22.5725C14.9773 21.9686 14.4807 21.4851 13.8778 21.4915C13.8458 21.492 13.8135 21.4922 13.7812 21.4922C12.7937 21.4922 11.8445 21.3008 11.177 20.9669C10.6177 20.6875 10.5 20.4362 10.5 20.3984C10.5 20.3606 10.6177 20.1094 11.1768 19.83C11.8443 19.4961 12.7937 19.3047 13.7812 19.3047C14.7573 19.3047 15.7017 19.5036 16.3723 19.8505C16.8989 20.1229 17.0625 20.3875 17.0625 20.4531V24.7188C17.0625 24.7566 16.9448 25.0078 16.3857 25.2872ZM25.8125 24.7188C25.8125 24.7566 25.6948 25.0078 25.1357 25.2872C24.4682 25.6211 23.5188 25.8125 22.5312 25.8125C21.5437 25.8125 20.5943 25.6211 19.9268 25.2872C19.3677 25.0078 19.25 24.7566 19.25 24.7188V23.0623C20.1793 23.4614 21.3294 23.6797 22.5312 23.6797C22.5725 23.6797 22.6135 23.6795 22.6543 23.6788C23.2582 23.6714 23.7419 23.1755 23.7344 22.5716C23.7267 21.9675 23.2332 21.4834 22.627 21.4915C22.5951 21.492 22.5633 21.4922 22.5312 21.4922C21.5437 21.4922 20.5943 21.3008 19.9268 20.9669C19.3677 20.6875 19.25 20.4362 19.25 20.3984V18.9071C20.179 19.306 21.3298 19.5234 22.5312 19.5234C22.5725 19.5234 22.6135 19.5232 22.6543 19.5226C23.2582 19.5151 23.7419 19.0193 23.7344 18.4154C23.7269 17.8159 23.2386 17.3353 22.6411 17.3353C22.6364 17.3353 22.6317 17.3353 22.627 17.3353C22.5951 17.3357 22.5633 17.3359 22.5312 17.3359C21.5437 17.3359 20.5945 17.1445 19.927 16.8106C19.3677 16.5312 19.25 16.28 19.25 16.2422C19.25 16.2044 19.3677 15.9532 19.9268 15.6737C20.5943 15.3398 21.5437 15.1484 22.5312 15.1484C23.5188 15.1484 24.4682 15.3398 25.1357 15.6737C25.6948 15.9532 25.8125 16.2044 25.8125 16.2422V24.7188ZM28 4.375V10.5C28 11.1041 27.5104 11.5938 26.9062 11.5938C26.3021 11.5938 25.8125 11.1041 25.8125 10.5V4.375C25.8125 3.16888 24.8311 2.1875 23.625 2.1875H4.375C3.16888 2.1875 2.1875 3.16888 2.1875 4.375V15.6406C2.1875 16.8467 3.16888 17.8281 4.375 17.8281H5.19531C5.79944 17.8281 6.28906 18.3177 6.28906 18.9219C6.28906 19.526 5.79944 20.0156 5.19531 20.0156H4.375C1.96255 20.0156 0 18.0531 0 15.6406V4.375C0 1.96255 1.96255 0 4.375 0H23.625C26.0374 0 28 1.96255 28 4.375ZM17.0606 10.1272C17.0619 10.0854 17.0625 10.0433 17.0625 10.0012C17.0625 8.10144 15.6887 6.55588 14 6.55588C12.3113 6.55588 10.9375 8.10144 10.9375 10.0012C10.9375 11.2878 11.5694 12.4589 12.5865 13.0573C13.1071 13.3636 13.2807 14.034 12.9746 14.5546C12.7708 14.9011 12.4057 15.094 12.0308 15.094C11.8424 15.094 11.6514 15.0453 11.4773 14.9427C9.79504 13.9532 8.75 12.0597 8.75 10.0012C8.75 6.89532 11.1052 4.36838 14 4.36838C16.8948 4.36838 19.25 6.89532 19.25 10.0012C19.25 10.0668 19.2489 10.1321 19.2468 10.1971C19.241 10.3793 19.2269 10.5628 19.2049 10.7425C19.1312 11.3421 18.5856 11.7685 17.9862 11.695C17.3866 11.6213 16.9602 11.0757 17.0337 10.4761C17.0478 10.3616 17.0567 10.2441 17.0606 10.1272ZM5.30469 8.58594C5.90881 8.58594 6.39844 9.07556 6.39844 9.67969C6.39844 10.2838 5.90881 10.7734 5.30469 10.7734C4.70056 10.7734 4.21094 10.2838 4.21094 9.67969C4.21094 9.07556 4.70056 8.58594 5.30469 8.58594ZM22.8047 10.7734C22.2006 10.7734 21.7109 10.2838 21.7109 9.67969C21.7109 9.07556 22.2006 8.58594 22.8047 8.58594C23.4088 8.58594 23.8984 9.07556 23.8984 9.67969C23.8984 10.2838 23.4088 10.7734 22.8047 10.7734Z" fill="#F4CA64"/>
</g>
<defs>
<clipPath id="clip0_2690_815">
<rect width="28" height="28" fill="white"/>
</clipPath>
</defs>
</svg>
