<svg width="30" height="30" viewBox="0 0 30 30" fill="none" xmlns="http://www.w3.org/2000/svg">
<g clip-path="url(#clip0_2690_835)">
<path d="M19.7037 15.074C19.921 15.2759 20.2061 15.3874 20.5013 15.3874C20.5194 15.3874 20.5376 15.387 20.5557 15.3861C20.8701 15.3715 21.1654 15.2311 21.3752 14.9964L24.2426 11.7882C24.6739 11.3057 24.6323 10.5649 24.1497 10.1336C23.6672 9.70231 22.9263 9.74385 22.4951 10.2264L20.4238 12.5438L19.3602 11.5555C18.8861 11.1149 18.1446 11.1421 17.704 11.6163C17.2635 12.0905 17.2907 12.832 17.7649 13.2725L19.7037 15.074Z" fill="#F4CA64"/>
<path d="M16.6191 18.1482C16.6191 18.7954 17.1438 19.3201 17.791 19.3201H24.143C24.7903 19.3201 25.3149 18.7954 25.3149 18.1482C25.3149 17.501 24.7903 16.9763 24.143 16.9763H17.791C17.1438 16.9763 16.6191 17.501 16.6191 18.1482Z" fill="#F4CA64"/>
<path d="M12.5044 16.9763H6.15234C5.50512 16.9763 4.98047 17.501 4.98047 18.1482C4.98047 18.7954 5.50512 19.3201 6.15234 19.3201H12.5044C13.1516 19.3201 13.6762 18.7954 13.6762 18.1482C13.6762 17.501 13.1516 16.9763 12.5044 16.9763Z" fill="#F4CA64"/>
<path d="M13.888 14.023C13.5573 13.0868 12.9553 12.2996 12.1893 11.7375C12.6646 11.1249 12.9479 10.3562 12.9479 9.52258C12.9479 7.52664 11.3241 5.90283 9.32814 5.90283C7.33226 5.90283 5.70845 7.52664 5.70845 9.52258C5.70845 10.3562 5.99169 11.1249 6.46706 11.7375C5.70101 12.2996 5.09902 13.0868 4.76837 14.023C4.55286 14.6334 4.87284 15.3027 5.4831 15.5183C6.09323 15.7337 6.76278 15.4138 6.97835 14.8036C7.32927 13.8099 8.27357 13.1423 9.32819 13.1423C10.3828 13.1423 11.3271 13.8099 11.678 14.8036C11.848 15.2848 12.3002 15.5856 12.7831 15.5856C12.9125 15.5856 13.0443 15.5639 13.1733 15.5184C13.7835 15.3028 14.1035 14.6334 13.888 14.023ZM8.0522 9.52258C8.0522 8.81898 8.6246 8.24658 9.32814 8.24658C10.0317 8.24658 10.6041 8.81898 10.6041 9.52258C10.6041 10.2261 10.0317 10.7985 9.32814 10.7985C8.6246 10.7985 8.0522 10.2261 8.0522 9.52258Z" fill="#F4CA64"/>
<path d="M28.8281 15.2356C29.4754 15.2356 30 14.7109 30 14.0637V5.33789C30 2.7532 27.8972 0.650391 25.3125 0.650391H4.6875C2.10281 0.650391 0 2.7532 0 5.33789V19.885C0 22.4697 2.10281 24.5725 4.6875 24.5725H11.2751L10.66 27.0059H7.43848C6.79125 27.0059 6.2666 27.5305 6.2666 28.1777C6.2666 28.825 6.79125 29.3496 7.43848 29.3496H22.5615C23.2087 29.3496 23.7334 28.825 23.7334 28.1777C23.7334 27.5305 23.2087 27.0059 22.5615 27.0059H19.34L18.7249 24.5725H25.3125C26.5557 24.5725 27.727 24.0908 28.6104 23.2162C29.4931 22.3422 29.9865 21.1771 29.9997 19.9356C30.0066 19.2884 29.4875 18.7582 28.8403 18.7513C28.1955 18.7456 27.6629 19.2635 27.6561 19.9107C27.6425 21.1889 26.5912 22.2288 25.3125 22.2288H4.6875C3.39516 22.2288 2.34375 21.1774 2.34375 19.8851V5.33789C2.34375 4.04555 3.39516 2.99414 4.6875 2.99414H25.3125C26.6048 2.99414 27.6562 4.04555 27.6562 5.33789V14.0637C27.6562 14.711 28.1809 15.2356 28.8281 15.2356ZM16.3074 24.5725L16.9225 27.0059H13.0775L13.6926 24.5725H16.3074Z" fill="#F4CA64"/>
</g>
<defs>
<clipPath id="clip0_2690_835">
<rect width="30" height="30" fill="white"/>
</clipPath>
</defs>
</svg>
