<svg width="29" height="28" viewBox="0 0 29 28" fill="none" xmlns="http://www.w3.org/2000/svg">
<path d="M24.2767 4.5212H24.2091V3.14744C24.2091 2.33052 23.8079 1.56552 23.1359 1.10095C22.4763 0.645029 21.6379 0.535334 20.8846 0.804569L16.1774 2.21661L15.9833 1.66397C15.7395 0.969954 15.2052 0.422493 14.5174 0.161912C13.8353 -0.0965333 13.0795 -0.0435967 12.4406 0.306504L4.33215 4.52413C1.92865 4.6105 0 6.5927 0 9.01688V23.5043C0 25.9832 2.01676 28 4.49568 28H24.2767C26.7556 28 28.7723 25.9832 28.7723 23.5043V23.4399C28.7723 22.8192 28.2692 22.316 27.6484 22.316C27.0277 22.316 26.5245 22.8192 26.5245 23.4399V23.5043C26.5245 24.7438 25.5161 25.7522 24.2767 25.7522H4.49568C3.25622 25.7522 2.24784 24.7438 2.24784 23.5043V9.01688C2.24784 7.77742 3.25622 6.76904 4.49568 6.76904H24.2767C25.5161 6.76904 26.5245 7.77742 26.5245 9.01688V9.97806H19.5048C17.1036 9.97806 15.1502 11.9315 15.1502 14.3326C15.1502 16.7337 17.1037 18.6872 19.5048 18.6872H26.9331C27.1274 18.8478 27.3767 18.9442 27.6484 18.9442C28.2692 18.9442 28.7723 18.441 28.7723 17.8203V9.01688C28.7723 6.53797 26.7556 4.5212 24.2767 4.5212ZM9.20906 4.5212L13.4904 2.29427C13.5001 2.28927 13.5096 2.28404 13.5191 2.27882C13.5998 2.23386 13.6734 2.24594 13.7211 2.26398C13.7687 2.28202 13.832 2.32181 13.8625 2.40891L14.6044 4.5212H9.20906ZM16.9869 4.5212L16.9231 4.33969L21.5623 2.94805C21.5874 2.94058 21.6121 2.93221 21.6365 2.92299C21.7338 2.88618 21.8106 2.91743 21.8578 2.95008C21.905 2.98273 21.9613 3.04347 21.9613 3.14749V4.5212H16.9869ZM17.3981 14.3327C17.3981 13.171 18.3431 12.226 19.5048 12.226H26.5245V16.4395H19.5048C18.3431 16.4394 17.3981 15.4943 17.3981 14.3327Z" fill="#352101"/>
<path d="M21.315 14.1127C21.224 13.6647 20.8642 13.3104 20.4146 13.2269C19.9442 13.1395 19.4536 13.3743 19.2265 13.795C19.0033 14.2083 19.0609 14.7285 19.374 15.0802C19.6861 15.4305 20.1995 15.5501 20.6344 15.3738C21.1271 15.174 21.4211 14.6355 21.315 14.1127Z" fill="#352101"/>
</svg>
