<svg width="60" height="56" viewBox="0 0 60 56" fill="none" xmlns="http://www.w3.org/2000/svg">
<rect x="1" y="1" width="58" height="54" rx="9" fill="#090402" stroke="url(#paint0_linear_319_117)" stroke-width="2"/>
<g clip-path="url(#clip0_319_117)">
<path d="M42.2783 22.4004C39.9639 21.4237 36.2534 21.2431 33.5585 21.8054C33.5581 20.7693 33.5575 18.9914 33.5575 17.972C33.6233 14.993 27.8809 13.9247 24.779 14.0065C21.6832 13.9223 15.9277 14.9972 16.0007 17.9722V36.06C16.0007 36.96 16.5167 38.2264 18.9753 39.1484C21.5742 40.1589 25.8535 40.3203 28.7786 39.6652C29.9903 44.2387 44.8809 44.184 45 39.01V25.4512C45 24.728 44.6464 23.3701 42.2783 22.4004ZM19.9294 37.0847C18.6346 36.6299 18.2834 36.1498 18.2663 36.06V34.4357C18.4873 34.5378 18.7276 34.6367 18.9914 34.7311C20.6234 35.3262 23.0221 35.6412 25.2605 35.5838C26.7604 35.4909 26.7061 33.3391 25.2053 33.3189C23.046 33.3698 19.2857 33.0066 18.2663 31.6802V29.9037C18.4872 30.0058 18.7274 30.1047 18.9911 30.1992C20.6358 30.8002 23.0742 31.1162 25.3208 31.051C26.8202 30.9537 26.7593 28.8008 25.2583 28.7864C23.3794 28.8401 21.3224 28.5965 19.9465 28.1321C18.6478 27.7031 18.2932 27.2508 18.2663 27.1477V25.3501C18.4899 25.4514 18.7332 25.5493 19.0006 25.6424C20.6278 26.2217 23.071 26.5257 25.3176 26.4641C25.943 26.4486 26.4374 25.929 26.422 25.3036C26.4074 24.6777 25.8837 24.1828 25.2615 24.1993C23.0857 24.249 19.3202 23.9246 18.2663 22.6143V20.7393C18.4838 20.8422 18.72 20.9422 18.979 21.0383C21.379 21.9407 24.9691 22.1674 27.8381 21.7003C28.4566 21.6066 28.8821 21.0292 28.7884 20.4106C28.6946 19.792 28.1172 19.3664 27.4986 19.4603C25.0651 19.8562 22.0226 19.6942 19.9677 18.9856C18.6886 18.5487 18.3119 18.0919 18.2684 17.9721C19.2725 16.6874 22.6476 16.2745 24.7791 16.272C26.8939 16.2696 30.3262 16.6978 31.292 17.9787C31.292 19.2954 31.293 21.8644 31.2932 22.4831C29.7337 23.149 28.6879 24.1434 28.6879 25.4512V37.3613C26.1634 38.0091 22.2505 37.9304 19.9294 37.0847ZM42.7344 39.01C42.0643 40.2666 38.7128 40.7621 36.8439 40.7439C34.9771 40.763 31.6202 40.2649 30.9535 39.01V37.4232C31.113 37.4971 31.2822 37.5692 31.4644 37.6386C33.5333 38.4598 36.9893 38.675 39.4938 38.2983C40.1133 38.2112 40.545 37.6383 40.4578 37.0188C40.3707 36.3992 39.7971 35.9678 39.1783 36.0548C37.0538 36.3764 33.9854 36.2071 32.2703 35.5211C31.2655 35.1387 30.9535 34.7317 30.9535 34.6267V32.892C31.113 32.9659 31.2822 33.038 31.4644 33.1074C33.5333 33.9286 36.9893 34.1438 39.4938 33.7671C40.1133 33.68 40.545 33.1071 40.4578 32.4876C40.3707 31.868 39.7971 31.4365 39.1783 31.5236C37.0538 31.8452 33.9854 31.6759 32.2703 30.9899C31.2655 30.6075 30.9535 30.2005 30.9535 30.0955V28.265C33.1717 29.3547 36.7677 29.6529 39.4797 29.2338C40.0986 29.1422 40.5261 28.5663 40.4345 27.9474C40.343 27.3285 39.7668 26.9008 39.1482 26.9925C37.0251 27.3298 34.0831 27.1187 32.3347 26.4008C31.2081 25.9534 30.9534 25.5134 30.9534 25.4511C30.9534 25.3888 31.2081 24.9488 32.3347 24.5014C34.6757 23.5286 39.0959 23.4951 41.4197 24.4968C42.5005 24.9394 42.7344 25.3685 42.7344 25.451V39.01H42.7344Z" fill="#d0ff96"/>
</g>
<defs>
<linearGradient id="paint0_linear_319_117" x1="4.76" y1="28" x2="75.5253" y2="28" gradientUnits="userSpaceOnUse">
<stop stop-color="#d0ff96" stop-opacity="0.65"/>
<stop offset="1" stop-color="#d0ff96" stop-opacity="0.28"/>
</linearGradient>
<clipPath id="clip0_319_117">
<rect width="29" height="29" fill="white" transform="translate(16 14)"/>
</clipPath>
</defs>
</svg>
