<svg width="272" height="84" viewBox="0 0 272 84" fill="none" xmlns="http://www.w3.org/2000/svg">
<rect x="1" y="1" width="270" height="82" rx="7" fill="#090402" stroke="url(#paint0_linear_823_123)" stroke-width="2"/>
<g clip-path="url(#clip0_823_123)">
<path d="M57.3613 18H29.6387C24.3239 18 20 22.3239 20 27.6387V55.3613C20 60.6761 24.3239 65 29.6387 65H57.3613C62.6761 65 67 60.6761 67 55.3613V27.6387C67 22.3239 62.6761 18 57.3613 18ZM64.2461 55.3613C64.2461 59.1576 61.1576 62.2461 57.3613 62.2461H29.6387C25.8424 62.2461 22.7539 59.1576 22.7539 55.3613V27.6387C22.7539 23.8424 25.8424 20.7539 29.6387 20.7539H57.3613C61.1576 20.7539 64.2461 23.8424 64.2461 27.6387V55.3613Z" fill="#F4CA64"/>
<path d="M48.0564 29.3398C47.8977 28.7477 47.518 28.2527 46.9871 27.9463C45.8914 27.3136 44.4851 27.6903 43.8523 28.7863L43.499 29.3981L43.1458 28.7862C42.513 27.6905 41.1068 27.3136 40.0109 27.9462H40.0108C38.915 28.579 38.5382 29.9852 39.1709 31.0812L40.849 33.9878L34.657 44.7129H30.1426C28.8772 44.7129 27.8477 45.7424 27.8477 47.0078C27.8477 48.2732 28.8772 49.3027 30.1426 49.3027H47.5711L44.9211 44.7129H39.9569L47.8271 31.0813C48.1336 30.5504 48.2151 29.9319 48.0564 29.3398Z" fill="#F4CA64"/>
<path d="M56.855 44.7129H52.3406L47.2085 35.8239L44.5586 40.4137L52.5269 54.2152C52.8334 54.7461 53.3282 55.1259 53.9205 55.2846C54.1182 55.3376 54.3188 55.3638 54.5182 55.3638C54.9159 55.3638 55.3084 55.2595 55.6621 55.0553C56.7579 54.4225 57.1347 53.0162 56.5019 51.9204L54.9905 49.3028H56.855C58.1204 49.3028 59.1499 48.2733 59.1499 47.0078C59.1499 45.7424 58.1204 44.7129 56.855 44.7129Z" fill="#F4CA64"/>
<path d="M30.9497 51.1387L30.4984 51.9204C29.8657 53.0163 30.2425 54.4226 31.3384 55.0553C31.6989 55.2634 32.0929 55.3623 32.482 55.3622C33.2757 55.3622 34.0487 54.9506 34.4734 54.2152L36.2496 51.1387H30.9497Z" fill="#F4CA64"/>
</g>
<path d="M91.294 31L94.094 21.2H96.754L99.54 31H97.986L97.342 28.69H93.506L92.862 31H91.294ZM93.884 27.29H96.964L95.536 22.138H95.312L93.884 27.29ZM102.314 31L99.9903 24.098H101.516L103.35 29.936H103.574L105.408 24.098H106.934L104.61 31H102.314ZM110.284 31.196C109.789 31.196 109.346 31.112 108.954 30.944C108.571 30.776 108.263 30.5287 108.03 30.202C107.806 29.8753 107.694 29.4787 107.694 29.012C107.694 28.536 107.806 28.144 108.03 27.836C108.263 27.5187 108.576 27.2807 108.968 27.122C109.369 26.9633 109.822 26.884 110.326 26.884H112.426V26.436C112.426 26.0347 112.305 25.7127 112.062 25.47C111.819 25.2273 111.446 25.106 110.942 25.106C110.447 25.106 110.069 25.2227 109.808 25.456C109.547 25.6893 109.374 25.9927 109.29 26.366L107.946 25.932C108.058 25.5587 108.235 25.2227 108.478 24.924C108.73 24.616 109.061 24.3687 109.472 24.182C109.883 23.9953 110.377 23.902 110.956 23.902C111.852 23.902 112.557 24.1307 113.07 24.588C113.583 25.0453 113.84 25.694 113.84 26.534V29.376C113.84 29.656 113.971 29.796 114.232 29.796H114.82V31H113.742C113.415 31 113.149 30.916 112.944 30.748C112.739 30.58 112.636 30.3513 112.636 30.062V30.02H112.426C112.351 30.16 112.239 30.3233 112.09 30.51C111.941 30.6967 111.721 30.86 111.432 31C111.143 31.1307 110.76 31.196 110.284 31.196ZM110.494 30.006C111.073 30.006 111.539 29.8427 111.894 29.516C112.249 29.18 112.426 28.7227 112.426 28.144V28.004H110.41C110.027 28.004 109.719 28.088 109.486 28.256C109.253 28.4147 109.136 28.6527 109.136 28.97C109.136 29.2873 109.257 29.5393 109.5 29.726C109.743 29.9127 110.074 30.006 110.494 30.006ZM116.222 31V24.098H117.664V31H116.222ZM116.95 23.16C116.67 23.16 116.432 23.0713 116.236 22.894C116.05 22.7073 115.956 22.4693 115.956 22.18C115.956 21.8907 116.05 21.6573 116.236 21.48C116.432 21.2933 116.67 21.2 116.95 21.2C117.24 21.2 117.478 21.2933 117.664 21.48C117.851 21.6573 117.944 21.8907 117.944 22.18C117.944 22.4693 117.851 22.7073 117.664 22.894C117.478 23.0713 117.24 23.16 116.95 23.16ZM119.804 31V21.2H121.246V31H119.804ZM125.528 31.196C125.034 31.196 124.59 31.112 124.198 30.944C123.816 30.776 123.508 30.5287 123.274 30.202C123.05 29.8753 122.938 29.4787 122.938 29.012C122.938 28.536 123.05 28.144 123.274 27.836C123.508 27.5187 123.82 27.2807 124.212 27.122C124.614 26.9633 125.066 26.884 125.57 26.884H127.67V26.436C127.67 26.0347 127.549 25.7127 127.306 25.47C127.064 25.2273 126.69 25.106 126.186 25.106C125.692 25.106 125.314 25.2227 125.052 25.456C124.791 25.6893 124.618 25.9927 124.534 26.366L123.19 25.932C123.302 25.5587 123.48 25.2227 123.722 24.924C123.974 24.616 124.306 24.3687 124.716 24.182C125.127 23.9953 125.622 23.902 126.2 23.902C127.096 23.902 127.801 24.1307 128.314 24.588C128.828 25.0453 129.084 25.694 129.084 26.534V29.376C129.084 29.656 129.215 29.796 129.476 29.796H130.064V31H128.986C128.66 31 128.394 30.916 128.188 30.748C127.983 30.58 127.88 30.3513 127.88 30.062V30.02H127.67C127.596 30.16 127.484 30.3233 127.334 30.51C127.185 30.6967 126.966 30.86 126.676 31C126.387 31.1307 126.004 31.196 125.528 31.196ZM125.738 30.006C126.317 30.006 126.784 29.8427 127.138 29.516C127.493 29.18 127.67 28.7227 127.67 28.144V28.004H125.654C125.272 28.004 124.964 28.088 124.73 28.256C124.497 28.4147 124.38 28.6527 124.38 28.97C124.38 29.2873 124.502 29.5393 124.744 29.726C124.987 29.9127 125.318 30.006 125.738 30.006ZM135.456 31.196C134.784 31.196 134.266 31.0747 133.902 30.832C133.548 30.5893 133.282 30.3187 133.104 30.02H132.88V31H131.466V21.2H132.908V25.036H133.132C133.244 24.8493 133.394 24.672 133.58 24.504C133.767 24.3267 134.014 24.182 134.322 24.07C134.63 23.958 135.008 23.902 135.456 23.902C136.035 23.902 136.567 24.042 137.052 24.322C137.538 24.602 137.925 25.008 138.214 25.54C138.504 26.072 138.648 26.7067 138.648 27.444V27.654C138.648 28.4007 138.499 29.04 138.2 29.572C137.911 30.0947 137.524 30.496 137.038 30.776C136.562 31.056 136.035 31.196 135.456 31.196ZM135.036 29.936C135.662 29.936 136.175 29.7353 136.576 29.334C136.987 28.9327 137.192 28.3587 137.192 27.612V27.486C137.192 26.7487 136.992 26.1793 136.59 25.778C136.189 25.3767 135.671 25.176 135.036 25.176C134.42 25.176 133.907 25.3767 133.496 25.778C133.095 26.1793 132.894 26.7487 132.894 27.486V27.612C132.894 28.3587 133.095 28.9327 133.496 29.334C133.907 29.7353 134.42 29.936 135.036 29.936ZM140.435 31V21.2H141.877V31H140.435ZM147.181 31.196C146.481 31.196 145.87 31.0513 145.347 30.762C144.824 30.4633 144.414 30.048 144.115 29.516C143.826 28.9747 143.681 28.3493 143.681 27.64V27.472C143.681 26.7533 143.826 26.128 144.115 25.596C144.404 25.0547 144.806 24.6393 145.319 24.35C145.842 24.0513 146.444 23.902 147.125 23.902C147.788 23.902 148.366 24.0513 148.861 24.35C149.365 24.6393 149.757 25.0453 150.037 25.568C150.317 26.0907 150.457 26.702 150.457 27.402V27.948H145.151C145.17 28.5547 145.37 29.04 145.753 29.404C146.145 29.7587 146.63 29.936 147.209 29.936C147.75 29.936 148.156 29.8147 148.427 29.572C148.707 29.3293 148.922 29.0493 149.071 28.732L150.261 29.348C150.13 29.6093 149.939 29.8847 149.687 30.174C149.444 30.4633 149.122 30.706 148.721 30.902C148.32 31.098 147.806 31.196 147.181 31.196ZM145.165 26.842H148.987C148.95 26.3193 148.763 25.9133 148.427 25.624C148.091 25.3253 147.652 25.176 147.111 25.176C146.57 25.176 146.126 25.3253 145.781 25.624C145.445 25.9133 145.24 26.3193 145.165 26.842ZM158.995 31.196C158.305 31.196 157.689 31.056 157.147 30.776C156.615 30.4867 156.195 30.076 155.887 29.544C155.579 29.012 155.425 28.382 155.425 27.654V27.444C155.425 26.716 155.579 26.0907 155.887 25.568C156.195 25.036 156.615 24.6253 157.147 24.336C157.689 24.0467 158.305 23.902 158.995 23.902C159.686 23.902 160.302 24.0467 160.843 24.336C161.385 24.6253 161.809 25.036 162.117 25.568C162.425 26.0907 162.579 26.716 162.579 27.444V27.654C162.579 28.382 162.425 29.012 162.117 29.544C161.809 30.076 161.385 30.4867 160.843 30.776C160.302 31.056 159.686 31.196 158.995 31.196ZM158.995 29.908C159.63 29.908 160.143 29.7073 160.535 29.306C160.937 28.8953 161.137 28.3307 161.137 27.612V27.486C161.137 26.7673 160.941 26.2073 160.549 25.806C160.157 25.3953 159.639 25.19 158.995 25.19C158.37 25.19 157.857 25.3953 157.455 25.806C157.063 26.2073 156.867 26.7673 156.867 27.486V27.612C156.867 28.3307 157.063 28.8953 157.455 29.306C157.857 29.7073 158.37 29.908 158.995 29.908ZM164.375 31V24.098H165.789V25.134H166.013C166.143 24.854 166.377 24.5927 166.713 24.35C167.049 24.1073 167.548 23.986 168.211 23.986C168.733 23.986 169.195 24.1027 169.597 24.336C170.007 24.5693 170.329 24.9007 170.563 25.33C170.796 25.75 170.913 26.2587 170.913 26.856V31H169.471V26.968C169.471 26.3707 169.321 25.932 169.023 25.652C168.724 25.3627 168.313 25.218 167.791 25.218C167.193 25.218 166.713 25.414 166.349 25.806C165.994 26.198 165.817 26.7673 165.817 27.514V31H164.375ZM179.146 31C178.726 31 178.39 30.874 178.138 30.622C177.896 30.37 177.774 30.034 177.774 29.614V25.316H175.87V24.098H177.774V21.816H179.216V24.098H181.274V25.316H179.216V29.362C179.216 29.642 179.347 29.782 179.608 29.782H181.05V31H179.146ZM182.968 31V21.2H184.41V25.078H184.634C184.728 24.9007 184.858 24.728 185.026 24.56C185.204 24.392 185.432 24.2567 185.712 24.154C186.002 24.042 186.366 23.986 186.804 23.986C187.327 23.986 187.789 24.1027 188.19 24.336C188.601 24.5693 188.923 24.9007 189.156 25.33C189.39 25.75 189.506 26.2587 189.506 26.856V31H188.064V26.968C188.064 26.3707 187.915 25.932 187.616 25.652C187.318 25.3627 186.907 25.218 186.384 25.218C185.787 25.218 185.306 25.414 184.942 25.806C184.588 26.198 184.41 26.7673 184.41 27.514V31H182.968ZM194.746 31.196C194.046 31.196 193.434 31.0513 192.912 30.762C192.389 30.4633 191.978 30.048 191.68 29.516C191.39 28.9747 191.246 28.3493 191.246 27.64V27.472C191.246 26.7533 191.39 26.128 191.68 25.596C191.969 25.0547 192.37 24.6393 192.884 24.35C193.406 24.0513 194.008 23.902 194.69 23.902C195.352 23.902 195.931 24.0513 196.426 24.35C196.93 24.6393 197.322 25.0453 197.602 25.568C197.882 26.0907 198.022 26.702 198.022 27.402V27.948H192.716C192.734 28.5547 192.935 29.04 193.318 29.404C193.71 29.7587 194.195 29.936 194.774 29.936C195.315 29.936 195.721 29.8147 195.992 29.572C196.272 29.3293 196.486 29.0493 196.636 28.732L197.826 29.348C197.695 29.6093 197.504 29.8847 197.252 30.174C197.009 30.4633 196.687 30.706 196.286 30.902C195.884 31.098 195.371 31.196 194.746 31.196ZM192.73 26.842H196.552C196.514 26.3193 196.328 25.9133 195.992 25.624C195.656 25.3253 195.217 25.176 194.676 25.176C194.134 25.176 193.691 25.3253 193.346 25.624C193.01 25.9133 192.804 26.3193 192.73 26.842Z" fill="#8B8B8B"/>
<path d="M91.504 61L96.304 44.2H100.864L105.64 61H102.976L101.872 57.04H95.296L94.192 61H91.504ZM95.944 54.64H101.224L98.776 45.808H98.392L95.944 54.64ZM107.988 65.8V49.168H110.412V50.872H110.796C111.1 50.344 111.556 49.872 112.164 49.456C112.788 49.04 113.676 48.832 114.828 48.832C115.82 48.832 116.724 49.072 117.54 49.552C118.372 50.032 119.036 50.728 119.532 51.64C120.044 52.536 120.3 53.624 120.3 54.904V55.264C120.3 56.544 120.052 57.64 119.556 58.552C119.06 59.448 118.396 60.136 117.564 60.616C116.732 61.096 115.82 61.336 114.828 61.336C114.06 61.336 113.412 61.24 112.884 61.048C112.356 60.856 111.932 60.616 111.612 60.328C111.292 60.024 111.036 59.712 110.844 59.392H110.46V65.8H107.988ZM114.108 59.176C115.196 59.176 116.084 58.832 116.772 58.144C117.46 57.456 117.804 56.472 117.804 55.192V54.976C117.804 53.712 117.452 52.736 116.748 52.048C116.06 51.36 115.18 51.016 114.108 51.016C113.052 51.016 112.172 51.36 111.468 52.048C110.78 52.736 110.436 53.712 110.436 54.976V55.192C110.436 56.472 110.78 57.456 111.468 58.144C112.172 58.832 113.052 59.176 114.108 59.176ZM123.363 65.8V49.168H125.787V50.872H126.171C126.475 50.344 126.931 49.872 127.539 49.456C128.163 49.04 129.051 48.832 130.203 48.832C131.195 48.832 132.099 49.072 132.915 49.552C133.747 50.032 134.411 50.728 134.907 51.64C135.419 52.536 135.675 53.624 135.675 54.904V55.264C135.675 56.544 135.427 57.64 134.931 58.552C134.435 59.448 133.771 60.136 132.939 60.616C132.107 61.096 131.195 61.336 130.203 61.336C129.435 61.336 128.787 61.24 128.259 61.048C127.731 60.856 127.307 60.616 126.987 60.328C126.667 60.024 126.411 59.712 126.219 59.392H125.835V65.8H123.363ZM129.483 59.176C130.571 59.176 131.459 58.832 132.147 58.144C132.835 57.456 133.179 56.472 133.179 55.192V54.976C133.179 53.712 132.827 52.736 132.123 52.048C131.435 51.36 130.555 51.016 129.483 51.016C128.427 51.016 127.547 51.36 126.843 52.048C126.155 52.736 125.811 53.712 125.811 54.976V55.192C125.811 56.472 126.155 57.456 126.843 58.144C127.547 58.832 128.427 59.176 129.483 59.176ZM150.495 61.336C149.231 61.336 148.111 61.112 147.135 60.664C146.159 60.216 145.391 59.56 144.831 58.696C144.287 57.816 144.015 56.752 144.015 55.504V54.904H146.583V55.504C146.583 56.688 146.935 57.576 147.639 58.168C148.359 58.76 149.311 59.056 150.495 59.056C151.695 59.056 152.599 58.808 153.207 58.312C153.815 57.8 154.119 57.144 154.119 56.344C154.119 55.816 153.975 55.384 153.687 55.048C153.399 54.712 152.991 54.448 152.463 54.256C151.935 54.048 151.303 53.856 150.567 53.68L149.679 53.464C148.607 53.208 147.671 52.896 146.871 52.528C146.087 52.144 145.479 51.64 145.047 51.016C144.615 50.392 144.399 49.592 144.399 48.616C144.399 47.624 144.639 46.776 145.119 46.072C145.615 45.368 146.295 44.824 147.159 44.44C148.023 44.056 149.039 43.864 150.207 43.864C151.375 43.864 152.415 44.064 153.327 44.464C154.255 44.864 154.983 45.456 155.511 46.24C156.039 47.024 156.303 48.008 156.303 49.192V50.056H153.735V49.192C153.735 48.472 153.583 47.888 153.279 47.44C152.991 46.992 152.583 46.664 152.055 46.456C151.527 46.248 150.911 46.144 150.207 46.144C149.183 46.144 148.383 46.36 147.807 46.792C147.247 47.208 146.967 47.792 146.967 48.544C146.967 49.056 147.087 49.48 147.327 49.816C147.583 50.136 147.951 50.4 148.431 50.608C148.911 50.816 149.511 51 150.231 51.16L151.119 51.376C152.207 51.616 153.167 51.928 153.999 52.312C154.831 52.68 155.487 53.184 155.967 53.824C156.447 54.464 156.687 55.288 156.687 56.296C156.687 57.304 156.431 58.184 155.919 58.936C155.423 59.688 154.711 60.28 153.783 60.712C152.855 61.128 151.759 61.336 150.495 61.336ZM163.92 61C163.2 61 162.624 60.784 162.192 60.352C161.776 59.92 161.568 59.344 161.568 58.624V51.256H158.304V49.168H161.568V45.256H164.04V49.168H167.568V51.256H164.04V58.192C164.04 58.672 164.264 58.912 164.712 58.912H167.184V61H163.92ZM175.595 61.336C174.411 61.336 173.355 61.096 172.427 60.616C171.515 60.12 170.795 59.416 170.267 58.504C169.739 57.592 169.475 56.512 169.475 55.264V54.904C169.475 53.656 169.739 52.584 170.267 51.688C170.795 50.776 171.515 50.072 172.427 49.576C173.355 49.08 174.411 48.832 175.595 48.832C176.779 48.832 177.835 49.08 178.763 49.576C179.691 50.072 180.419 50.776 180.947 51.688C181.475 52.584 181.739 53.656 181.739 54.904V55.264C181.739 56.512 181.475 57.592 180.947 58.504C180.419 59.416 179.691 60.12 178.763 60.616C177.835 61.096 176.779 61.336 175.595 61.336ZM175.595 59.128C176.683 59.128 177.563 58.784 178.235 58.096C178.923 57.392 179.267 56.424 179.267 55.192V54.976C179.267 53.744 178.931 52.784 178.259 52.096C177.587 51.392 176.699 51.04 175.595 51.04C174.523 51.04 173.643 51.392 172.955 52.096C172.283 52.784 171.947 53.744 171.947 54.976V55.192C171.947 56.424 172.283 57.392 172.955 58.096C173.643 58.784 174.523 59.128 175.595 59.128ZM184.816 61V49.168H187.24V50.56H187.624C187.816 50.064 188.12 49.704 188.536 49.48C188.968 49.24 189.496 49.12 190.12 49.12H191.536V51.352H190.024C189.224 51.352 188.568 51.576 188.056 52.024C187.544 52.456 187.288 53.128 187.288 54.04V61H184.816ZM199.1 61.336C197.9 61.336 196.852 61.088 195.956 60.592C195.06 60.08 194.356 59.368 193.844 58.456C193.348 57.528 193.1 56.456 193.1 55.24V54.952C193.1 53.72 193.348 52.648 193.844 51.736C194.34 50.808 195.028 50.096 195.908 49.6C196.804 49.088 197.836 48.832 199.004 48.832C200.14 48.832 201.132 49.088 201.98 49.6C202.844 50.096 203.516 50.792 203.996 51.688C204.476 52.584 204.716 53.632 204.716 54.832V55.768H195.62C195.652 56.808 195.996 57.64 196.652 58.264C197.324 58.872 198.156 59.176 199.148 59.176C200.076 59.176 200.772 58.968 201.236 58.552C201.716 58.136 202.084 57.656 202.34 57.112L204.38 58.168C204.156 58.616 203.828 59.088 203.396 59.584C202.98 60.08 202.428 60.496 201.74 60.832C201.052 61.168 200.172 61.336 199.1 61.336ZM195.644 53.872H202.196C202.132 52.976 201.812 52.28 201.236 51.784C200.66 51.272 199.908 51.016 198.98 51.016C198.052 51.016 197.292 51.272 196.7 51.784C196.124 52.28 195.772 52.976 195.644 53.872Z" fill="white"/>
<defs>
<linearGradient id="paint0_linear_823_123" x1="14.825" y1="42" x2="235.224" y2="42" gradientUnits="userSpaceOnUse">
<stop stop-color="#FFCF57" stop-opacity="0.65"/>
<stop offset="1" stop-color="#FFCF57" stop-opacity="0.28"/>
</linearGradient>
<clipPath id="clip0_823_123">
<rect width="47" height="47" fill="white" transform="translate(20 18)"/>
</clipPath>
</defs>
</svg>
