<svg width="37" height="37" viewBox="0 0 37 37" fill="none" xmlns="http://www.w3.org/2000/svg">
<path d="M17.0613 9.68598C19.2114 10.5107 22.0397 10.9649 25.0253 10.9649C28.0108 10.9649 30.8391 10.5107 32.9892 9.68598C36.479 8.34741 37 6.47776 37 5.48248C37 4.48721 36.479 2.61749 32.9892 1.27899C30.8391 0.454175 28.0108 0 25.0253 0C22.0397 0 19.2114 0.454175 17.0613 1.27892C13.5716 2.61749 13.0505 4.48714 13.0505 5.48241C13.0505 6.47769 13.5716 8.34741 17.0613 9.68598ZM18.0947 3.97294C19.8966 3.28187 22.4227 2.88548 25.0253 2.88548C27.6278 2.88548 30.154 3.28187 31.9558 3.97294C33.5868 4.59859 34.1145 5.26009 34.1145 5.48241C34.1145 5.70474 33.5869 6.36623 31.9558 6.99188C30.1539 7.68295 27.6278 8.07934 25.0253 8.07934C22.4227 8.07934 19.8965 7.68295 18.0947 6.99188C16.4637 6.36623 15.936 5.70474 15.936 5.48241C15.936 5.26009 16.4637 4.59859 18.0947 3.97294ZM36.8088 32.9556C37.1337 33.6831 36.8072 34.5363 36.0796 34.8611C33.0748 36.2027 29.1455 36.9342 24.9709 36.9342C24.8169 36.9342 24.6626 36.9332 24.508 36.9312C23.7112 36.9209 23.0737 36.2667 23.084 35.47C23.0943 34.6732 23.7505 34.0359 24.5453 34.046C28.4262 34.0956 32.2009 33.4329 34.9033 32.2263C35.6308 31.9013 36.4839 32.2279 36.8088 32.9556ZM36.8088 26.5354C37.1337 27.263 36.8072 28.1161 36.0796 28.4409C33.8913 29.418 31.1627 30.0827 28.189 30.3633C28.1429 30.3677 28.0971 30.3697 28.0518 30.3697C27.316 30.3697 26.6876 29.8097 26.6171 29.0625C26.5422 28.2692 27.1247 27.5654 27.9179 27.4906C30.5828 27.2391 32.9983 26.6566 34.9033 25.8061C35.6308 25.4811 36.4839 25.8077 36.8088 26.5354ZM36.8088 20.043C37.1336 20.7706 36.8072 21.6237 36.0796 21.9486C34.0103 22.8726 31.4411 23.5211 28.6499 23.8242C28.597 23.83 28.5443 23.8328 28.4923 23.8328C27.7653 23.8328 27.14 23.2849 27.0597 22.5456C26.9737 21.7536 27.5462 21.0416 28.3383 20.9556C30.8346 20.6844 33.1047 20.1167 34.9031 19.3137C35.6308 18.9888 36.4839 19.3154 36.8088 20.043ZM36.0795 15.3842C33.4413 16.562 29.9729 17.2889 26.3131 17.431C26.2941 17.4317 26.275 17.4321 26.2561 17.4321C25.4851 17.4321 24.8456 16.8224 24.8155 16.0452C24.7845 15.249 25.405 14.5785 26.2012 14.5476C29.5023 14.4195 32.5928 13.7808 34.9032 12.7493C35.6307 12.4243 36.4839 12.7509 36.8088 13.4785C37.1337 14.2062 36.8072 15.0593 36.0795 15.3842ZM12.2633 12.4076C5.50131 12.4076 0 17.9089 0 24.6709C0 31.4328 5.50131 36.9341 12.2633 36.9341C19.0253 36.9341 24.5266 31.4328 24.5266 24.6709C24.5266 17.9089 19.0253 12.4076 12.2633 12.4076ZM12.2633 34.0487C7.09236 34.0487 2.88548 29.8419 2.88548 24.6709C2.88548 19.4999 7.09236 15.293 12.2633 15.293C17.4342 15.293 21.6411 19.4999 21.6411 24.6709C21.6411 29.8419 17.4342 34.0487 12.2633 34.0487ZM16.303 26.835C16.303 28.3845 15.3108 29.7088 13.9224 30.2183V30.4418C13.9224 31.2386 13.2765 31.8846 12.4797 31.8846C11.6829 31.8846 11.037 31.2386 11.037 30.4418V30.2538C10.449 30.1345 9.79375 29.953 9.13348 29.6906C8.39299 29.3963 8.03137 28.5575 8.32562 27.817C8.61994 27.0765 9.45875 26.7149 10.1992 27.0091C11.3287 27.458 12.3585 27.5563 12.66 27.5563C13.0706 27.5563 13.4175 27.226 13.4175 26.835C13.4175 26.4439 12.955 26.1136 12.4076 26.1136C10.0635 26.1136 8.29575 24.563 8.29575 22.5067C8.29575 20.8163 9.46495 19.3944 11.037 19.0056V18.8999C11.037 18.1031 11.6829 17.4572 12.4797 17.4572C13.2765 17.4572 13.9224 18.1031 13.9224 18.8999V19.1654C14.2931 19.2631 14.7044 19.3953 15.1667 19.5751C15.9093 19.8639 16.2773 20.7 15.9884 21.4426C15.6997 22.1852 14.8635 22.5532 14.1209 22.2644C13.0384 21.8434 12.4151 21.7854 11.9026 21.7854C11.5048 21.7854 11.1812 22.109 11.1812 22.5067C11.1812 22.918 11.7085 23.2281 12.4076 23.2281C13.4217 23.2281 14.3795 23.5822 15.1048 24.225C15.8662 24.9 16.303 25.8512 16.303 26.835Z" fill="#352101"/>
</svg>
