<svg width="41" height="40" viewBox="0 0 41 40" fill="none" xmlns="http://www.w3.org/2000/svg">
<path d="M33.5368 8.73256C33.2585 8.73256 32.9818 8.63287 32.7604 8.42725C29.3671 5.29317 25.0129 3.56725 20.4988 3.56725C15.9847 3.56725 11.6305 5.29317 8.23725 8.42881C7.76524 8.8634 7.03646 8.82758 6.6075 8.35248C6.17854 7.87583 6.21236 7.13592 6.68284 6.70133C10.5035 3.17316 15.4097 1.23071 20.4988 1.23071C25.5879 1.23071 30.4941 3.17316 34.3148 6.70133C34.7853 7.13592 34.8191 7.87427 34.3901 8.35248C34.1626 8.60483 33.8505 8.73256 33.5368 8.73256Z" fill="#352101"/>
<path d="M35.4904 16.367C35.1199 16.367 34.7539 16.1863 34.5325 15.8498C31.3315 11.021 26.0855 8.13772 20.4998 8.13772C14.914 8.13772 9.66808 11.021 6.46701 15.8498C6.11184 16.3873 5.39383 16.5306 4.86647 16.1692C4.33757 15.8094 4.19612 15.0835 4.55128 14.5476C8.18132 9.07233 14.1437 5.80273 20.4998 5.80273C26.8558 5.80273 32.8182 9.07233 36.4483 14.5492C36.8034 15.085 36.6635 15.8109 36.1331 16.1707C35.9363 16.3031 35.7133 16.367 35.4904 16.367Z" fill="#352101"/>
<path d="M16.8572 38.6155C16.5605 38.6155 16.2637 38.5002 16.0377 38.2697C15.7856 38.0127 9.87695 31.9019 9.87695 26.0185C9.87695 19.9123 14.6417 14.9448 20.4995 14.9448C26.3574 14.9448 31.1221 19.9123 31.1221 26.0185C31.1221 26.6633 30.6055 27.1867 29.969 27.1867C29.3325 27.1867 28.8159 26.6633 28.8159 26.0185C28.8159 21.2005 25.0859 17.2814 20.4995 17.2814C15.9132 17.2814 12.1832 21.2005 12.1832 26.0185C12.1832 30.9517 17.6213 36.5687 17.6767 36.6248C18.1256 37.0827 18.1226 37.8227 17.669 38.2775C17.4445 38.5034 17.1509 38.6155 16.8572 38.6155Z" fill="#352101"/>
<path d="M24.1419 38.6153C21.3682 38.6153 14.9384 33.2693 14.3157 27.3158C14.0959 25.2114 14.757 23.0586 16.0823 21.557C17.2354 20.2517 18.7929 19.5274 20.4673 19.518H20.4996C22.1324 19.518 23.676 20.1676 24.8507 21.3499C26.0776 22.5851 26.7526 24.2441 26.7526 26.0198V26.7815C26.7526 28.6586 28.1947 30.1851 29.969 30.1851C31.7433 30.1851 33.187 28.6586 33.187 26.7815V26.5152C33.187 19.2407 27.9856 13.1891 21.3452 12.7405C17.8827 12.5022 14.5617 13.7141 11.9987 16.1409C9.33885 18.6613 7.81365 22.2627 7.81365 26.0198C7.81365 29.1103 8.84685 32.1213 10.7226 34.4983C11.1193 35.003 11.0393 35.7367 10.5412 36.1401C10.0446 36.5436 9.31886 36.461 8.91911 35.9563C6.71895 33.1665 5.50586 29.6368 5.50586 26.0183C5.50586 21.6162 7.29859 17.3933 10.4212 14.4337C13.4547 11.5582 17.3877 10.1282 21.4959 10.4071C29.3433 10.9382 35.4917 18.0133 35.4917 26.5136V26.78C35.4917 29.9452 33.0133 32.5201 29.9675 32.5201C26.9217 32.5201 24.4448 29.9452 24.4448 26.78V26.0183C24.4448 24.8687 24.0112 23.8001 23.224 23.0057C22.486 22.2611 21.5189 21.853 20.4996 21.853C20.4919 21.853 20.4857 21.853 20.478 21.853C19.1788 21.8592 18.304 22.5431 17.7997 23.1147C16.9003 24.1319 16.4544 25.6117 16.6066 27.0697C17.1155 31.9266 22.6244 36.2803 24.1404 36.2803C24.7769 36.2803 25.2935 36.8037 25.2935 37.4486C25.2935 38.0935 24.7784 38.6153 24.1419 38.6153Z" fill="#352101"/>
<path d="M28.4209 36.33C24.2942 36.33 19.2559 31.2208 19.2559 25.2564C19.2559 24.6115 19.7725 24.0881 20.409 24.0881C21.0455 24.0881 21.5621 24.6115 21.5621 25.2564C21.5621 29.8796 25.3982 33.9935 28.4209 33.9935C29.0574 33.9935 29.574 34.5169 29.574 35.1618C29.574 35.8067 29.0574 36.33 28.4209 36.33Z" fill="#352101"/>
</svg>
