<svg width="272" height="84" viewBox="0 0 272 84" fill="none" xmlns="http://www.w3.org/2000/svg">
<rect x="1" y="1" width="270" height="82" rx="7" fill="#090402" stroke="url(#paint0_linear_823_124)" stroke-width="2"/>
<g clip-path="url(#clip0_823_124)">
<path d="M20.9565 59.8594C20.9565 61.2792 21.5498 62.5776 22.3136 63.2982C23.0068 64.25 24.6362 65 26.0716 65C26.9196 65 27.7754 64.7885 28.5607 64.3538L51.9177 51.2995C51.9549 51.278 51.9726 51.2427 52.0058 51.2192C53.3493 50.6259 55.8716 49.0455 61.4078 45.9944H61.4098C64.9113 44.0302 64.9152 38.9738 61.4078 37.0057C56.2182 34.356 53.6959 32.5289 52.1958 31.8298C50.6272 30.7174 46.6537 28.7219 38.0077 23.875C27.0312 17.7259 25.3314 16.6684 22.6916 19.2867C19.9107 20.4362 21.2737 28.1246 20.9565 59.8594ZM41.0823 41.455C40.8845 41.6489 24.0781 59.6185 23.894 59.8144C24.1818 31.0034 23.6296 26.8556 23.9116 23.2033C24.0937 23.3992 40.4203 40.8205 41.0823 41.455ZM25.8249 62.0488C48.4299 38.3119 42.1456 44.9212 43.2364 43.709C43.4225 43.9068 49.2113 50.0482 48.8412 49.6565C26.477 61.9862 27.1272 62.2016 25.8249 62.0488ZM59.9723 43.4309L51.4849 48.1779L45.1908 41.5L51.4849 34.8221L59.9723 39.5691C61.4763 40.4092 61.4744 42.5908 59.9723 43.4309ZM48.8353 33.3494C46.3893 35.9188 48.5533 33.7039 43.1444 39.3263L25.821 20.9454C27.7813 21.1197 33.9343 25.0912 48.8353 33.3494Z" fill="#F4CA64"/>
</g>
<path d="M91.294 31L94.094 21.2H96.754L99.54 31H97.986L97.342 28.69H93.506L92.862 31H91.294ZM93.884 27.29H96.964L95.536 22.138H95.312L93.884 27.29ZM102.314 31L99.9903 24.098H101.516L103.35 29.936H103.574L105.408 24.098H106.934L104.61 31H102.314ZM110.284 31.196C109.789 31.196 109.346 31.112 108.954 30.944C108.571 30.776 108.263 30.5287 108.03 30.202C107.806 29.8753 107.694 29.4787 107.694 29.012C107.694 28.536 107.806 28.144 108.03 27.836C108.263 27.5187 108.576 27.2807 108.968 27.122C109.369 26.9633 109.822 26.884 110.326 26.884H112.426V26.436C112.426 26.0347 112.305 25.7127 112.062 25.47C111.819 25.2273 111.446 25.106 110.942 25.106C110.447 25.106 110.069 25.2227 109.808 25.456C109.547 25.6893 109.374 25.9927 109.29 26.366L107.946 25.932C108.058 25.5587 108.235 25.2227 108.478 24.924C108.73 24.616 109.061 24.3687 109.472 24.182C109.883 23.9953 110.377 23.902 110.956 23.902C111.852 23.902 112.557 24.1307 113.07 24.588C113.583 25.0453 113.84 25.694 113.84 26.534V29.376C113.84 29.656 113.971 29.796 114.232 29.796H114.82V31H113.742C113.415 31 113.149 30.916 112.944 30.748C112.739 30.58 112.636 30.3513 112.636 30.062V30.02H112.426C112.351 30.16 112.239 30.3233 112.09 30.51C111.941 30.6967 111.721 30.86 111.432 31C111.143 31.1307 110.76 31.196 110.284 31.196ZM110.494 30.006C111.073 30.006 111.539 29.8427 111.894 29.516C112.249 29.18 112.426 28.7227 112.426 28.144V28.004H110.41C110.027 28.004 109.719 28.088 109.486 28.256C109.253 28.4147 109.136 28.6527 109.136 28.97C109.136 29.2873 109.257 29.5393 109.5 29.726C109.743 29.9127 110.074 30.006 110.494 30.006ZM116.222 31V24.098H117.664V31H116.222ZM116.95 23.16C116.67 23.16 116.432 23.0713 116.236 22.894C116.05 22.7073 115.956 22.4693 115.956 22.18C115.956 21.8907 116.05 21.6573 116.236 21.48C116.432 21.2933 116.67 21.2 116.95 21.2C117.24 21.2 117.478 21.2933 117.664 21.48C117.851 21.6573 117.944 21.8907 117.944 22.18C117.944 22.4693 117.851 22.7073 117.664 22.894C117.478 23.0713 117.24 23.16 116.95 23.16ZM119.804 31V21.2H121.246V31H119.804ZM125.528 31.196C125.034 31.196 124.59 31.112 124.198 30.944C123.816 30.776 123.508 30.5287 123.274 30.202C123.05 29.8753 122.938 29.4787 122.938 29.012C122.938 28.536 123.05 28.144 123.274 27.836C123.508 27.5187 123.82 27.2807 124.212 27.122C124.614 26.9633 125.066 26.884 125.57 26.884H127.67V26.436C127.67 26.0347 127.549 25.7127 127.306 25.47C127.064 25.2273 126.69 25.106 126.186 25.106C125.692 25.106 125.314 25.2227 125.052 25.456C124.791 25.6893 124.618 25.9927 124.534 26.366L123.19 25.932C123.302 25.5587 123.48 25.2227 123.722 24.924C123.974 24.616 124.306 24.3687 124.716 24.182C125.127 23.9953 125.622 23.902 126.2 23.902C127.096 23.902 127.801 24.1307 128.314 24.588C128.828 25.0453 129.084 25.694 129.084 26.534V29.376C129.084 29.656 129.215 29.796 129.476 29.796H130.064V31H128.986C128.66 31 128.394 30.916 128.188 30.748C127.983 30.58 127.88 30.3513 127.88 30.062V30.02H127.67C127.596 30.16 127.484 30.3233 127.334 30.51C127.185 30.6967 126.966 30.86 126.676 31C126.387 31.1307 126.004 31.196 125.528 31.196ZM125.738 30.006C126.317 30.006 126.784 29.8427 127.138 29.516C127.493 29.18 127.67 28.7227 127.67 28.144V28.004H125.654C125.272 28.004 124.964 28.088 124.73 28.256C124.497 28.4147 124.38 28.6527 124.38 28.97C124.38 29.2873 124.502 29.5393 124.744 29.726C124.987 29.9127 125.318 30.006 125.738 30.006ZM135.456 31.196C134.784 31.196 134.266 31.0747 133.902 30.832C133.548 30.5893 133.282 30.3187 133.104 30.02H132.88V31H131.466V21.2H132.908V25.036H133.132C133.244 24.8493 133.394 24.672 133.58 24.504C133.767 24.3267 134.014 24.182 134.322 24.07C134.63 23.958 135.008 23.902 135.456 23.902C136.035 23.902 136.567 24.042 137.052 24.322C137.538 24.602 137.925 25.008 138.214 25.54C138.504 26.072 138.648 26.7067 138.648 27.444V27.654C138.648 28.4007 138.499 29.04 138.2 29.572C137.911 30.0947 137.524 30.496 137.038 30.776C136.562 31.056 136.035 31.196 135.456 31.196ZM135.036 29.936C135.662 29.936 136.175 29.7353 136.576 29.334C136.987 28.9327 137.192 28.3587 137.192 27.612V27.486C137.192 26.7487 136.992 26.1793 136.59 25.778C136.189 25.3767 135.671 25.176 135.036 25.176C134.42 25.176 133.907 25.3767 133.496 25.778C133.095 26.1793 132.894 26.7487 132.894 27.486V27.612C132.894 28.3587 133.095 28.9327 133.496 29.334C133.907 29.7353 134.42 29.936 135.036 29.936ZM140.435 31V21.2H141.877V31H140.435ZM147.181 31.196C146.481 31.196 145.87 31.0513 145.347 30.762C144.824 30.4633 144.414 30.048 144.115 29.516C143.826 28.9747 143.681 28.3493 143.681 27.64V27.472C143.681 26.7533 143.826 26.128 144.115 25.596C144.404 25.0547 144.806 24.6393 145.319 24.35C145.842 24.0513 146.444 23.902 147.125 23.902C147.788 23.902 148.366 24.0513 148.861 24.35C149.365 24.6393 149.757 25.0453 150.037 25.568C150.317 26.0907 150.457 26.702 150.457 27.402V27.948H145.151C145.17 28.5547 145.37 29.04 145.753 29.404C146.145 29.7587 146.63 29.936 147.209 29.936C147.75 29.936 148.156 29.8147 148.427 29.572C148.707 29.3293 148.922 29.0493 149.071 28.732L150.261 29.348C150.13 29.6093 149.939 29.8847 149.687 30.174C149.444 30.4633 149.122 30.706 148.721 30.902C148.32 31.098 147.806 31.196 147.181 31.196ZM145.165 26.842H148.987C148.95 26.3193 148.763 25.9133 148.427 25.624C148.091 25.3253 147.652 25.176 147.111 25.176C146.57 25.176 146.126 25.3253 145.781 25.624C145.445 25.9133 145.24 26.3193 145.165 26.842ZM158.995 31.196C158.305 31.196 157.689 31.056 157.147 30.776C156.615 30.4867 156.195 30.076 155.887 29.544C155.579 29.012 155.425 28.382 155.425 27.654V27.444C155.425 26.716 155.579 26.0907 155.887 25.568C156.195 25.036 156.615 24.6253 157.147 24.336C157.689 24.0467 158.305 23.902 158.995 23.902C159.686 23.902 160.302 24.0467 160.843 24.336C161.385 24.6253 161.809 25.036 162.117 25.568C162.425 26.0907 162.579 26.716 162.579 27.444V27.654C162.579 28.382 162.425 29.012 162.117 29.544C161.809 30.076 161.385 30.4867 160.843 30.776C160.302 31.056 159.686 31.196 158.995 31.196ZM158.995 29.908C159.63 29.908 160.143 29.7073 160.535 29.306C160.937 28.8953 161.137 28.3307 161.137 27.612V27.486C161.137 26.7673 160.941 26.2073 160.549 25.806C160.157 25.3953 159.639 25.19 158.995 25.19C158.37 25.19 157.857 25.3953 157.455 25.806C157.063 26.2073 156.867 26.7673 156.867 27.486V27.612C156.867 28.3307 157.063 28.8953 157.455 29.306C157.857 29.7073 158.37 29.908 158.995 29.908ZM164.375 31V24.098H165.789V25.134H166.013C166.143 24.854 166.377 24.5927 166.713 24.35C167.049 24.1073 167.548 23.986 168.211 23.986C168.733 23.986 169.195 24.1027 169.597 24.336C170.007 24.5693 170.329 24.9007 170.563 25.33C170.796 25.75 170.913 26.2587 170.913 26.856V31H169.471V26.968C169.471 26.3707 169.321 25.932 169.023 25.652C168.724 25.3627 168.313 25.218 167.791 25.218C167.193 25.218 166.713 25.414 166.349 25.806C165.994 26.198 165.817 26.7673 165.817 27.514V31H164.375ZM179.146 31C178.726 31 178.39 30.874 178.138 30.622C177.896 30.37 177.774 30.034 177.774 29.614V25.316H175.87V24.098H177.774V21.816H179.216V24.098H181.274V25.316H179.216V29.362C179.216 29.642 179.347 29.782 179.608 29.782H181.05V31H179.146ZM182.968 31V21.2H184.41V25.078H184.634C184.728 24.9007 184.858 24.728 185.026 24.56C185.204 24.392 185.432 24.2567 185.712 24.154C186.002 24.042 186.366 23.986 186.804 23.986C187.327 23.986 187.789 24.1027 188.19 24.336C188.601 24.5693 188.923 24.9007 189.156 25.33C189.39 25.75 189.506 26.2587 189.506 26.856V31H188.064V26.968C188.064 26.3707 187.915 25.932 187.616 25.652C187.318 25.3627 186.907 25.218 186.384 25.218C185.787 25.218 185.306 25.414 184.942 25.806C184.588 26.198 184.41 26.7673 184.41 27.514V31H182.968ZM194.746 31.196C194.046 31.196 193.434 31.0513 192.912 30.762C192.389 30.4633 191.978 30.048 191.68 29.516C191.39 28.9747 191.246 28.3493 191.246 27.64V27.472C191.246 26.7533 191.39 26.128 191.68 25.596C191.969 25.0547 192.37 24.6393 192.884 24.35C193.406 24.0513 194.008 23.902 194.69 23.902C195.352 23.902 195.931 24.0513 196.426 24.35C196.93 24.6393 197.322 25.0453 197.602 25.568C197.882 26.0907 198.022 26.702 198.022 27.402V27.948H192.716C192.734 28.5547 192.935 29.04 193.318 29.404C193.71 29.7587 194.195 29.936 194.774 29.936C195.315 29.936 195.721 29.8147 195.992 29.572C196.272 29.3293 196.486 29.0493 196.636 28.732L197.826 29.348C197.695 29.6093 197.504 29.8847 197.252 30.174C197.009 30.4633 196.687 30.706 196.286 30.902C195.884 31.098 195.371 31.196 194.746 31.196ZM192.73 26.842H196.552C196.514 26.3193 196.328 25.9133 195.992 25.624C195.656 25.3253 195.217 25.176 194.676 25.176C194.134 25.176 193.691 25.3253 193.346 25.624C193.01 25.9133 192.804 26.3193 192.73 26.842Z" fill="#8B8B8B"/>
<path d="M98.584 61.336C97.384 61.336 96.312 61.08 95.368 60.568C94.424 60.04 93.68 59.272 93.136 58.264C92.592 57.256 92.32 56.024 92.32 54.568V50.632C92.32 48.44 92.92 46.768 94.12 45.616C95.32 44.448 96.944 43.864 98.992 43.864C101.008 43.864 102.56 44.416 103.648 45.52C104.736 46.608 105.28 48.072 105.28 49.912V50.032H102.712V49.84C102.712 49.152 102.576 48.536 102.304 47.992C102.032 47.432 101.624 46.992 101.08 46.672C100.536 46.352 99.84 46.192 98.992 46.192C97.712 46.192 96.712 46.584 95.992 47.368C95.272 48.136 94.912 49.208 94.912 50.584V54.616C94.912 55.976 95.272 57.056 95.992 57.856C96.712 58.64 97.72 59.032 99.016 59.032C100.296 59.032 101.232 58.68 101.824 57.976C102.416 57.272 102.712 56.36 102.712 55.24V54.928H98.2V52.696H105.28V61H102.88V59.296H102.496C102.352 59.6 102.136 59.912 101.848 60.232C101.576 60.552 101.176 60.816 100.648 61.024C100.136 61.232 99.448 61.336 98.584 61.336ZM114.235 61.336C113.051 61.336 111.995 61.096 111.067 60.616C110.155 60.12 109.435 59.416 108.907 58.504C108.379 57.592 108.115 56.512 108.115 55.264V54.904C108.115 53.656 108.379 52.584 108.907 51.688C109.435 50.776 110.155 50.072 111.067 49.576C111.995 49.08 113.051 48.832 114.235 48.832C115.419 48.832 116.475 49.08 117.403 49.576C118.331 50.072 119.059 50.776 119.587 51.688C120.115 52.584 120.379 53.656 120.379 54.904V55.264C120.379 56.512 120.115 57.592 119.587 58.504C119.059 59.416 118.331 60.12 117.403 60.616C116.475 61.096 115.419 61.336 114.235 61.336ZM114.235 59.128C115.323 59.128 116.203 58.784 116.875 58.096C117.563 57.392 117.907 56.424 117.907 55.192V54.976C117.907 53.744 117.571 52.784 116.899 52.096C116.227 51.392 115.339 51.04 114.235 51.04C113.163 51.04 112.283 51.392 111.595 52.096C110.923 52.784 110.587 53.744 110.587 54.976V55.192C110.587 56.424 110.923 57.392 111.595 58.096C112.283 58.784 113.163 59.128 114.235 59.128ZM129.001 61.336C127.817 61.336 126.761 61.096 125.833 60.616C124.921 60.12 124.201 59.416 123.673 58.504C123.145 57.592 122.881 56.512 122.881 55.264V54.904C122.881 53.656 123.145 52.584 123.673 51.688C124.201 50.776 124.921 50.072 125.833 49.576C126.761 49.08 127.817 48.832 129.001 48.832C130.185 48.832 131.241 49.08 132.169 49.576C133.097 50.072 133.825 50.776 134.353 51.688C134.881 52.584 135.145 53.656 135.145 54.904V55.264C135.145 56.512 134.881 57.592 134.353 58.504C133.825 59.416 133.097 60.12 132.169 60.616C131.241 61.096 130.185 61.336 129.001 61.336ZM129.001 59.128C130.089 59.128 130.969 58.784 131.641 58.096C132.329 57.392 132.673 56.424 132.673 55.192V54.976C132.673 53.744 132.337 52.784 131.665 52.096C130.993 51.392 130.105 51.04 129.001 51.04C127.929 51.04 127.049 51.392 126.361 52.096C125.689 52.784 125.353 53.744 125.353 54.976V55.192C125.353 56.424 125.689 57.392 126.361 58.096C127.049 58.784 127.929 59.128 129.001 59.128ZM137.646 55.144V54.784C137.646 53.536 137.894 52.472 138.39 51.592C138.902 50.712 139.574 50.032 140.406 49.552C141.238 49.072 142.15 48.832 143.142 48.832C144.294 48.832 145.174 49.048 145.782 49.48C146.406 49.912 146.862 50.376 147.15 50.872H147.534V49.168H149.934V63.424C149.934 64.144 149.718 64.72 149.286 65.152C148.87 65.584 148.294 65.8 147.558 65.8H139.59V63.64H146.79C147.254 63.64 147.486 63.4 147.486 62.92V59.152H147.102C146.926 59.44 146.678 59.736 146.358 60.04C146.038 60.344 145.614 60.592 145.086 60.784C144.574 60.976 143.926 61.072 143.142 61.072C142.15 61.072 141.23 60.84 140.382 60.376C139.55 59.896 138.886 59.216 138.39 58.336C137.894 57.44 137.646 56.376 137.646 55.144ZM143.814 58.912C144.886 58.912 145.766 58.576 146.454 57.904C147.158 57.216 147.51 56.272 147.51 55.072V54.856C147.51 53.624 147.166 52.68 146.478 52.024C145.79 51.352 144.902 51.016 143.814 51.016C142.758 51.016 141.878 51.352 141.174 52.024C140.486 52.68 140.142 53.624 140.142 54.856V55.072C140.142 56.272 140.486 57.216 141.174 57.904C141.878 58.576 142.758 58.912 143.814 58.912ZM153.574 61V44.2H156.046V61H153.574ZM165.139 61.336C163.939 61.336 162.891 61.088 161.995 60.592C161.099 60.08 160.395 59.368 159.883 58.456C159.387 57.528 159.139 56.456 159.139 55.24V54.952C159.139 53.72 159.387 52.648 159.883 51.736C160.379 50.808 161.067 50.096 161.947 49.6C162.843 49.088 163.875 48.832 165.043 48.832C166.179 48.832 167.171 49.088 168.019 49.6C168.883 50.096 169.555 50.792 170.035 51.688C170.515 52.584 170.755 53.632 170.755 54.832V55.768H161.659C161.691 56.808 162.035 57.64 162.691 58.264C163.363 58.872 164.195 59.176 165.187 59.176C166.115 59.176 166.811 58.968 167.275 58.552C167.755 58.136 168.123 57.656 168.379 57.112L170.419 58.168C170.195 58.616 169.867 59.088 169.435 59.584C169.019 60.08 168.467 60.496 167.779 60.832C167.091 61.168 166.211 61.336 165.139 61.336ZM161.683 53.872H168.235C168.171 52.976 167.851 52.28 167.275 51.784C166.699 51.272 165.947 51.016 165.019 51.016C164.091 51.016 163.331 51.272 162.739 51.784C162.163 52.28 161.811 52.976 161.683 53.872ZM179.775 61V44.2H186.447C187.471 44.2 188.383 44.408 189.183 44.824C189.999 45.224 190.631 45.8 191.079 46.552C191.543 47.288 191.775 48.176 191.775 49.216V49.528C191.775 50.568 191.535 51.464 191.055 52.216C190.591 52.968 189.959 53.544 189.159 53.944C188.359 54.344 187.455 54.544 186.447 54.544H182.367V61H179.775ZM182.367 52.192H186.183C187.095 52.192 187.823 51.952 188.367 51.472C188.911 50.992 189.183 50.336 189.183 49.504V49.264C189.183 48.416 188.911 47.752 188.367 47.272C187.823 46.792 187.095 46.552 186.183 46.552H182.367V52.192ZM194.308 61V44.2H196.78V61H194.308ZM204.121 61.336C203.273 61.336 202.513 61.192 201.841 60.904C201.185 60.616 200.657 60.192 200.257 59.632C199.873 59.072 199.681 58.392 199.681 57.592C199.681 56.776 199.873 56.104 200.257 55.576C200.657 55.032 201.193 54.624 201.865 54.352C202.553 54.08 203.329 53.944 204.193 53.944H207.793V53.176C207.793 52.488 207.585 51.936 207.169 51.52C206.753 51.104 206.113 50.896 205.249 50.896C204.401 50.896 203.753 51.096 203.305 51.496C202.857 51.896 202.561 52.416 202.417 53.056L200.113 52.312C200.305 51.672 200.609 51.096 201.025 50.584C201.457 50.056 202.025 49.632 202.729 49.312C203.433 48.992 204.281 48.832 205.273 48.832C206.809 48.832 208.017 49.224 208.897 50.008C209.777 50.792 210.217 51.904 210.217 53.344V58.216C210.217 58.696 210.441 58.936 210.889 58.936H211.897V61H210.049C209.489 61 209.033 60.856 208.681 60.568C208.329 60.28 208.153 59.888 208.153 59.392V59.32H207.793C207.665 59.56 207.473 59.84 207.217 60.16C206.961 60.48 206.585 60.76 206.089 61C205.593 61.224 204.937 61.336 204.121 61.336ZM204.481 59.296C205.473 59.296 206.273 59.016 206.881 58.456C207.489 57.88 207.793 57.096 207.793 56.104V55.864H204.337C203.681 55.864 203.153 56.008 202.753 56.296C202.353 56.568 202.153 56.976 202.153 57.52C202.153 58.064 202.361 58.496 202.777 58.816C203.193 59.136 203.761 59.296 204.481 59.296ZM215.364 65.8V63.64H221.964C222.412 63.64 222.636 63.4 222.636 62.92V59.272H222.252C222.108 59.592 221.884 59.904 221.58 60.208C221.292 60.496 220.9 60.736 220.404 60.928C219.908 61.12 219.284 61.216 218.532 61.216C217.636 61.216 216.836 61.016 216.132 60.616C215.428 60.216 214.876 59.648 214.476 58.912C214.076 58.176 213.876 57.304 213.876 56.296V49.168H216.348V56.104C216.348 57.128 216.604 57.888 217.116 58.384C217.628 58.864 218.34 59.104 219.252 59.104C220.26 59.104 221.068 58.768 221.676 58.096C222.3 57.424 222.612 56.448 222.612 55.168V49.168H225.084V63.424C225.084 64.144 224.868 64.72 224.436 65.152C224.02 65.584 223.444 65.8 222.708 65.8H215.364Z" fill="white"/>
<defs>
<linearGradient id="paint0_linear_823_124" x1="14.825" y1="42" x2="235.224" y2="42" gradientUnits="userSpaceOnUse">
<stop stop-color="#FFCF57" stop-opacity="0.65"/>
<stop offset="1" stop-color="#FFCF57" stop-opacity="0.28"/>
</linearGradient>
<clipPath id="clip0_823_124">
<rect width="47" height="47" fill="white" transform="translate(19 18)"/>
</clipPath>
</defs>
</svg>
