<svg width="21" height="23" viewBox="0 0 21 23" fill="none" xmlns="http://www.w3.org/2000/svg">
<path d="M20.25 5.62496V16.875C20.2482 18.3663 19.655 19.796 18.6005 20.8505C17.546 21.905 16.1163 22.4982 14.625 22.5H10.125C9.82664 22.5 9.54049 22.3814 9.32952 22.1705C9.11854 21.9595 9.00002 21.6733 9.00002 21.375C9.00002 21.0766 9.11854 20.7905 9.32952 20.5795C9.54049 20.3685 9.82664 20.25 10.125 20.25H14.625C15.5198 20.249 16.3777 19.8931 17.0104 19.2604C17.6431 18.6277 17.999 17.7698 18 16.875V5.62496C17.999 4.73016 17.6431 3.87228 17.0104 3.23956C16.3777 2.60684 15.5198 2.25094 14.625 2.24996H10.125C9.82664 2.24996 9.54049 2.13144 9.32952 1.92047C9.11854 1.70949 9.00002 1.42335 9.00002 1.12498C9.00002 0.826619 9.11854 0.540475 9.32952 0.3295C9.54049 0.118525 9.82664 6.28755e-09 10.125 0H14.625C16.1163 0.00174453 17.546 0.594932 18.6005 1.64944C19.655 2.70394 20.2482 4.13366 20.25 5.62496ZM13.4132 11.6798C13.4979 11.4742 13.52 11.248 13.4767 11.0299C13.4333 10.8117 13.3264 10.6112 13.1695 10.4536L8.67043 5.95455C8.45947 5.7436 8.17335 5.62508 7.87501 5.62508C7.57667 5.62508 7.29055 5.7436 7.07959 5.95456C6.86863 6.16551 6.75012 6.45163 6.75012 6.74997C6.75012 7.04831 6.86863 7.33443 7.07959 7.54539L9.6592 10.125H1.12498C0.826619 10.125 0.540475 10.2435 0.3295 10.4545C0.118525 10.6655 0 10.9516 0 11.25C0 11.5483 0.118525 11.8345 0.3295 12.0455C0.540475 12.2564 0.826619 12.375 1.12498 12.375H9.6592L7.07959 14.9546C6.97513 15.059 6.89228 15.183 6.83574 15.3195C6.77921 15.456 6.75012 15.6023 6.75012 15.75C6.75012 15.8977 6.77921 16.044 6.83574 16.1805C6.89228 16.3169 6.97513 16.441 7.07959 16.5454C7.18405 16.6499 7.30805 16.7327 7.44453 16.7893C7.58101 16.8458 7.72729 16.8749 7.87501 16.8749C8.02273 16.8749 8.16901 16.8458 8.30549 16.7893C8.44196 16.7327 8.56597 16.6499 8.67043 16.5454L13.1695 12.0463C13.2741 11.9414 13.3569 11.8169 13.4132 11.6798Z" fill="#FFCF57"/>
</svg>
