<svg width="170" height="113" viewBox="0 0 170 113" fill="none" xmlns="http://www.w3.org/2000/svg">
<path d="M80.4805 0.820862L160.48 104.321H0.480469L80.4805 0.820862Z" fill="#E1E1E1" fill-opacity="0.15"/>
<path d="M141.54 65.135C141.554 65.7898 140.818 66.1829 140.282 65.8074L137.643 63.9608C137.504 63.8634 137.337 63.8128 137.167 63.8164L133.948 63.8846C133.293 63.8985 132.9 63.1626 133.275 62.626L135.122 59.9874C135.219 59.8482 135.27 59.6815 135.266 59.5117L135.198 56.2918C135.184 55.637 135.92 55.2438 136.457 55.6194L139.095 57.4659C139.234 57.5634 139.401 57.6139 139.571 57.6103L142.791 57.5421C143.446 57.5283 143.839 58.2641 143.463 58.8008L141.617 61.4394C141.519 61.5786 141.469 61.7452 141.472 61.9151L141.54 65.135Z" fill="url(#paint0_linear_892_5349)"/>
<path d="M162.856 81.9478C162.475 82.5782 161.54 82.5094 161.256 81.8301L159.859 78.4898C159.785 78.3136 159.657 78.1654 159.494 78.0667L156.394 76.1961C155.763 75.8156 155.832 74.8802 156.511 74.5962L159.852 73.1993C160.028 73.1256 160.176 72.9977 160.275 72.8342L162.145 69.7342C162.526 69.1038 163.461 69.1726 163.745 69.8519L165.142 73.1922C165.216 73.3685 165.344 73.5167 165.507 73.6153L168.607 75.486C169.238 75.8664 169.169 76.8018 168.49 77.0859L165.149 78.4827C164.973 78.5564 164.825 78.6843 164.726 78.8478L162.856 81.9478Z" fill="url(#paint1_linear_892_5349)"/>
<path d="M162.856 81.9478C162.475 82.5782 161.54 82.5094 161.256 81.8301L159.859 78.4898C159.785 78.3136 159.657 78.1654 159.494 78.0667L156.394 76.1961C155.763 75.8156 155.832 74.8802 156.511 74.5962L159.852 73.1993C160.028 73.1256 160.176 72.9977 160.275 72.8342L162.145 69.7342C162.526 69.1038 163.461 69.1726 163.745 69.8519L165.142 73.1922C165.216 73.3685 165.344 73.5167 165.507 73.6153L168.607 75.486C169.238 75.8664 169.169 76.8018 168.49 77.0859L165.149 78.4827C164.973 78.5564 164.825 78.6843 164.726 78.8478L162.856 81.9478Z" fill="url(#paint2_linear_892_5349)"/>
<path d="M10.4805 68.3636V74.4171C10.4805 74.9694 10.9282 75.4171 11.4805 75.4171H31.325C31.7107 75.4171 32.062 75.6389 32.2279 75.9872L48.7148 110.61C49.111 111.442 50.3264 111.34 50.5793 110.454L69.5545 43.934C69.6777 43.5021 70.0738 43.2053 70.5229 43.2083L134.974 43.6438C135.529 43.6476 135.98 43.1988 135.98 42.6439V36.8209C135.98 36.2686 135.533 35.8209 134.98 35.8209H64.703C64.2555 35.8209 63.8625 36.1181 63.7407 36.5487L48.7735 89.4609C48.524 90.3432 47.3176 90.4525 46.9136 89.6294L36.2577 67.923C36.0896 67.5806 35.7415 67.3636 35.3601 67.3636H11.4805C10.9282 67.3636 10.4805 67.8114 10.4805 68.3636Z" fill="#2FB91A"/>
<path d="M10.4805 66.3636V72.4171C10.4805 72.9694 10.9282 73.4171 11.4805 73.4171H31.325C31.7107 73.4171 32.062 73.6389 32.2279 73.9872L48.7148 108.61C49.111 109.442 50.3264 109.34 50.5793 108.454L69.5545 41.934C69.6777 41.5021 70.0738 41.2053 70.5229 41.2083L134.974 41.6438C135.529 41.6476 135.98 41.1988 135.98 40.6439V34.8209C135.98 34.2686 135.533 33.8209 134.98 33.8209H64.703C64.2555 33.8209 63.8625 34.1181 63.7407 34.5487L48.7735 87.4609C48.524 88.3432 47.3176 88.4525 46.9136 87.6294L36.2577 65.923C36.0896 65.5806 35.7415 65.3636 35.3601 65.3636H11.4805C10.9282 65.3636 10.4805 65.8114 10.4805 66.3636Z" fill="#76DF3F"/>
<path d="M124.316 82.8065C124.38 95.9128 113.807 106.589 100.701 106.653C87.5946 106.717 76.918 96.1444 76.8541 83.0381C76.7901 69.9318 87.363 59.2552 100.469 59.1912C113.576 59.1273 124.252 69.7002 124.316 82.8065Z" fill="#6EBA2B"/>
<path d="M124.316 82.8065C124.38 95.9128 113.807 106.589 100.701 106.653C87.5946 106.717 76.918 96.1444 76.8541 83.0381C76.7901 69.9318 87.363 59.2552 100.469 59.1912C113.576 59.1273 124.252 69.7002 124.316 82.8065Z" fill="url(#paint3_linear_892_5349)"/>
<path fill-rule="evenodd" clip-rule="evenodd" d="M125.562 82.8009C125.63 96.597 114.5 107.836 100.704 107.903C86.9082 107.97 75.6697 96.8408 75.6024 83.0447C75.535 69.2486 86.6644 58.0101 100.461 57.9428C114.257 57.8754 125.495 69.0048 125.562 82.8009ZM100.698 106.654C113.805 106.59 124.377 95.9133 124.313 82.807C124.25 69.7007 113.573 59.1278 100.467 59.1918C87.3603 59.2557 76.7874 69.9323 76.8514 83.0386C76.9153 96.1449 87.5919 106.718 100.698 106.654Z" fill="url(#paint4_linear_892_5349)"/>
<circle cx="100.584" cy="82.9226" r="18.7353" transform="rotate(-0.279555 100.584 82.9226)" fill="#6EBA2B"/>
<circle cx="100.584" cy="82.9226" r="18.7353" transform="rotate(-0.279555 100.584 82.9226)" fill="url(#paint5_linear_892_5349)"/>
<g clip-path="url(#clip0_892_5349)">
<path d="M100.72 69.599L100.546 70.1974L100.631 87.5368L100.809 87.7114L108.9 82.9142L100.72 69.599Z" fill="url(#paint6_linear_892_5349)"/>
<path d="M100.72 69.599L92.6707 82.9934L100.809 87.7114L100.768 79.2955L100.72 69.599Z" fill="url(#paint7_linear_892_5349)"/>
<path d="M100.816 89.2354L100.717 89.3567L100.747 95.5333L100.848 95.8222L108.913 84.4406L100.816 89.2354Z" fill="url(#paint8_linear_892_5349)"/>
<path d="M100.848 95.8222L100.816 89.2354L92.6781 84.5197L100.848 95.8222Z" fill="url(#paint9_linear_892_5349)"/>
<path d="M100.809 87.7114L108.9 82.9142L100.768 79.2955L100.809 87.7114Z" fill="url(#paint10_linear_892_5349)"/>
<path d="M92.6707 82.9934L100.809 87.7114L100.768 79.2955L92.6707 82.9934Z" fill="url(#paint11_linear_892_5349)"/>
</g>
<defs>
<linearGradient id="paint0_linear_892_5349" x1="133.724" y1="45.2135" x2="144.132" y2="79.323" gradientUnits="userSpaceOnUse">
<stop stop-color="#6CFF54"/>
<stop offset="1" stop-color="#99E941"/>
<stop offset="1" stop-color="#9EFF33"/>
</linearGradient>
<linearGradient id="paint1_linear_892_5349" x1="167.404" y1="58.3234" x2="156.79" y2="96.9848" gradientUnits="userSpaceOnUse">
<stop stop-color="#6CFF54"/>
<stop offset="1" stop-color="#99E941"/>
<stop offset="1" stop-color="#9EFF33"/>
</linearGradient>
<linearGradient id="paint2_linear_892_5349" x1="155.404" y1="80.6936" x2="171.571" y2="71.6822" gradientUnits="userSpaceOnUse">
<stop stop-color="#FFB764"/>
<stop offset="1" stop-color="#E97800"/>
</linearGradient>
<linearGradient id="paint3_linear_892_5349" x1="90.0609" y1="59.0409" x2="65.8393" y2="96.6282" gradientUnits="userSpaceOnUse">
<stop stop-color="#7B27E6"/>
<stop offset="1" stop-color="#2E16C1"/>
</linearGradient>
<linearGradient id="paint4_linear_892_5349" x1="89.5043" y1="57.7845" x2="64.0079" y2="97.3501" gradientUnits="userSpaceOnUse">
<stop stop-color="#BF8CFF"/>
<stop offset="1" stop-color="#5D43FF"/>
<stop offset="1" stop-color="#9E8EFF"/>
</linearGradient>
<linearGradient id="paint5_linear_892_5349" x1="92.3678" y1="64.0286" x2="73.1009" y2="93.6091" gradientUnits="userSpaceOnUse">
<stop stop-color="#A864FF"/>
<stop offset="1" stop-color="#5D43FF"/>
</linearGradient>
<linearGradient id="paint6_linear_892_5349" x1="100.723" y1="69.599" x2="100.851" y2="95.8222" gradientUnits="userSpaceOnUse">
<stop stop-color="white" stop-opacity="0.99"/>
<stop offset="1" stop-color="white" stop-opacity="0.49"/>
</linearGradient>
<linearGradient id="paint7_linear_892_5349" x1="100.723" y1="69.599" x2="100.851" y2="95.8222" gradientUnits="userSpaceOnUse">
<stop stop-color="white" stop-opacity="0.99"/>
<stop offset="1" stop-color="white" stop-opacity="0.49"/>
</linearGradient>
<linearGradient id="paint8_linear_892_5349" x1="100.723" y1="69.599" x2="100.851" y2="95.8222" gradientUnits="userSpaceOnUse">
<stop stop-color="white" stop-opacity="0.99"/>
<stop offset="1" stop-color="white" stop-opacity="0.49"/>
</linearGradient>
<linearGradient id="paint9_linear_892_5349" x1="100.723" y1="69.599" x2="100.851" y2="95.8222" gradientUnits="userSpaceOnUse">
<stop stop-color="white" stop-opacity="0.99"/>
<stop offset="1" stop-color="white" stop-opacity="0.49"/>
</linearGradient>
<linearGradient id="paint10_linear_892_5349" x1="100.723" y1="69.599" x2="100.851" y2="95.8222" gradientUnits="userSpaceOnUse">
<stop stop-color="white" stop-opacity="0.99"/>
<stop offset="1" stop-color="white" stop-opacity="0.49"/>
</linearGradient>
<linearGradient id="paint11_linear_892_5349" x1="100.723" y1="69.599" x2="100.851" y2="95.8222" gradientUnits="userSpaceOnUse">
<stop stop-color="white" stop-opacity="0.99"/>
<stop offset="1" stop-color="white" stop-opacity="0.49"/>
</linearGradient>
<clipPath id="clip0_892_5349">
<rect width="16.2372" height="26.2294" fill="white" transform="translate(92.6055 69.6386) rotate(-0.279555)"/>
</clipPath>
</defs>
</svg>
