<svg width="160" height="105" viewBox="0 0 160 105" fill="none" xmlns="http://www.w3.org/2000/svg">
<path d="M80 0.55304L160 104.053H0L80 0.55304Z" fill="#E1E1E1" fill-opacity="0.15"/>
<path d="M59.5223 36.5225C59.4482 35.8717 60.1446 35.4124 60.7136 35.7369L63.5112 37.3324C63.6588 37.4166 63.8294 37.4516 63.9982 37.4324L67.1981 37.0677C67.8488 36.9935 68.3081 37.69 67.9836 38.259L66.3881 41.0566C66.304 41.2042 66.269 41.3747 66.2882 41.5435L66.6529 44.7434C66.727 45.3942 66.0305 45.8535 65.4616 45.529L62.664 43.9335C62.5164 43.8493 62.3458 43.8143 62.177 43.8336L58.9771 44.1982C58.3264 44.2724 57.8671 43.5759 58.1915 43.007L59.7871 40.2093C59.8712 40.0618 59.9062 39.8912 59.887 39.7224L59.5223 36.5225Z" fill="url(#paint0_linear_892_5365)"/>
<path d="M20.7707 22.1844C21.0914 21.5216 22.0292 21.5039 22.3747 22.1541L24.0735 25.3515C24.1631 25.5202 24.3041 25.656 24.476 25.7392L27.7352 27.3161C28.398 27.6368 28.4157 28.5745 27.7655 28.92L24.5681 30.6188C24.3994 30.7084 24.2637 30.8494 24.1805 31.0214L22.6035 34.2806C22.2828 34.9434 21.3451 34.9611 20.9996 34.3108L19.3008 31.1135C19.2112 30.9448 19.0702 30.809 18.8983 30.7258L15.6391 29.1489C14.9762 28.8282 14.9586 27.8904 15.6088 27.5449L18.8062 25.8462C18.9748 25.7565 19.1106 25.6155 19.1938 25.4436L20.7707 22.1844Z" fill="url(#paint1_linear_892_5365)"/>
<path d="M20.7707 22.1844C21.0914 21.5216 22.0292 21.5039 22.3747 22.1541L24.0735 25.3515C24.1631 25.5202 24.3041 25.656 24.476 25.7392L27.7352 27.3161C28.398 27.6368 28.4157 28.5745 27.7655 28.92L24.5681 30.6188C24.3994 30.7084 24.2637 30.8494 24.1805 31.0214L22.6035 34.2806C22.2828 34.9434 21.3451 34.9611 20.9996 34.3108L19.3008 31.1135C19.2112 30.9448 19.0702 30.809 18.8983 30.7258L15.6391 29.1489C14.9762 28.8282 14.9586 27.8904 15.6088 27.5449L18.8062 25.8462C18.9748 25.7565 19.1106 25.6155 19.1938 25.4436L20.7707 22.1844Z" fill="url(#paint2_linear_892_5365)"/>
<path d="M130.145 17.7489C130.145 26.771 122.831 34.0849 113.809 34.0849C104.787 34.0849 97.4727 26.771 97.4727 17.7489C97.4727 8.72669 104.787 1.41278 113.809 1.41278C122.831 1.41278 130.145 8.72669 130.145 17.7489Z" fill="url(#paint3_linear_892_5365)"/>
<path d="M130.145 17.7489C130.145 26.771 122.831 34.0849 113.809 34.0849C104.787 34.0849 97.4727 26.771 97.4727 17.7489C97.4727 8.72669 104.787 1.41278 113.809 1.41278C122.831 1.41278 130.145 8.72669 130.145 17.7489Z" fill="url(#paint4_linear_892_5365)"/>
<path fill-rule="evenodd" clip-rule="evenodd" d="M131.001 17.7489C131.001 27.2459 123.302 34.9448 113.805 34.9448C104.308 34.9448 96.6094 27.2459 96.6094 17.7489C96.6094 8.25189 104.308 0.55304 113.805 0.55304C123.302 0.55304 131.001 8.25189 131.001 17.7489ZM113.805 34.085C122.827 34.085 130.141 26.7711 130.141 17.7489C130.141 8.72674 122.827 1.41283 113.805 1.41283C104.783 1.41283 97.4692 8.72674 97.4692 17.7489C97.4692 26.7711 104.783 34.085 113.805 34.085Z" fill="url(#paint5_linear_892_5365)"/>
<circle cx="113.799" cy="17.749" r="12.8969" fill="#252734"/>
<circle cx="113.799" cy="17.749" r="12.8969" fill="url(#paint6_linear_892_5365)"/>
<path d="M118.661 14.76C118.772 15.8855 118.367 16.6833 117.446 17.1532C118.17 17.3264 118.711 17.6449 119.069 18.1087C119.428 18.5725 119.567 19.2342 119.487 20.0937C119.443 20.5328 119.343 20.9193 119.185 21.2533C119.028 21.5872 118.828 21.8624 118.587 22.0788C118.346 22.2953 118.046 22.4761 117.687 22.6215C117.328 22.7668 116.953 22.8735 116.56 22.9415C116.167 23.0095 115.718 23.0559 115.21 23.0806V25.446H113.782V23.1177C113.287 23.1177 112.91 23.1146 112.65 23.1085V25.446H111.222V23.0806C111.11 23.0806 110.943 23.0791 110.721 23.076C110.498 23.0729 110.328 23.0714 110.211 23.0714H108.355L108.643 21.3738H109.673C109.982 21.3738 110.161 21.2161 110.211 20.9008V17.1718H110.359C110.322 17.1656 110.273 17.1625 110.211 17.1625V14.5003C110.13 14.0798 109.855 13.8695 109.385 13.8695H108.355V12.3482L110.322 12.3575C110.718 12.3575 111.018 12.3544 111.222 12.3482V10.0107H112.65V12.3019C113.157 12.2895 113.535 12.2833 113.782 12.2833V10.0107H115.21V12.3482C115.699 12.3915 116.132 12.4611 116.509 12.557C116.886 12.6528 117.236 12.7919 117.557 12.9744C117.879 13.1568 118.134 13.398 118.323 13.6979C118.511 13.9978 118.624 14.3519 118.661 14.76ZM116.667 19.8155C116.667 19.5928 116.62 19.3949 116.528 19.2218C116.435 19.0486 116.321 18.9064 116.184 18.7951C116.048 18.6838 115.871 18.5895 115.651 18.5122C115.432 18.4349 115.229 18.3777 115.043 18.3406C114.858 18.3035 114.629 18.2756 114.357 18.2571C114.085 18.2385 113.872 18.2293 113.717 18.2293C113.562 18.2293 113.363 18.2324 113.119 18.2385C112.874 18.2447 112.728 18.2478 112.678 18.2478V21.3831C112.728 21.3831 112.842 21.3847 113.021 21.3878C113.201 21.3908 113.349 21.3924 113.467 21.3924C113.584 21.3924 113.748 21.3878 113.958 21.3785C114.168 21.3692 114.349 21.3568 114.501 21.3414C114.652 21.3259 114.829 21.2996 115.03 21.2625C115.231 21.2254 115.402 21.1821 115.544 21.1327C115.687 21.0832 115.834 21.0183 115.985 20.9379C116.137 20.8575 116.259 20.7647 116.351 20.6596C116.444 20.5545 116.52 20.4308 116.579 20.2885C116.637 20.1463 116.667 19.9886 116.667 19.8155ZM116.008 15.4001C116.008 15.196 115.97 15.0151 115.892 14.8574C115.815 14.6997 115.721 14.5699 115.609 14.4678C115.498 14.3658 115.35 14.2792 115.164 14.2081C114.979 14.137 114.809 14.086 114.654 14.055C114.499 14.0241 114.309 13.9994 114.083 13.9808C113.858 13.9623 113.678 13.9545 113.545 13.9576C113.412 13.9607 113.245 13.9638 113.045 13.9669C112.844 13.97 112.721 13.9716 112.678 13.9716V16.8193C112.709 16.8193 112.816 16.8208 112.998 16.8239C113.181 16.827 113.324 16.827 113.429 16.8239C113.535 16.8208 113.689 16.8147 113.893 16.8054C114.097 16.7961 114.267 16.7791 114.403 16.7544C114.54 16.7296 114.699 16.6956 114.881 16.6523C115.064 16.609 115.214 16.5518 115.331 16.4807C115.449 16.4096 115.563 16.3261 115.674 16.2303C115.786 16.1344 115.869 16.0154 115.925 15.8731C115.98 15.7309 116.008 15.5732 116.008 15.4001Z" fill="url(#paint7_linear_892_5365)"/>
<rect x="97.25" y="34.944" width="33.1173" height="14.0112" rx="2.54749" fill="url(#paint8_linear_892_5365)"/>
<rect x="97.25" y="48.9553" width="33.1173" height="14.0112" rx="2.54749" fill="url(#paint9_linear_892_5365)"/>
<rect x="97.25" y="62.9665" width="33.1173" height="14.0112" rx="2.54749" fill="url(#paint10_linear_892_5365)"/>
<rect x="97.25" y="76.9776" width="33.1173" height="14.0112" rx="2.54749" fill="url(#paint11_linear_892_5365)"/>
<rect x="97.25" y="90.9888" width="33.1173" height="14.0112" rx="2.54749" fill="url(#paint12_linear_892_5365)"/>
<rect x="57.125" y="62.9665" width="33.1173" height="14.0112" rx="2.54749" fill="url(#paint13_linear_892_5365)"/>
<rect x="57.125" y="76.9776" width="33.1173" height="14.0112" rx="2.54749" fill="url(#paint14_linear_892_5365)"/>
<rect x="57.125" y="90.9888" width="33.1173" height="14.0112" rx="2.54749" fill="url(#paint15_linear_892_5365)"/>
<rect x="17" y="90.9888" width="33.1173" height="14.0112" rx="2.54749" fill="url(#paint16_linear_892_5365)"/>
<defs>
<linearGradient id="paint0_linear_892_5365" x1="69.1419" y1="55.6387" x2="55.6337" y2="22.6337" gradientUnits="userSpaceOnUse">
<stop stop-color="#6CFF54"/>
<stop offset="1" stop-color="#99E941"/>
<stop offset="1" stop-color="#9EFF33"/>
</linearGradient>
<linearGradient id="paint1_linear_892_5365" x1="18.4193" y1="46.1275" x2="25.4247" y2="6.65234" gradientUnits="userSpaceOnUse">
<stop stop-color="#6CFF54"/>
<stop offset="1" stop-color="#99E941"/>
<stop offset="1" stop-color="#9EFF33"/>
</linearGradient>
<linearGradient id="paint2_linear_892_5365" x1="28.3065" y1="22.7465" x2="13.0387" y2="33.2096" gradientUnits="userSpaceOnUse">
<stop stop-color="#FFB764"/>
<stop offset="1" stop-color="#E97800"/>
</linearGradient>
<linearGradient id="paint3_linear_892_5365" x1="113.809" y1="1.41278" x2="113.809" y2="34.0849" gradientUnits="userSpaceOnUse">
<stop stop-color="#DB3825"/>
<stop offset="1" stop-color="#7A1B10"/>
</linearGradient>
<linearGradient id="paint4_linear_892_5365" x1="106.644" y1="1.27434" x2="89.8448" y2="27.0669" gradientUnits="userSpaceOnUse">
<stop stop-color="#F0DA15"/>
<stop offset="0.835592" stop-color="#D86800"/>
</linearGradient>
<linearGradient id="paint5_linear_892_5365" x1="106.264" y1="0.407315" x2="88.5801" y2="27.5574" gradientUnits="userSpaceOnUse">
<stop stop-color="#FFF494"/>
<stop offset="0.63021" stop-color="#FFD4AD"/>
</linearGradient>
<linearGradient id="paint6_linear_892_5365" x1="108.143" y1="4.74276" x2="94.8804" y2="25.1053" gradientUnits="userSpaceOnUse">
<stop stop-color="#FFEB3C"/>
<stop offset="1" stop-color="#FF881B"/>
</linearGradient>
<linearGradient id="paint7_linear_892_5365" x1="113.932" y1="10.0107" x2="113.932" y2="25.446" gradientUnits="userSpaceOnUse">
<stop stop-color="white" stop-opacity="0.87"/>
<stop offset="0.770302" stop-color="white" stop-opacity="0.554176"/>
<stop offset="1" stop-color="white" stop-opacity="0.46"/>
</linearGradient>
<linearGradient id="paint8_linear_892_5365" x1="113.809" y1="34.944" x2="113.809" y2="48.9552" gradientUnits="userSpaceOnUse">
<stop stop-color="#8BE540"/>
<stop offset="1" stop-color="#35B81B"/>
</linearGradient>
<linearGradient id="paint9_linear_892_5365" x1="113.809" y1="48.9553" x2="113.809" y2="62.9664" gradientUnits="userSpaceOnUse">
<stop stop-color="#8BE540"/>
<stop offset="1" stop-color="#35B81B"/>
</linearGradient>
<linearGradient id="paint10_linear_892_5365" x1="113.809" y1="62.9665" x2="113.809" y2="76.9777" gradientUnits="userSpaceOnUse">
<stop stop-color="#8BE540"/>
<stop offset="1" stop-color="#35B81B"/>
</linearGradient>
<linearGradient id="paint11_linear_892_5365" x1="113.809" y1="76.9776" x2="113.809" y2="90.9888" gradientUnits="userSpaceOnUse">
<stop stop-color="#8BE540"/>
<stop offset="1" stop-color="#35B81B"/>
</linearGradient>
<linearGradient id="paint12_linear_892_5365" x1="113.809" y1="90.9888" x2="113.809" y2="105" gradientUnits="userSpaceOnUse">
<stop stop-color="#8BE540"/>
<stop offset="1" stop-color="#35B81B"/>
</linearGradient>
<linearGradient id="paint13_linear_892_5365" x1="73.6837" y1="62.9665" x2="73.6837" y2="76.9777" gradientUnits="userSpaceOnUse">
<stop stop-color="#A563FF"/>
<stop offset="1" stop-color="#734DFF"/>
</linearGradient>
<linearGradient id="paint14_linear_892_5365" x1="73.6837" y1="76.9776" x2="73.6837" y2="90.9888" gradientUnits="userSpaceOnUse">
<stop stop-color="#A563FF"/>
<stop offset="1" stop-color="#734DFF"/>
</linearGradient>
<linearGradient id="paint15_linear_892_5365" x1="73.6837" y1="90.9888" x2="73.6837" y2="105" gradientUnits="userSpaceOnUse">
<stop stop-color="#A563FF"/>
<stop offset="1" stop-color="#734DFF"/>
</linearGradient>
<linearGradient id="paint16_linear_892_5365" x1="33.5587" y1="90.9888" x2="33.5587" y2="105" gradientUnits="userSpaceOnUse">
<stop stop-color="#FFEC3C"/>
<stop offset="1" stop-color="#FFA223"/>
</linearGradient>
</defs>
</svg>
