<svg width="175" height="111" viewBox="0 0 175 111" fill="none" xmlns="http://www.w3.org/2000/svg">
<path d="M94.5 0.863403L174.5 104.363H14.5L94.5 0.863403Z" fill="#E1E1E1" fill-opacity="0.15"/>
<path d="M165.176 56.4452C165.743 56.7736 165.697 57.6066 165.097 57.87L162.148 59.1651C161.993 59.2334 161.863 59.3495 161.778 59.4965L160.163 62.2831C159.835 62.8498 159.002 62.8034 158.738 62.2037L157.443 59.2549C157.375 59.0994 157.259 58.9696 157.112 58.8844L154.325 57.2697C153.758 56.9413 153.805 56.1083 154.404 55.845L157.353 54.5498C157.509 54.4815 157.638 54.3655 157.724 54.2184L159.338 51.4319C159.667 50.8651 160.5 50.9116 160.763 51.5112L162.058 54.46C162.127 54.6155 162.243 54.7453 162.39 54.8305L165.176 56.4452Z" fill="url(#paint0_linear_892_5334)"/>
<path d="M15.0455 39.8787C15.3866 40.5313 14.8418 41.2948 14.1137 41.1846L10.5339 40.6426C10.345 40.614 10.152 40.6462 9.98268 40.7347L6.77372 42.4115C6.12111 42.7525 5.35763 42.2077 5.46787 41.4796L6.0099 37.8998C6.03849 37.711 6.00622 37.5179 5.91776 37.3486L4.24098 34.1396C3.89997 33.487 4.44478 32.7236 5.17281 32.8338L8.75265 33.3758C8.9415 33.4044 9.13456 33.3721 9.30385 33.2837L12.5128 31.6069C13.1654 31.2659 13.9289 31.8107 13.8187 32.5387L13.2766 36.1186C13.248 36.3074 13.2803 36.5005 13.3688 36.6698L15.0455 39.8787Z" fill="url(#paint1_linear_892_5334)"/>
<path d="M15.0455 39.8787C15.3866 40.5313 14.8418 41.2948 14.1137 41.1846L10.5339 40.6426C10.345 40.614 10.152 40.6462 9.98268 40.7347L6.77372 42.4115C6.12111 42.7525 5.35763 42.2077 5.46787 41.4796L6.0099 37.8998C6.03849 37.711 6.00622 37.5179 5.91776 37.3486L4.24098 34.1396C3.89997 33.487 4.44478 32.7236 5.17281 32.8338L8.75265 33.3758C8.9415 33.4044 9.13456 33.3721 9.30385 33.2837L12.5128 31.6069C13.1654 31.2659 13.9289 31.8107 13.8187 32.5387L13.2766 36.1186C13.248 36.3074 13.2803 36.5005 13.3688 36.6698L15.0455 39.8787Z" fill="url(#paint2_linear_892_5334)"/>
<path d="M42.9922 99.8561C45.0391 102.969 51.1541 109.349 59.2393 109.963C63.0779 110.254 66.2609 108.808 68.7145 106.82C73.3015 103.104 75.5387 97.2286 79.4935 92.8459C84.0861 87.7565 90.6138 82.2275 97.7462 80.4108C100.865 79.6163 103.805 79.3809 106.482 79.5045C116.104 79.9487 125.362 85.2958 134.914 84.0543C140.723 83.2994 146.75 81.4768 150.965 77.7242" stroke="#F59933" stroke-width="1.2793"/>
<path d="M147.367 33.5639C146.541 37.1938 143.051 45.3064 135.695 48.7179C132.207 50.3355 128.724 50.1024 125.733 49.1076C120.127 47.2436 115.965 42.524 110.718 39.8101C104.635 36.6636 96.59 33.7868 89.2789 34.5899C86.0759 34.9417 83.2375 35.7547 80.772 36.8115C71.9253 40.6036 65.1355 48.8463 55.763 51.0376C50.0558 52.372 43.7686 52.7841 38.5027 50.7521" stroke="#F69C38" stroke-width="1.2793"/>
<rect x="46.3203" y="42.4155" width="13.8164" height="39.9141" rx="2.5586" fill="#88E440"/>
<rect x="71.9062" y="57.7672" width="13.8164" height="39.9141" rx="2.5586" fill="#8053FF"/>
<rect x="110.539" y="33.9722" width="13.8164" height="39.9141" rx="2.5586" fill="#85E340"/>
<rect x="131.523" y="66.7222" width="13.8164" height="30.959" rx="2.5586" fill="#8053FF"/>
<rect x="87.7656" y="21.6909" width="13.8164" height="27.6328" rx="2.5586" fill="#85E340"/>
<defs>
<linearGradient id="paint0_linear_892_5334" x1="144.093" y1="52.7734" x2="178.646" y2="61.6023" gradientUnits="userSpaceOnUse">
<stop stop-color="#6CFF54"/>
<stop offset="1" stop-color="#99E941"/>
<stop offset="1" stop-color="#9EFF33"/>
</linearGradient>
<linearGradient id="paint1_linear_892_5334" x1="-2.77668" y1="23.718" x2="24.742" y2="52.8743" gradientUnits="userSpaceOnUse">
<stop stop-color="#6CFF54"/>
<stop offset="1" stop-color="#99E941"/>
<stop offset="1" stop-color="#9EFF33"/>
</linearGradient>
<linearGradient id="paint2_linear_892_5334" x1="10.1021" y1="45.5942" x2="10.8026" y2="27.0985" gradientUnits="userSpaceOnUse">
<stop stop-color="#FFB764"/>
<stop offset="1" stop-color="#E97800"/>
</linearGradient>
</defs>
</svg>
