<svg width="160" height="116" viewBox="0 0 160 116" fill="none" xmlns="http://www.w3.org/2000/svg">
<path d="M80 6.10352e-05L160 103.5H0L80 6.10352e-05Z" fill="#E1E1E1" fill-opacity="0.15"/>
<path d="M109.461 48.0001H48.5379C45.6607 48.0001 43.4609 45.8337 43.4609 43.0001C43.4609 40.1665 45.6607 38.0001 48.5379 38.0001H106.077C106.974 38.0026 107.833 38.3545 108.467 38.979C109.101 39.6035 109.458 40.4497 109.461 41.3329V48.0001Z" fill="#B35E3E"/>
<path d="M109.461 48.0001H48.5379C45.6607 48.0001 43.4609 45.8337 43.4609 43.0001C43.4609 40.1665 45.6607 38.0001 48.5379 38.0001H106.077C106.974 38.0026 107.833 38.3545 108.467 38.979C109.101 39.6035 109.458 40.4497 109.461 41.3329V48.0001Z" fill="url(#paint0_linear_892_5262)"/>
<path d="M109.461 48.0001H48.5379C45.6607 48.0001 43.4609 45.8337 43.4609 43.0001C43.4609 40.1665 45.6607 38.0001 48.5379 38.0001H106.077C106.974 38.0026 107.833 38.3545 108.467 38.979C109.101 39.6035 109.458 40.4497 109.461 41.3329V48.0001Z" fill="url(#paint1_linear_892_5262)"/>
<path d="M43.4609 86.0001V92.6673C43.4635 93.5504 43.8255 94.3966 44.4679 95.0211C45.1102 95.6456 45.9806 95.9975 46.889 96.0001H112.033C112.941 95.9975 113.812 95.6456 114.454 95.0211C115.096 94.3966 115.458 93.5504 115.461 92.6673V86.0001H43.4609Z" fill="url(#paint2_linear_892_5262)"/>
<path d="M96.0768 21.0001H58.8451C57.948 21.0027 57.0885 21.3631 56.4544 22.0026C55.8203 22.6421 55.4631 23.5086 55.4609 24.4128V50.0001H99.4609V24.4128C99.4588 23.5086 99.1016 22.6421 98.4675 22.0026C97.8334 21.3631 96.9738 21.0027 96.0768 21.0001Z" fill="url(#paint3_linear_892_5262)"/>
<path d="M59.4609 48.0001V24.0001H96.4609V48.0001H59.4609Z" fill="url(#paint4_linear_892_5262)"/>
<path d="M59.4609 48.0001V43.0001H96.4609V48.0001H59.4609Z" fill="url(#paint5_linear_892_5262)"/>
<path d="M77.9609 40.0005C76.8417 39.9898 75.7316 40.198 74.6954 40.613C73.6593 41.0279 72.718 41.6413 71.9265 42.4172C71.1351 43.193 70.5094 44.1159 70.0861 45.1316C69.6628 46.1474 69.4504 47.2357 69.4613 48.3329V50.0001H86.4605V48.3329C86.4714 47.2357 86.259 46.1474 85.8358 45.1316C85.4125 44.1159 84.7868 43.193 83.9954 42.4172C83.2039 41.6413 82.2626 41.0279 81.2264 40.613C80.1903 40.198 79.0802 39.9898 77.9609 40.0005Z" fill="url(#paint6_linear_892_5262)"/>
<path d="M96.0768 21.0001H58.8451C57.948 21.0027 57.0885 21.3631 56.4544 22.0026C55.8203 22.6421 55.4631 23.5086 55.4609 24.4128V50.0001H99.4609V24.4128C99.4588 23.5086 99.1016 22.6421 98.4675 22.0026C97.8334 21.3631 96.9738 21.0027 96.0768 21.0001ZM96.0768 48.2937H58.8451V28.8474C59.8345 28.441 60.7335 27.8393 61.489 27.0778C62.2445 26.3162 62.8414 25.4102 63.2446 24.4128H91.6757C92.0789 25.4102 92.6758 26.3162 93.4313 27.0778C94.1868 27.8393 95.0857 28.441 96.0752 28.8474V48.2937H96.0768Z" fill="url(#paint7_linear_892_5262)"/>
<path d="M92.3954 52.2923C90.8645 51.2735 89.9988 49.2639 90.1541 46.5058C90.3093 43.7478 91.4716 40.7619 93.2082 38.1754C94.9447 35.5889 97.2676 33.3926 99.7719 32.1806C102.276 30.9687 104.468 31.0113 105.999 32.0301C107.53 33.0489 108.402 35.0572 108.24 37.8165C108.079 40.5758 106.926 43.5565 105.186 46.1469C103.447 48.7374 101.131 50.9325 98.6227 52.1417C96.1143 53.351 93.9303 53.3138 92.3954 52.2923Z" fill="url(#paint8_linear_892_5262)"/>
<path d="M108.244 37.8095C108.081 40.5795 106.929 43.5494 105.19 46.1399C103.451 48.7304 101.135 50.9255 98.6265 52.1347C96.1181 53.344 93.9314 53.3107 92.3965 52.2892L95.3524 54.2564C96.8873 55.2779 99.0834 55.3058 101.582 54.1018C104.081 52.8978 106.407 50.6975 108.146 48.107C109.885 45.5166 111.037 42.5466 111.2 39.7766C111.363 37.0067 110.494 35.0117 108.959 33.9902L106.003 32.0231C107.538 33.0446 108.406 35.0502 108.244 37.8095Z" fill="url(#paint9_linear_892_5262)"/>
<path d="M98.7308 50.2691C100.879 49.0885 102.706 47.4188 104.064 45.3958C105.422 43.3727 106.273 41.0533 106.548 38.6259C106.666 36.5631 106.076 35.0127 105 34.1412C103.774 33.4925 102.113 33.5445 100.245 34.4315C98.0974 35.6122 96.2702 37.2819 94.9119 39.3049C93.5537 41.3279 92.7027 43.6473 92.4282 46.0747C92.3111 48.1442 92.9005 49.6879 93.9765 50.5595C95.1968 51.2161 96.8589 51.1708 98.7308 50.2691Z" fill="url(#paint10_linear_892_5262)"/>
<path d="M92.426 46.0776C92.7005 43.6502 93.5515 41.3308 94.9097 39.3078C96.268 37.2847 98.0952 35.6151 100.243 34.4344C102.116 33.5394 103.777 33.4874 104.997 34.1441L104.708 33.9517C103.462 33.1225 101.686 33.092 99.653 34.0762C97.5051 35.2569 95.6779 36.9266 94.3196 38.9496C92.9614 40.9726 92.1104 43.292 91.8359 45.7194C91.7159 47.9425 92.4073 49.5886 93.6532 50.4177C93.7455 50.4877 93.842 50.552 93.9423 50.6101C92.8902 49.6854 92.3089 48.1471 92.426 46.0776Z" fill="url(#paint11_linear_892_5262)"/>
<path d="M100.677 37.2845L100.74 36.1984L100.166 35.8163L100.103 36.9024L100.677 37.2845Z" fill="#E57139"/>
<path d="M100.677 37.2845L100.74 36.1984L100.166 35.8163L100.103 36.9024L100.677 37.2845Z" fill="url(#paint12_linear_892_5262)"/>
<path d="M100.677 37.2845L100.74 36.1984L100.166 35.8163L100.103 36.9024L100.677 37.2845Z" fill="url(#paint13_linear_892_5262)"/>
<path d="M99.2405 41.5173C99.1074 41.619 98.9445 41.6762 98.7749 41.6807C98.6054 41.6852 98.4378 41.6368 98.2959 41.5424C98.154 41.448 98.045 41.3123 97.9844 41.1546C97.9237 40.9969 97.9145 40.8251 97.958 40.6637C98.01 40.2101 98.1693 39.7768 98.4231 39.3987C98.677 39.0206 99.0183 38.7083 99.4194 38.4871C100.174 38.1259 100.748 38.508 100.702 39.3406L101.944 38.7452C102.024 37.3883 101.237 36.657 100.114 36.8998L100.188 35.7978L98.9435 36.3971L98.8692 37.4992C98.2752 37.9484 97.7794 38.5115 97.4106 39.1556C97.0419 39.7997 96.8076 40.512 96.7213 41.2512C96.641 41.5582 96.6604 41.8839 96.7766 42.1828C96.8928 42.4817 97.1001 42.7387 97.3694 42.9179C97.6387 43.0971 97.9565 43.1895 98.2784 43.1822C98.6002 43.1748 98.9099 43.0681 99.1641 42.8769C99.9218 42.5118 100.5 42.8965 100.451 43.7331C100.401 44.1865 100.242 44.6198 99.9889 44.9975C99.7353 45.3752 99.3936 45.6865 98.992 45.9058C98.2344 46.2709 97.6562 45.8862 97.7054 45.0496L96.4607 45.649C96.3802 47.0059 97.1702 47.7332 98.2933 47.4904L98.2169 48.4816L99.4658 47.8849L99.5422 46.8937C100.136 46.4449 100.633 45.8824 101.002 45.2388C101.372 44.5952 101.607 43.8833 101.694 43.1444C101.785 41.5526 100.686 40.821 99.2405 41.5173Z" fill="url(#paint14_linear_892_5262)"/>
<path d="M98.8026 48.8883L100.047 48.289L99.4733 47.9069L98.2285 48.5063L98.8026 48.8883Z" fill="#FB944B"/>
<path d="M98.8026 48.8883L100.047 48.289L99.4733 47.9069L98.2285 48.5063L98.8026 48.8883Z" fill="url(#paint15_linear_892_5262)"/>
<path d="M98.8026 48.8883L100.047 48.289L99.4733 47.9069L98.2285 48.5063L98.8026 48.8883Z" fill="url(#paint16_linear_892_5262)"/>
<path d="M100.05 48.2899L100.111 47.2879L99.5324 46.9031L99.4763 47.9079L100.05 48.2899Z" fill="#E57139"/>
<path d="M100.05 48.2899L100.111 47.2879L99.5324 46.9031L99.4763 47.9079L100.05 48.2899Z" fill="url(#paint17_linear_892_5262)"/>
<path d="M100.05 48.2899L100.111 47.2879L99.5324 46.9031L99.4763 47.9079L100.05 48.2899Z" fill="url(#paint18_linear_892_5262)"/>
<path d="M101.27 39.722L102.512 39.1266L101.934 38.7418L100.691 39.3372L101.27 39.722Z" fill="#FB944B"/>
<path d="M101.27 39.722L102.512 39.1266L101.934 38.7418L100.691 39.3372L101.27 39.722Z" fill="url(#paint19_linear_892_5262)"/>
<path d="M101.27 39.722L102.512 39.1266L101.934 38.7418L100.691 39.3372L101.27 39.722Z" fill="url(#paint20_linear_892_5262)"/>
<path d="M98.2706 45.4534L97.6925 45.0687C97.659 45.6624 97.9386 46.0269 98.3764 46.0592C98.2881 45.869 98.2516 45.6601 98.2706 45.4534Z" fill="#E57139"/>
<path d="M98.2706 45.4534L97.6925 45.0687C97.659 45.6624 97.9386 46.0269 98.3764 46.0592C98.2881 45.869 98.2516 45.6601 98.2706 45.4534Z" fill="url(#paint21_linear_892_5262)"/>
<path d="M98.2706 45.4534L97.6925 45.0687C97.659 45.6624 97.9386 46.0269 98.3764 46.0592C98.2881 45.869 98.2516 45.6601 98.2706 45.4534Z" fill="url(#paint22_linear_892_5262)"/>
<path d="M97.0706 47.3189L97.722 47.7524C97.8862 47.8518 98.0704 47.9134 98.2608 47.9325L98.2821 47.5148C98.0801 47.5703 97.8676 47.5818 97.6592 47.5484C97.4508 47.5151 97.2514 47.4377 97.0747 47.3216L97.0706 47.3189ZM99.7296 43.2794C99.9136 43.1814 100.122 43.135 100.332 43.1451C100.135 42.7547 99.6898 42.6369 99.1515 42.8947C98.8856 43.0596 98.5788 43.1509 98.2628 43.1591C97.9467 43.1673 97.6327 43.0921 97.353 42.9413L97.9311 43.3261C98.211 43.4764 98.5249 43.5513 98.8409 43.5431C99.1569 43.5349 99.4635 43.4439 99.7296 43.2794Z" fill="#FB944B"/>
<path d="M97.0706 47.3189L97.722 47.7524C97.8862 47.8518 98.0704 47.9134 98.2608 47.9325L98.2821 47.5148C98.0801 47.5703 97.8676 47.5818 97.6592 47.5484C97.4508 47.5151 97.2514 47.4377 97.0747 47.3216L97.0706 47.3189ZM99.7296 43.2794C99.9136 43.1814 100.122 43.135 100.332 43.1451C100.135 42.7547 99.6898 42.6369 99.1515 42.8947C98.8856 43.0596 98.5788 43.1509 98.2628 43.1591C97.9467 43.1673 97.6327 43.0921 97.353 42.9413L97.9311 43.3261C98.211 43.4764 98.5249 43.5513 98.8409 43.5431C99.1569 43.5349 99.4635 43.4439 99.7296 43.2794Z" fill="url(#paint23_linear_892_5262)"/>
<path d="M97.0706 47.3189L97.722 47.7524C97.8862 47.8518 98.0704 47.9134 98.2608 47.9325L98.2821 47.5148C98.0801 47.5703 97.8676 47.5818 97.6592 47.5484C97.4508 47.5151 97.2514 47.4377 97.0747 47.3216L97.0706 47.3189ZM99.7296 43.2794C99.9136 43.1814 100.122 43.135 100.332 43.1451C100.135 42.7547 99.6898 42.6369 99.1515 42.8947C98.8856 43.0596 98.5788 43.1509 98.2628 43.1591C97.9467 43.1673 97.6327 43.0921 97.353 42.9413L97.9311 43.3261C98.211 43.4764 98.5249 43.5513 98.8409 43.5431C99.1569 43.5349 99.4635 43.4439 99.7296 43.2794Z" fill="url(#paint24_linear_892_5262)"/>
<path d="M97.0706 47.3189L97.722 47.7524C97.8862 47.8518 98.0704 47.9134 98.2608 47.9325L98.2821 47.5148C98.0801 47.5703 97.8676 47.5818 97.6592 47.5484C97.4508 47.5151 97.2514 47.4377 97.0747 47.3216L97.0706 47.3189ZM99.7296 43.2794C99.9136 43.1814 100.122 43.135 100.332 43.1451C100.135 42.7547 99.6898 42.6369 99.1515 42.8947C98.8856 43.0596 98.5788 43.1509 98.2628 43.1591C97.9467 43.1673 97.6327 43.0921 97.353 42.9413L97.9311 43.3261C98.211 43.4764 98.5249 43.5513 98.8409 43.5431C99.1569 43.5349 99.4635 43.4439 99.7296 43.2794Z" fill="url(#paint25_linear_892_5262)"/>
<path d="M101.295 37.0711C101.544 37.2684 101.735 37.5276 101.849 37.8213C101.963 38.1149 101.995 38.4321 101.942 38.7395L102.52 39.1242C102.575 38.8098 102.539 38.4853 102.419 38.1865C102.298 37.8877 102.097 37.6264 101.837 37.4314L101.291 37.0684L101.295 37.0711Z" fill="#E57139"/>
<path d="M101.295 37.0711C101.544 37.2684 101.735 37.5276 101.849 37.8213C101.963 38.1149 101.995 38.4321 101.942 38.7395L102.52 39.1242C102.575 38.8098 102.539 38.4853 102.419 38.1865C102.298 37.8877 102.097 37.6264 101.837 37.4314L101.291 37.0684L101.295 37.0711Z" fill="url(#paint26_linear_892_5262)"/>
<path d="M101.295 37.0711C101.544 37.2684 101.735 37.5276 101.849 37.8213C101.963 38.1149 101.995 38.4321 101.942 38.7395L102.52 39.1242C102.575 38.8098 102.539 38.4853 102.419 38.1865C102.298 37.8877 102.097 37.6264 101.837 37.4314L101.291 37.0684L101.295 37.0711Z" fill="url(#paint27_linear_892_5262)"/>
<path d="M101.679 43.1479C101.592 43.8868 101.356 44.5987 100.987 45.2423C100.617 45.8859 100.121 46.4484 99.5269 46.8972L100.105 47.2819C100.7 46.8332 101.196 46.2703 101.565 45.6261C101.934 44.9819 102.168 44.2693 102.253 43.5299C102.303 43.2223 102.27 42.9055 102.157 42.6118C102.044 42.3181 101.855 42.0578 101.609 41.8575L101.026 41.4701C101.276 41.6693 101.468 41.93 101.582 42.225C101.697 42.52 101.73 42.8386 101.679 43.1479Z" fill="url(#paint28_linear_892_5262)"/>
<path d="M101.679 43.1479C101.592 43.8868 101.356 44.5987 100.987 45.2423C100.617 45.8859 100.121 46.4484 99.5269 46.8972L100.105 47.2819C100.7 46.8332 101.196 46.2703 101.565 45.6261C101.934 44.9819 102.168 44.2693 102.253 43.5299C102.303 43.2223 102.27 42.9055 102.157 42.6118C102.044 42.3181 101.855 42.0578 101.609 41.8575L101.026 41.4701C101.276 41.6693 101.468 41.93 101.582 42.225C101.697 42.52 101.73 42.8386 101.679 43.1479Z" fill="url(#paint29_linear_892_5262)"/>
<path d="M101.679 43.1479C101.592 43.8868 101.356 44.5987 100.987 45.2423C100.617 45.8859 100.121 46.4484 99.5269 46.8972L100.105 47.2819C100.7 46.8332 101.196 46.2703 101.565 45.6261C101.934 44.9819 102.168 44.2693 102.253 43.5299C102.303 43.2223 102.27 42.9055 102.157 42.6118C102.044 42.3181 101.855 42.0578 101.609 41.8575L101.026 41.4701C101.276 41.6693 101.468 41.93 101.582 42.225C101.697 42.52 101.73 42.8386 101.679 43.1479Z" fill="url(#paint30_linear_892_5262)"/>
<path d="M99.4195 38.4883C99.0183 38.7095 98.6771 39.0218 98.4232 39.3999C98.1694 39.778 98.01 40.2113 97.9581 40.665C97.9309 40.826 97.9479 40.9919 98.0072 41.1458C98.0665 41.2996 98.166 41.4357 98.2954 41.54C98.3978 41.6072 98.5161 41.6462 98.6379 41.6528C98.5514 41.4621 98.5149 41.2536 98.5322 41.047C98.5841 40.5934 98.7434 40.16 98.9973 39.7819C99.2511 39.4038 99.5924 39.0916 99.9935 38.8704C100.177 38.775 100.385 38.7301 100.594 38.74C100.396 38.3496 99.9578 38.2305 99.4195 38.4883Z" fill="#E57139"/>
<path d="M99.4195 38.4883C99.0183 38.7095 98.6771 39.0218 98.4232 39.3999C98.1694 39.778 98.01 40.2113 97.9581 40.665C97.9309 40.826 97.9479 40.9919 98.0072 41.1458C98.0665 41.2996 98.166 41.4357 98.2954 41.54C98.3978 41.6072 98.5161 41.6462 98.6379 41.6528C98.5514 41.4621 98.5149 41.2536 98.5322 41.047C98.5841 40.5934 98.7434 40.16 98.9973 39.7819C99.2511 39.4038 99.5924 39.0916 99.9935 38.8704C100.177 38.775 100.385 38.7301 100.594 38.74C100.396 38.3496 99.9578 38.2305 99.4195 38.4883Z" fill="url(#paint31_linear_892_5262)"/>
<path d="M99.4195 38.4883C99.0183 38.7095 98.6771 39.0218 98.4232 39.3999C98.1694 39.778 98.01 40.2113 97.9581 40.665C97.9309 40.826 97.9479 40.9919 98.0072 41.1458C98.0665 41.2996 98.166 41.4357 98.2954 41.54C98.3978 41.6072 98.5161 41.6462 98.6379 41.6528C98.5514 41.4621 98.5149 41.2536 98.5322 41.047C98.5841 40.5934 98.7434 40.16 98.9973 39.7819C99.2511 39.4038 99.5924 39.0916 99.9935 38.8704C100.177 38.775 100.385 38.7301 100.594 38.74C100.396 38.3496 99.9578 38.2305 99.4195 38.4883Z" fill="url(#paint32_linear_892_5262)"/>
<path d="M68.9229 52.0233C68.2721 50.3034 68.7393 48.1658 70.4721 46.0145C72.205 43.8632 74.8892 42.1134 77.8074 41.0228C80.7257 39.9322 83.8931 39.5002 86.6346 39.974C89.3762 40.4478 91.1331 41.7595 91.7839 43.4794C92.4346 45.1993 91.9737 47.3399 90.2346 49.4883C88.4955 51.6366 85.822 53.3876 82.8993 54.48C79.9766 55.5723 76.8154 56.0071 74.0721 55.5287C71.3289 55.0503 69.5754 53.7478 68.9229 52.0233Z" fill="url(#paint33_linear_892_5262)"/>
<path d="M90.2342 49.4815C88.4879 51.6378 85.8216 53.3809 82.8989 54.4732C79.9762 55.5655 76.8149 56.0004 74.0717 55.522C71.3284 55.0436 69.5705 53.7427 68.918 52.0182L70.1745 55.3391C70.827 57.0635 72.5957 58.3656 75.3282 58.8428C78.0607 59.32 81.2327 58.8863 84.1554 57.794C87.0781 56.7017 89.7444 54.9586 91.4907 52.8023C93.237 50.646 93.6925 48.518 93.04 46.7935L91.7834 43.4727C92.4359 45.1971 91.9733 47.3331 90.2342 49.4815Z" fill="url(#paint34_linear_892_5262)"/>
<path d="M75.256 54.0698C77.6896 54.3615 80.1475 54.0689 82.43 53.2158C84.7125 52.3628 86.7553 50.9733 88.3925 49.1603C89.6906 47.5527 90.1135 45.9484 89.7467 44.6131C89.1284 43.3719 87.7483 42.4467 85.7133 42.0795C83.2797 41.7878 80.8219 42.0805 78.5394 42.9335C76.2569 43.7865 74.214 45.176 72.5768 46.989C71.276 48.6029 70.8558 50.201 71.2226 51.5362C71.8319 52.7808 73.2093 53.7123 75.256 54.0698Z" fill="url(#paint35_linear_892_5262)"/>
<path d="M72.5731 46.9906C74.2103 45.1775 76.2532 43.7881 78.5357 42.935C80.8182 42.082 83.276 41.7894 85.7096 42.081C87.7536 42.4448 89.1337 43.3701 89.743 44.6147L89.6201 44.2899C89.0905 42.8902 87.6647 41.8307 85.4386 41.4461C83.005 41.1545 80.5472 41.4471 78.2647 42.3002C75.9822 43.1532 73.9394 44.5426 72.3021 46.3557C70.9095 48.0926 70.5126 49.8334 71.0422 51.2331C71.0764 51.3437 71.1174 51.4522 71.1651 51.5579C70.8486 50.1934 71.2723 48.6044 72.5731 46.9906Z" fill="url(#paint36_linear_892_5262)"/>
<path d="M84.4025 44.6537L85.0869 43.808L84.8428 43.163L84.1585 44.0088L84.4025 44.6537Z" fill="#E57139"/>
<path d="M84.4025 44.6537L85.0869 43.808L84.8428 43.163L84.1585 44.0088L84.4025 44.6537Z" fill="url(#paint37_linear_892_5262)"/>
<path d="M84.4025 44.6537L85.0869 43.808L84.8428 43.163L84.1585 44.0088L84.4025 44.6537Z" fill="url(#paint38_linear_892_5262)"/>
<path d="M80.7626 47.2515C80.5951 47.2566 80.4294 47.2082 80.2889 47.1131C80.1485 47.0179 80.0405 46.881 79.9802 46.7216C79.9198 46.5622 79.9103 46.3884 79.9529 46.2249C79.9955 46.0614 80.088 45.9164 80.2174 45.8106C80.5239 45.4722 80.9058 45.2128 81.3324 45.0533C81.759 44.8939 82.2183 44.8389 82.6732 44.8928C83.4972 45.0391 83.7413 45.684 83.2184 46.3337L84.5748 46.5733C85.4307 45.5173 85.2168 44.4643 84.1625 44.0073L84.8648 43.1548L83.5039 42.9168L82.8016 43.7693C82.057 43.7884 81.326 43.9572 80.6511 44.2659C79.9761 44.5746 79.3707 45.0171 78.87 45.5676C78.6259 45.7704 78.4519 46.0464 78.3722 46.357C78.2926 46.6677 78.3113 46.9973 78.4258 47.2999C78.5403 47.6024 78.7448 47.8627 79.0106 48.0442C79.2765 48.2257 79.5904 48.3194 79.9084 48.3121C80.7369 48.4567 80.9827 49.1062 80.4553 49.7575C80.1506 50.0969 79.7695 50.3569 79.3434 50.5161C78.9173 50.6754 78.4582 50.7294 78.004 50.6736C77.1755 50.5291 76.9297 49.8795 77.4571 49.2282L76.0962 48.9902C75.2403 50.0463 75.4587 51.0976 76.513 51.5546L75.8735 52.3157L77.2361 52.5582L77.8757 51.7971C78.6202 51.7786 79.3512 51.6105 80.0264 51.3026C80.7016 50.9947 81.3075 50.5531 81.809 50.0034C82.8102 48.7625 82.3429 47.5275 80.7626 47.2515Z" fill="url(#paint39_linear_892_5262)"/>
<path d="M76.1132 52.9907L77.4741 53.2287L77.2301 52.5837L75.8691 52.3457L76.1132 52.9907Z" fill="#FB944B"/>
<path d="M76.1132 52.9907L77.4741 53.2287L77.2301 52.5837L75.8691 52.3457L76.1132 52.9907Z" fill="url(#paint40_linear_892_5262)"/>
<path d="M76.1132 52.9907L77.4741 53.2287L77.2301 52.5837L75.8691 52.3457L76.1132 52.9907Z" fill="url(#paint41_linear_892_5262)"/>
<path d="M77.4824 53.2291L78.115 52.4497L77.8693 51.8001L77.2384 52.5841L77.4824 53.2291Z" fill="#E57139"/>
<path d="M77.4824 53.2291L78.115 52.4497L77.8693 51.8001L77.2384 52.5841L77.4824 53.2291Z" fill="url(#paint42_linear_892_5262)"/>
<path d="M77.4824 53.2291L78.115 52.4497L77.8693 51.8001L77.2384 52.5841L77.4824 53.2291Z" fill="url(#paint43_linear_892_5262)"/>
<path d="M83.4665 46.9795L84.8229 47.2191L84.5771 46.5696L83.2207 46.33L83.4665 46.9795Z" fill="#FB944B"/>
<path d="M83.4665 46.9795L84.8229 47.2191L84.5771 46.5696L83.2207 46.33L83.4665 46.9795Z" fill="url(#paint44_linear_892_5262)"/>
<path d="M83.4665 46.9795L84.8229 47.2191L84.5771 46.5696L83.2207 46.33L83.4665 46.9795Z" fill="url(#paint45_linear_892_5262)"/>
<path d="M77.6866 49.8869L77.4408 49.2374C77.0678 49.7005 77.0826 50.1596 77.4197 50.4409C77.4587 50.2349 77.5507 50.0438 77.6866 49.8869Z" fill="#E57139"/>
<path d="M77.6866 49.8869L77.4408 49.2374C77.0678 49.7005 77.0826 50.1596 77.4197 50.4409C77.4587 50.2349 77.5507 50.0438 77.6866 49.8869Z" fill="url(#paint46_linear_892_5262)"/>
<path d="M77.6866 49.8869L77.4408 49.2374C77.0678 49.7005 77.0826 50.1596 77.4197 50.4409C77.4587 50.2349 77.5507 50.0438 77.6866 49.8869Z" fill="url(#paint47_linear_892_5262)"/>
<path d="M75.6185 50.7035L75.8954 51.4354C75.9709 51.6118 76.0848 51.7692 76.2284 51.8957L76.489 51.5685C76.2925 51.496 76.1131 51.3815 75.9632 51.233C75.8132 51.0845 75.6962 50.9054 75.6202 50.7081L75.6185 50.7035ZM80.1329 48.9693C80.3395 48.9968 80.5359 49.0804 80.701 49.2112C80.768 48.7789 80.4748 48.4239 79.8871 48.3198C79.5749 48.299 79.2724 48.1945 79.0107 48.017C78.7491 47.8395 78.5376 47.5955 78.3981 47.31L78.6439 47.9595C78.7838 48.2447 78.9953 48.4885 79.2569 48.6659C79.5185 48.8433 79.8208 48.948 80.1329 48.9693Z" fill="#FB944B"/>
<path d="M75.6185 50.7035L75.8954 51.4354C75.9709 51.6118 76.0848 51.7692 76.2284 51.8957L76.489 51.5685C76.2925 51.496 76.1131 51.3815 75.9632 51.233C75.8132 51.0845 75.6962 50.9054 75.6202 50.7081L75.6185 50.7035ZM80.1329 48.9693C80.3395 48.9968 80.5359 49.0804 80.701 49.2112C80.768 48.7789 80.4748 48.4239 79.8871 48.3198C79.5749 48.299 79.2724 48.1945 79.0107 48.017C78.7491 47.8395 78.5376 47.5955 78.3981 47.31L78.6439 47.9595C78.7838 48.2447 78.9953 48.4885 79.2569 48.6659C79.5185 48.8433 79.8208 48.948 80.1329 48.9693Z" fill="url(#paint48_linear_892_5262)"/>
<path d="M75.6185 50.7035L75.8954 51.4354C75.9709 51.6118 76.0848 51.7692 76.2284 51.8957L76.489 51.5685C76.2925 51.496 76.1131 51.3815 75.9632 51.233C75.8132 51.0845 75.6962 50.9054 75.6202 50.7081L75.6185 50.7035ZM80.1329 48.9693C80.3395 48.9968 80.5359 49.0804 80.701 49.2112C80.768 48.7789 80.4748 48.4239 79.8871 48.3198C79.5749 48.299 79.2724 48.1945 79.0107 48.017C78.7491 47.8395 78.5376 47.5955 78.3981 47.31L78.6439 47.9595C78.7838 48.2447 78.9953 48.4885 79.2569 48.6659C79.5185 48.8433 79.8208 48.948 80.1329 48.9693Z" fill="url(#paint49_linear_892_5262)"/>
<path d="M75.6185 50.7035L75.8954 51.4354C75.9709 51.6118 76.0848 51.7692 76.2284 51.8957L76.489 51.5685C76.2925 51.496 76.1131 51.3815 75.9632 51.233C75.8132 51.0845 75.6962 50.9054 75.6202 50.7081L75.6185 50.7035ZM80.1329 48.9693C80.3395 48.9968 80.5359 49.0804 80.701 49.2112C80.768 48.7789 80.4748 48.4239 79.8871 48.3198C79.5749 48.299 79.2724 48.1945 79.0107 48.017C78.7491 47.8395 78.5376 47.5955 78.3981 47.31L78.6439 47.9595C78.7838 48.2447 78.9953 48.4885 79.2569 48.6659C79.5185 48.8433 79.8208 48.948 80.1329 48.9693Z" fill="url(#paint50_linear_892_5262)"/>
<path d="M85.0178 44.8347C85.105 45.14 85.1095 45.4622 85.031 45.7672C84.9525 46.0722 84.7939 46.3487 84.5717 46.5677L84.8175 47.2172C85.0446 46.9932 85.2051 46.7089 85.281 46.3957C85.357 46.0826 85.3456 45.7529 85.248 45.4431L85.016 44.8301L85.0178 44.8347Z" fill="#E57139"/>
<path d="M85.0178 44.8347C85.105 45.14 85.1095 45.4622 85.031 45.7672C84.9525 46.0722 84.7939 46.3487 84.5717 46.5677L84.8175 47.2172C85.0446 46.9932 85.2051 46.7089 85.281 46.3957C85.357 46.0826 85.3456 45.7529 85.248 45.4431L85.016 44.8301L85.0178 44.8347Z" fill="url(#paint51_linear_892_5262)"/>
<path d="M85.0178 44.8347C85.105 45.14 85.1095 45.4622 85.031 45.7672C84.9525 46.0722 84.7939 46.3487 84.5717 46.5677L84.8175 47.2172C85.0446 46.9932 85.2051 46.7089 85.281 46.3957C85.357 46.0826 85.3456 45.7529 85.248 45.4431L85.016 44.8301L85.0178 44.8347Z" fill="url(#paint52_linear_892_5262)"/>
<path d="M81.8035 49.9993C81.3021 50.549 80.6962 50.9906 80.021 51.2985C79.3458 51.6064 78.6147 51.7745 77.8702 51.793L78.116 52.4426C78.8607 52.4243 79.592 52.2558 80.267 51.9471C80.9421 51.6383 81.5474 51.1954 82.0476 50.6443C82.2678 50.4236 82.4255 50.1469 82.5046 49.8422C82.5837 49.5376 82.5815 49.2158 82.4981 48.9096L82.2506 48.2555C82.3371 48.5627 82.3413 48.8863 82.2627 49.193C82.1841 49.4996 82.0256 49.778 81.8035 49.9993Z" fill="url(#paint53_linear_892_5262)"/>
<path d="M81.8035 49.9993C81.3021 50.549 80.6962 50.9906 80.021 51.2985C79.3458 51.6064 78.6147 51.7745 77.8702 51.793L78.116 52.4426C78.8607 52.4243 79.592 52.2558 80.267 51.9471C80.9421 51.6383 81.5474 51.1954 82.0476 50.6443C82.2678 50.4236 82.4255 50.1469 82.5046 49.8422C82.5837 49.5376 82.5815 49.2158 82.4981 48.9096L82.2506 48.2555C82.3371 48.5627 82.3413 48.8863 82.2627 49.193C82.1841 49.4996 82.0256 49.778 81.8035 49.9993Z" fill="url(#paint54_linear_892_5262)"/>
<path d="M81.8035 49.9993C81.3021 50.549 80.6962 50.9906 80.021 51.2985C79.3458 51.6064 78.6147 51.7745 77.8702 51.793L78.116 52.4426C78.8607 52.4243 79.592 52.2558 80.267 51.9471C80.9421 51.6383 81.5474 51.1954 82.0476 50.6443C82.2678 50.4236 82.4255 50.1469 82.5046 49.8422C82.5837 49.5376 82.5815 49.2158 82.4981 48.9096L82.2506 48.2555C82.3371 48.5627 82.3413 48.8863 82.2627 49.193C82.1841 49.4996 82.0256 49.778 81.8035 49.9993Z" fill="url(#paint55_linear_892_5262)"/>
<path d="M82.6737 44.895C82.2188 44.8411 81.7595 44.8961 81.3329 45.0555C80.9063 45.215 80.5243 45.4744 80.2179 45.8128C80.102 45.9278 80.0191 46.0726 79.9777 46.2322C79.9362 46.3918 79.9378 46.5604 79.9823 46.7205C80.0263 46.8348 80.0998 46.9354 80.195 47.0118C80.2357 46.8064 80.3275 46.6157 80.4619 46.4577C80.7684 46.1193 81.1503 45.8599 81.5769 45.7005C82.0035 45.541 82.4628 45.486 82.9177 45.5399C83.1227 45.5696 83.3172 45.6537 83.4813 45.7835C83.5484 45.3512 83.2614 44.999 82.6737 44.895Z" fill="#E57139"/>
<path d="M82.6737 44.895C82.2188 44.8411 81.7595 44.8961 81.3329 45.0555C80.9063 45.215 80.5243 45.4744 80.2179 45.8128C80.102 45.9278 80.0191 46.0726 79.9777 46.2322C79.9362 46.3918 79.9378 46.5604 79.9823 46.7205C80.0263 46.8348 80.0998 46.9354 80.195 47.0118C80.2357 46.8064 80.3275 46.6157 80.4619 46.4577C80.7684 46.1193 81.1503 45.8599 81.5769 45.7005C82.0035 45.541 82.4628 45.486 82.9177 45.5399C83.1227 45.5696 83.3172 45.6537 83.4813 45.7835C83.5484 45.3512 83.2614 44.999 82.6737 44.895Z" fill="url(#paint56_linear_892_5262)"/>
<path d="M82.6737 44.895C82.2188 44.8411 81.7595 44.8961 81.3329 45.0555C80.9063 45.215 80.5243 45.4744 80.2179 45.8128C80.102 45.9278 80.0191 46.0726 79.9777 46.2322C79.9362 46.3918 79.9378 46.5604 79.9823 46.7205C80.0263 46.8348 80.0998 46.9354 80.195 47.0118C80.2357 46.8064 80.3275 46.6157 80.4619 46.4577C80.7684 46.1193 81.1503 45.8599 81.5769 45.7005C82.0035 45.541 82.4628 45.486 82.9177 45.5399C83.1227 45.5696 83.3172 45.6537 83.4813 45.7835C83.5484 45.3512 83.2614 44.999 82.6737 44.895Z" fill="url(#paint57_linear_892_5262)"/>
<g filter="url(#filter0_d_892_5262)">
<path d="M112.033 48.1292H48.6038C45.6892 48.1292 43.4609 45.9068 43.4609 43.0001V92.5812C43.4635 93.4871 43.8255 94.3552 44.4679 94.9958C45.1102 95.6364 45.9806 95.9975 46.889 96.0001H112.033C112.941 95.9975 113.812 95.6364 114.454 94.9958C115.096 94.3552 115.458 93.4871 115.461 92.5812V51.5481C115.458 50.6421 115.096 49.774 114.454 49.1334C113.812 48.4928 112.941 48.1318 112.033 48.1292Z" fill="url(#paint58_linear_892_5262)"/>
</g>
<path d="M115.093 82.0001H89.8289C88.9365 81.9975 88.0813 81.6456 87.4502 81.021C86.8192 80.3965 86.4635 79.5502 86.4609 78.667V65.3331C86.4635 64.4499 86.8192 63.6036 87.4502 62.9791C88.0813 62.3546 88.9365 62.0026 89.8289 62.0001H115.093C115.985 62.0026 116.841 62.3546 117.472 62.9791C118.103 63.6036 118.458 64.4499 118.461 65.3331V78.667C118.458 79.5502 118.103 80.3965 117.472 81.021C116.841 81.6456 115.985 81.9975 115.093 82.0001Z" fill="url(#paint59_linear_892_5262)"/>
<path d="M98.4609 77.0001C101.222 77.0001 103.461 74.7615 103.461 72.0001C103.461 69.2386 101.222 67.0001 98.4609 67.0001C95.6995 67.0001 93.4609 69.2386 93.4609 72.0001C93.4609 74.7615 95.6995 77.0001 98.4609 77.0001Z" fill="url(#paint60_linear_892_5262)"/>
<path d="M98.9609 76.0001C100.894 76.0001 102.461 74.4331 102.461 72.5001C102.461 70.5671 100.894 69.0001 98.9609 69.0001C97.0279 69.0001 95.4609 70.5671 95.4609 72.5001C95.4609 74.4331 97.0279 76.0001 98.9609 76.0001Z" fill="url(#paint61_linear_892_5262)"/>
<path d="M60.5209 63.5454C65.7712 66.9566 69.4514 72.3138 70.7518 78.4385C72.0523 84.5631 70.8664 90.9534 67.4552 96.2038C64.044 101.454 58.6868 105.134 52.5622 106.435C46.4376 107.735 40.0472 106.549 34.7969 103.138C29.5466 99.7268 25.8664 94.3696 24.566 88.245C23.2655 82.1204 24.4514 75.73 27.8626 70.4797C31.2738 65.2294 36.631 61.5492 42.7556 60.2488C48.8802 58.9484 55.2706 60.1342 60.5209 63.5454Z" fill="url(#paint62_linear_892_5262)"/>
<path d="M39.0023 96.6743C42.538 98.9715 46.8414 99.77 50.9658 98.8943C55.0903 98.0186 58.6979 95.5402 60.9951 92.0046C63.2923 88.4689 64.0909 84.1655 63.2151 80.041C62.3394 75.9166 59.8611 72.3089 56.3254 70.0117C52.7897 67.7145 48.4863 66.916 44.3619 67.7917C40.2374 68.6675 36.6298 71.1458 34.3326 74.6814C32.0354 78.2171 31.2368 82.5205 32.1126 86.645C32.9883 90.7694 35.4666 94.3771 39.0023 96.6743Z" fill="url(#paint63_linear_892_5262)"/>
<path d="M49.0063 78.6236C48.3213 79.3457 48.3213 80.489 49.0063 81.151C49.7484 81.9332 50.148 82.9562 50.148 83.9792C50.148 85.0022 49.7484 86.0853 49.0063 86.8074L43.8688 92.2232C43.1267 93.0054 42.1563 93.4267 41.1859 93.4267C40.2155 93.4267 39.188 93.0054 38.503 92.2232C37.0188 90.6586 37.0188 88.0711 38.503 86.5065L39.873 85.0623C40.558 84.3402 40.558 83.1969 39.873 82.535C39.188 81.8129 38.1034 81.8129 37.4755 82.535L36.1055 83.9792C33.2513 86.9879 33.2513 91.8019 36.1055 94.8107C37.4755 96.2549 39.3021 97.0372 41.243 97.0372C43.1838 97.0372 45.0105 96.2549 46.3805 94.8107L51.518 89.3949C52.888 87.9507 53.6301 86.0251 53.6301 83.9792C53.6301 81.9332 52.888 80.0076 51.518 78.5634C50.7759 77.9015 49.6913 77.9015 49.0063 78.6236Z" fill="url(#paint64_linear_892_5262)"/>
<path d="M59.1861 71.8666C57.7657 70.4264 55.8717 69.6462 53.8594 69.6462C51.847 69.6462 49.9531 70.4264 48.5326 71.8666L43.2058 77.2674C40.2465 80.2679 40.2465 85.0686 43.2058 88.0691C43.5609 88.4291 44.0344 88.6091 44.4487 88.6091C44.863 88.6091 45.3365 88.4291 45.6916 88.0691C46.4019 87.3489 46.4019 86.2088 45.6916 85.5487C44.1528 83.9884 44.1528 81.408 45.6916 79.8478L51.0184 74.447C52.5573 72.8867 55.1023 72.8867 56.6411 74.447C58.18 76.0072 58.18 78.5876 56.6411 80.1478L55.2206 81.5881C54.5104 82.3082 54.5104 83.4483 55.2206 84.1084C55.9309 84.8286 57.0554 84.8286 57.7065 84.1084L59.1269 82.6682C62.0863 79.6678 62.0863 74.867 59.1861 71.8666Z" fill="url(#paint65_linear_892_5262)"/>
<path d="M16.6294 34.582C17.1961 34.9104 17.1497 35.7434 16.55 36.0067L13.6012 37.3018C13.4457 37.3702 13.3159 37.4862 13.2307 37.6333L11.616 40.4198C11.2877 40.9866 10.4546 40.9401 10.1913 40.3404L8.89615 37.3917C8.82783 37.2362 8.71176 37.1064 8.56475 37.0212L5.77816 35.4065C5.21145 35.0781 5.25787 34.2451 5.85756 33.9817L8.80629 32.6866C8.96185 32.6183 9.09162 32.5022 9.1768 32.3552L10.7915 29.5686C11.1199 29.0019 11.9529 29.0483 12.2163 29.648L13.5114 32.5968C13.5797 32.7523 13.6958 32.8821 13.8428 32.9673L16.6294 34.582Z" fill="url(#paint66_linear_892_5262)"/>
<path d="M51.2409 12.0153C51.5819 12.6679 51.0371 13.4314 50.309 13.3212L46.7292 12.7792C46.5403 12.7506 46.3473 12.7828 46.178 12.8713L42.969 14.5481C42.3164 14.8891 41.5529 14.3443 41.6632 13.6162L42.2052 10.0364C42.2338 9.84755 42.2015 9.65449 42.1131 9.4852L40.4363 6.27624C40.0953 5.62363 40.6401 4.86015 41.3681 4.97039L44.948 5.51242C45.1368 5.54101 45.3299 5.50875 45.4992 5.42029L48.7081 3.74351C49.3607 3.4025 50.1242 3.9473 50.014 4.67533L49.4719 8.25517C49.4434 8.44402 49.4756 8.63708 49.5641 8.80637L51.2409 12.0153Z" fill="url(#paint67_linear_892_5262)"/>
<path d="M51.2409 12.0153C51.5819 12.6679 51.0371 13.4314 50.309 13.3212L46.7292 12.7792C46.5403 12.7506 46.3473 12.7828 46.178 12.8713L42.969 14.5481C42.3164 14.8891 41.5529 14.3443 41.6632 13.6162L42.2052 10.0364C42.2338 9.84755 42.2015 9.65449 42.1131 9.4852L40.4363 6.27624C40.0953 5.62363 40.6401 4.86015 41.3681 4.97039L44.948 5.51242C45.1368 5.54101 45.3299 5.50875 45.4992 5.42029L48.7081 3.74351C49.3607 3.4025 50.1242 3.9473 50.014 4.67533L49.4719 8.25517C49.4434 8.44402 49.4756 8.63708 49.5641 8.80637L51.2409 12.0153Z" fill="url(#paint68_linear_892_5262)"/>
<defs>
<filter id="filter0_d_892_5262" x="35.4609" y="30.0001" width="88" height="69" filterUnits="userSpaceOnUse" color-interpolation-filters="sRGB">
<feFlood flood-opacity="0" result="BackgroundImageFix"/>
<feColorMatrix in="SourceAlpha" type="matrix" values="0 0 0 0 0 0 0 0 0 0 0 0 0 0 0 0 0 0 127 0" result="hardAlpha"/>
<feOffset dy="-5"/>
<feGaussianBlur stdDeviation="4"/>
<feComposite in2="hardAlpha" operator="out"/>
<feColorMatrix type="matrix" values="0 0 0 0 0 0 0 0 0 0 0 0 0 0 0 0 0 0 0.25 0"/>
<feBlend mode="normal" in2="BackgroundImageFix" result="effect1_dropShadow_892_5262"/>
<feBlend mode="normal" in="SourceGraphic" in2="effect1_dropShadow_892_5262" result="shape"/>
</filter>
<linearGradient id="paint0_linear_892_5262" x1="76.4609" y1="43.7001" x2="76.4609" y2="48.6001" gradientUnits="userSpaceOnUse">
<stop stop-color="#B35E3E" stop-opacity="0"/>
<stop offset="1" stop-color="#96492D"/>
</linearGradient>
<linearGradient id="paint1_linear_892_5262" x1="76.4609" y1="38.0001" x2="76.4609" y2="48.0001" gradientUnits="userSpaceOnUse">
<stop stop-color="#81D228"/>
<stop offset="1" stop-color="#1DBB0F"/>
</linearGradient>
<linearGradient id="paint2_linear_892_5262" x1="43.4609" y1="87.1001" x2="46.5285" y2="106.757" gradientUnits="userSpaceOnUse">
<stop stop-color="#B35E3E" stop-opacity="0"/>
<stop offset="1" stop-color="#96492D"/>
</linearGradient>
<linearGradient id="paint3_linear_892_5262" x1="77.4609" y1="22.4335" x2="77.4609" y2="51.1419" gradientUnits="userSpaceOnUse">
<stop stop-color="#36DB39"/>
<stop offset="1" stop-color="#20B823"/>
</linearGradient>
<linearGradient id="paint4_linear_892_5262" x1="77.9609" y1="25.2349" x2="77.9609" y2="48.9949" gradientUnits="userSpaceOnUse">
<stop stop-color="#36DB39"/>
<stop offset="1" stop-color="#20B823"/>
</linearGradient>
<linearGradient id="paint5_linear_892_5262" x1="77.9609" y1="43.2001" x2="77.9609" y2="49.4001" gradientUnits="userSpaceOnUse">
<stop stop-color="#20B823" stop-opacity="0"/>
<stop offset="1" stop-color="#198F1B"/>
</linearGradient>
<linearGradient id="paint6_linear_892_5262" x1="77.9601" y1="38.2989" x2="77.9601" y2="48.9985" gradientUnits="userSpaceOnUse">
<stop stop-color="#20B823"/>
<stop offset="1" stop-color="#198F1B"/>
</linearGradient>
<linearGradient id="paint7_linear_892_5262" x1="77.4609" y1="21.2735" x2="77.4609" y2="50.5619" gradientUnits="userSpaceOnUse">
<stop stop-color="#20B823"/>
<stop offset="1" stop-color="#198F1B"/>
</linearGradient>
<linearGradient id="paint8_linear_892_5262" x1="98.0535" y1="17.9922" x2="125.652" y2="59.4103" gradientUnits="userSpaceOnUse">
<stop offset="0.222235" stop-color="#FFDC5E"/>
<stop offset="0.783425" stop-color="#FFB567"/>
</linearGradient>
<linearGradient id="paint9_linear_892_5262" x1="106.99" y1="32.3113" x2="115.717" y2="53.4723" gradientUnits="userSpaceOnUse">
<stop stop-color="#FFB764"/>
<stop offset="1" stop-color="#E97800"/>
</linearGradient>
<linearGradient id="paint10_linear_892_5262" x1="99.1161" y1="23.1357" x2="121.02" y2="54.6064" gradientUnits="userSpaceOnUse">
<stop offset="0.222235" stop-color="#FEB260"/>
<stop offset="0.783425" stop-color="#F58D1F"/>
</linearGradient>
<linearGradient id="paint11_linear_892_5262" x1="100.561" y1="24.0788" x2="116.225" y2="40.4209" gradientUnits="userSpaceOnUse">
<stop offset="0.222235" stop-color="#CFA200"/>
<stop offset="0.783425" stop-color="#F58D1F"/>
</linearGradient>
<linearGradient id="paint12_linear_892_5262" x1="99.0731" y1="35.6547" x2="102.457" y2="37.8215" gradientUnits="userSpaceOnUse">
<stop offset="0.1875" stop-color="#FAAEA6"/>
<stop offset="0.51626" stop-color="#D24E3F"/>
</linearGradient>
<linearGradient id="paint13_linear_892_5262" x1="100.267" y1="35.8693" x2="100.088" y2="37.2767" gradientUnits="userSpaceOnUse">
<stop stop-color="#E2990A"/>
<stop offset="1" stop-color="#E97800"/>
</linearGradient>
<linearGradient id="paint14_linear_892_5262" x1="98.6853" y1="30.6202" x2="111.841" y2="50.2934" gradientUnits="userSpaceOnUse">
<stop offset="0.222235" stop-color="#FFEA9F"/>
<stop offset="0.783425" stop-color="#FFB567"/>
</linearGradient>
<linearGradient id="paint15_linear_892_5262" x1="97.6302" y1="47.3963" x2="101.408" y2="49.8287" gradientUnits="userSpaceOnUse">
<stop offset="0.1875" stop-color="#FAAEA6"/>
<stop offset="0.51626" stop-color="#D24E3F"/>
</linearGradient>
<linearGradient id="paint16_linear_892_5262" x1="99.0049" y1="47.5772" x2="98.8734" y2="49.3192" gradientUnits="userSpaceOnUse">
<stop stop-color="#E2990A"/>
<stop offset="1" stop-color="#E97800"/>
</linearGradient>
<linearGradient id="paint17_linear_892_5262" x1="98.4855" y1="46.729" x2="101.765" y2="48.824" gradientUnits="userSpaceOnUse">
<stop offset="0.1875" stop-color="#FAAEA6"/>
<stop offset="0.51626" stop-color="#D24E3F"/>
</linearGradient>
<linearGradient id="paint18_linear_892_5262" x1="99.6299" y1="46.9549" x2="99.4388" y2="48.2631" gradientUnits="userSpaceOnUse">
<stop stop-color="#E2990A"/>
<stop offset="1" stop-color="#E97800"/>
</linearGradient>
<linearGradient id="paint19_linear_892_5262" x1="100.088" y1="38.227" x2="103.88" y2="40.6674" gradientUnits="userSpaceOnUse">
<stop offset="0.1875" stop-color="#FAAEA6"/>
<stop offset="0.51626" stop-color="#D24E3F"/>
</linearGradient>
<linearGradient id="paint20_linear_892_5262" x1="101.465" y1="38.4125" x2="101.329" y2="40.1501" gradientUnits="userSpaceOnUse">
<stop stop-color="#E2990A"/>
<stop offset="1" stop-color="#E97800"/>
</linearGradient>
<linearGradient id="paint21_linear_892_5262" x1="96.7923" y1="44.7958" x2="99.8659" y2="46.7112" gradientUnits="userSpaceOnUse">
<stop offset="0.1875" stop-color="#FAAEA6"/>
<stop offset="0.51626" stop-color="#D24E3F"/>
</linearGradient>
<linearGradient id="paint22_linear_892_5262" x1="97.7813" y1="45.1196" x2="97.541" y2="45.9566" gradientUnits="userSpaceOnUse">
<stop stop-color="#E2990A"/>
<stop offset="1" stop-color="#E97800"/>
</linearGradient>
<linearGradient id="paint23_linear_892_5262" x1="94.3646" y1="42.2977" x2="103.93" y2="48.571" gradientUnits="userSpaceOnUse">
<stop offset="0.1875" stop-color="#FAAEA6"/>
<stop offset="0.51626" stop-color="#D24E3F"/>
</linearGradient>
<linearGradient id="paint24_linear_892_5262" x1="98.5382" y1="41.7548" x2="99.7893" y2="48.041" gradientUnits="userSpaceOnUse">
<stop stop-color="#E2990A"/>
<stop offset="1" stop-color="#E97800"/>
</linearGradient>
<linearGradient id="paint25_linear_892_5262" x1="98.5382" y1="41.7548" x2="99.7893" y2="48.041" gradientUnits="userSpaceOnUse">
<stop stop-color="#E2990A"/>
<stop offset="1" stop-color="#E97800"/>
</linearGradient>
<linearGradient id="paint26_linear_892_5262" x1="99.5546" y1="36.5333" x2="105.502" y2="40.2354" gradientUnits="userSpaceOnUse">
<stop offset="0.1875" stop-color="#FAAEA6"/>
<stop offset="0.51626" stop-color="#D24E3F"/>
</linearGradient>
<linearGradient id="paint27_linear_892_5262" x1="101.463" y1="37.1671" x2="100.998" y2="38.7601" gradientUnits="userSpaceOnUse">
<stop stop-color="#E2990A"/>
<stop offset="1" stop-color="#E97800"/>
</linearGradient>
<linearGradient id="paint28_linear_892_5262" x1="99.1999" y1="46.6911" x2="102.169" y2="42.2302" gradientUnits="userSpaceOnUse">
<stop stop-color="#FB944B"/>
<stop offset="1" stop-color="#E57139"/>
</linearGradient>
<linearGradient id="paint29_linear_892_5262" x1="97.6743" y1="42.4611" x2="105.177" y2="47.4059" gradientUnits="userSpaceOnUse">
<stop offset="0.1875" stop-color="#FAAEA6"/>
<stop offset="0.51626" stop-color="#D24E3F"/>
</linearGradient>
<linearGradient id="paint30_linear_892_5262" x1="101.275" y1="41.5546" x2="102.995" y2="46.8709" gradientUnits="userSpaceOnUse">
<stop stop-color="#E2990A"/>
<stop offset="1" stop-color="#E97800"/>
</linearGradient>
<linearGradient id="paint31_linear_892_5262" x1="97.4603" y1="38.7679" x2="101.329" y2="41.3294" gradientUnits="userSpaceOnUse">
<stop offset="0.1875" stop-color="#FAAEA6"/>
<stop offset="0.51626" stop-color="#D24E3F"/>
</linearGradient>
<linearGradient id="paint32_linear_892_5262" x1="99.5885" y1="37.899" x2="100.962" y2="40.7535" gradientUnits="userSpaceOnUse">
<stop stop-color="#E2990A"/>
<stop offset="1" stop-color="#E97800"/>
</linearGradient>
<linearGradient id="paint33_linear_892_5262" x1="93.5036" y1="27.4407" x2="91.8072" y2="77.1829" gradientUnits="userSpaceOnUse">
<stop offset="0.222235" stop-color="#FFDC5E"/>
<stop offset="0.783425" stop-color="#FFB567"/>
</linearGradient>
<linearGradient id="paint34_linear_892_5262" x1="92.4181" y1="44.2822" x2="87.1836" y2="66.5654" gradientUnits="userSpaceOnUse">
<stop stop-color="#FFB764"/>
<stop offset="1" stop-color="#E97800"/>
</linearGradient>
<linearGradient id="paint35_linear_892_5262" x1="91.376" y1="32.2405" x2="90.8457" y2="70.5799" gradientUnits="userSpaceOnUse">
<stop offset="0.222235" stop-color="#FEB260"/>
<stop offset="0.783425" stop-color="#F58D1F"/>
</linearGradient>
<linearGradient id="paint36_linear_892_5262" x1="92.0004" y1="33.8491" x2="95.2123" y2="56.2573" gradientUnits="userSpaceOnUse">
<stop offset="0.222235" stop-color="#CFA200"/>
<stop offset="0.783425" stop-color="#F58D1F"/>
</linearGradient>
<linearGradient id="paint37_linear_892_5262" x1="84.0485" y1="42.3948" x2="85.5366" y2="46.1273" gradientUnits="userSpaceOnUse">
<stop offset="0.1875" stop-color="#FAAEA6"/>
<stop offset="0.51626" stop-color="#D24E3F"/>
</linearGradient>
<linearGradient id="paint38_linear_892_5262" x1="84.894" y1="43.2649" x2="83.9289" y2="44.3047" gradientUnits="userSpaceOnUse">
<stop stop-color="#E2990A"/>
<stop offset="1" stop-color="#E97800"/>
</linearGradient>
<linearGradient id="paint39_linear_892_5262" x1="86.6595" y1="38.071" x2="85.8918" y2="61.7253" gradientUnits="userSpaceOnUse">
<stop offset="0.222235" stop-color="#FFEA9F"/>
<stop offset="0.783425" stop-color="#FFB567"/>
</linearGradient>
<linearGradient id="paint40_linear_892_5262" x1="76.0294" y1="51.0949" x2="77.6828" y2="55.2726" gradientUnits="userSpaceOnUse">
<stop offset="0.1875" stop-color="#FAAEA6"/>
<stop offset="0.51626" stop-color="#D24E3F"/>
</linearGradient>
<linearGradient id="paint41_linear_892_5262" x1="77.0414" y1="52.0429" x2="75.9197" y2="53.3821" gradientUnits="userSpaceOnUse">
<stop stop-color="#E2990A"/>
<stop offset="1" stop-color="#E97800"/>
</linearGradient>
<linearGradient id="paint42_linear_892_5262" x1="77.1198" y1="51.0487" x2="78.5648" y2="54.662" gradientUnits="userSpaceOnUse">
<stop offset="0.1875" stop-color="#FAAEA6"/>
<stop offset="0.51626" stop-color="#D24E3F"/>
</linearGradient>
<linearGradient id="paint43_linear_892_5262" x1="77.9183" y1="51.899" x2="77.0009" y2="52.851" gradientUnits="userSpaceOnUse">
<stop stop-color="#E2990A"/>
<stop offset="1" stop-color="#E97800"/>
</linearGradient>
<linearGradient id="paint44_linear_892_5262" x1="83.3774" y1="45.0764" x2="85.0372" y2="49.2684" gradientUnits="userSpaceOnUse">
<stop offset="0.1875" stop-color="#FAAEA6"/>
<stop offset="0.51626" stop-color="#D24E3F"/>
</linearGradient>
<linearGradient id="paint45_linear_892_5262" x1="84.3886" y1="46.0293" x2="83.2651" y2="47.3618" gradientUnits="userSpaceOnUse">
<stop stop-color="#E2990A"/>
<stop offset="1" stop-color="#E97800"/>
</linearGradient>
<linearGradient id="paint46_linear_892_5262" x1="76.8682" y1="48.4912" x2="78.2505" y2="51.8386" gradientUnits="userSpaceOnUse">
<stop offset="0.1875" stop-color="#FAAEA6"/>
<stop offset="0.51626" stop-color="#D24E3F"/>
</linearGradient>
<linearGradient id="paint47_linear_892_5262" x1="77.4834" y1="49.3306" x2="76.8005" y2="49.8709" gradientUnits="userSpaceOnUse">
<stop stop-color="#E2990A"/>
<stop offset="1" stop-color="#E97800"/>
</linearGradient>
<linearGradient id="paint48_linear_892_5262" x1="76.3441" y1="45.046" x2="80.4642" y2="55.7172" gradientUnits="userSpaceOnUse">
<stop offset="0.1875" stop-color="#FAAEA6"/>
<stop offset="0.51626" stop-color="#D24E3F"/>
</linearGradient>
<linearGradient id="paint49_linear_892_5262" x1="80.0527" y1="47.0361" x2="77.4075" y2="52.8742" gradientUnits="userSpaceOnUse">
<stop stop-color="#E2990A"/>
<stop offset="1" stop-color="#E97800"/>
</linearGradient>
<linearGradient id="paint50_linear_892_5262" x1="80.0527" y1="47.0361" x2="77.4075" y2="52.8742" gradientUnits="userSpaceOnUse">
<stop stop-color="#E2990A"/>
<stop offset="1" stop-color="#E97800"/>
</linearGradient>
<linearGradient id="paint51_linear_892_5262" x1="83.9162" y1="43.3836" x2="86.5939" y2="49.8575" gradientUnits="userSpaceOnUse">
<stop offset="0.1875" stop-color="#FAAEA6"/>
<stop offset="0.51626" stop-color="#D24E3F"/>
</linearGradient>
<linearGradient id="paint52_linear_892_5262" x1="85.0981" y1="45.0105" x2="83.7918" y2="46.0341" gradientUnits="userSpaceOnUse">
<stop stop-color="#E2990A"/>
<stop offset="1" stop-color="#E97800"/>
</linearGradient>
<linearGradient id="paint53_linear_892_5262" x1="77.7245" y1="51.435" x2="82.7362" y2="49.5387" gradientUnits="userSpaceOnUse">
<stop stop-color="#FB944B"/>
<stop offset="1" stop-color="#E57139"/>
</linearGradient>
<linearGradient id="paint54_linear_892_5262" x1="78.9487" y1="47.1082" x2="82.166" y2="55.4979" gradientUnits="userSpaceOnUse">
<stop offset="0.1875" stop-color="#FAAEA6"/>
<stop offset="0.51626" stop-color="#D24E3F"/>
</linearGradient>
<linearGradient id="paint55_linear_892_5262" x1="82.4033" y1="48.469" x2="80.7045" y2="53.7922" gradientUnits="userSpaceOnUse">
<stop stop-color="#E2990A"/>
<stop offset="1" stop-color="#E97800"/>
</linearGradient>
<linearGradient id="paint56_linear_892_5262" x1="80.9184" y1="43.9809" x2="82.5702" y2="48.3163" gradientUnits="userSpaceOnUse">
<stop offset="0.1875" stop-color="#FAAEA6"/>
<stop offset="0.51626" stop-color="#D24E3F"/>
</linearGradient>
<linearGradient id="paint57_linear_892_5262" x1="83.1544" y1="44.5145" x2="82.6075" y2="47.6345" gradientUnits="userSpaceOnUse">
<stop stop-color="#E2990A"/>
<stop offset="1" stop-color="#E97800"/>
</linearGradient>
<linearGradient id="paint58_linear_892_5262" x1="79.4609" y1="43.0001" x2="79.4609" y2="96.0001" gradientUnits="userSpaceOnUse">
<stop stop-color="#99E941"/>
<stop offset="1" stop-color="#46D13A"/>
</linearGradient>
<linearGradient id="paint59_linear_892_5262" x1="102.461" y1="62.0001" x2="102.461" y2="82.0001" gradientUnits="userSpaceOnUse">
<stop stop-color="#6BAF21"/>
<stop offset="1" stop-color="#26BA19"/>
</linearGradient>
<linearGradient id="paint60_linear_892_5262" x1="98.4609" y1="67.0001" x2="98.4609" y2="77.0001" gradientUnits="userSpaceOnUse">
<stop stop-color="#99E941"/>
<stop offset="1" stop-color="#46D13A"/>
</linearGradient>
<linearGradient id="paint61_linear_892_5262" x1="98.9609" y1="69.0001" x2="98.9609" y2="76.0001" gradientUnits="userSpaceOnUse">
<stop stop-color="#99E941"/>
<stop offset="1" stop-color="#46D13A"/>
</linearGradient>
<linearGradient id="paint62_linear_892_5262" x1="51.9481" y1="57.7369" x2="11.2826" y2="75.7657" gradientUnits="userSpaceOnUse">
<stop stop-color="#A864FF"/>
<stop offset="1" stop-color="#5D43FF"/>
</linearGradient>
<linearGradient id="paint63_linear_892_5262" x1="50.5523" y1="66.1002" x2="23.1672" y2="78.2412" gradientUnits="userSpaceOnUse">
<stop stop-color="#BB86FF"/>
<stop offset="1" stop-color="#7D68FF"/>
</linearGradient>
<linearGradient id="paint64_linear_892_5262" x1="39.4853" y1="77.9939" x2="29.8824" y2="93.2834" gradientUnits="userSpaceOnUse">
<stop stop-color="#E4CFFF"/>
<stop offset="1" stop-color="#BCB2FF"/>
</linearGradient>
<linearGradient id="paint65_linear_892_5262" x1="51.1701" y1="69.6462" x2="51.1701" y2="88.6091" gradientUnits="userSpaceOnUse">
<stop stop-color="#FFE3E3"/>
<stop offset="1" stop-color="#FFD2D2" stop-opacity="0"/>
</linearGradient>
<linearGradient id="paint66_linear_892_5262" x1="-4.45343" y1="30.9102" x2="30.0987" y2="39.7391" gradientUnits="userSpaceOnUse">
<stop stop-color="#6CFF54"/>
<stop offset="1" stop-color="#99E941"/>
<stop offset="1" stop-color="#9EFF33"/>
</linearGradient>
<linearGradient id="paint67_linear_892_5262" x1="33.4186" y1="-4.14536" x2="60.9373" y2="25.0109" gradientUnits="userSpaceOnUse">
<stop stop-color="#6CFF54"/>
<stop offset="1" stop-color="#99E941"/>
<stop offset="1" stop-color="#9EFF33"/>
</linearGradient>
<linearGradient id="paint68_linear_892_5262" x1="46.2974" y1="17.7308" x2="46.9979" y2="-0.76494" gradientUnits="userSpaceOnUse">
<stop stop-color="#FFB764"/>
<stop offset="1" stop-color="#E97800"/>
</linearGradient>
</defs>
</svg>
