<svg width="17" height="17" viewBox="0 0 17 17" fill="none" xmlns="http://www.w3.org/2000/svg">
<path d="M15.2251 2.53018L10.8756 15.0957C10.8346 15.214 10.7573 15.3163 10.6547 15.3881C10.552 15.4598 10.4294 15.4973 10.3042 15.4951C10.179 15.4929 10.0577 15.4512 9.95759 15.376C9.85752 15.3007 9.7838 15.1957 9.74698 15.0761L7.99871 9.39419C7.97023 9.30163 7.91954 9.21743 7.85106 9.14896C7.78258 9.08048 7.69839 9.02979 7.60583 9.00131L1.92396 7.25304C1.80429 7.21622 1.69931 7.1425 1.62405 7.04243C1.54879 6.94236 1.50709 6.82106 1.50492 6.69586C1.50274 6.57067 1.5402 6.44799 1.61194 6.34536C1.68368 6.24274 1.78603 6.16542 1.90435 6.12446L14.4698 1.77487C14.5751 1.73842 14.6886 1.73233 14.7972 1.75731C14.9057 1.78229 15.0051 1.83732 15.0839 1.91611C15.1627 1.9949 15.2177 2.09427 15.2427 2.20286C15.2677 2.31145 15.2616 2.42488 15.2251 2.53018V2.53018Z" stroke="white" stroke-width="2" stroke-linecap="round" stroke-linejoin="round"/>
</svg>
