<svg width="100" height="113" viewBox="0 0 100 113" fill="none" xmlns="http://www.w3.org/2000/svg">
<circle cx="51.3794" cy="61.2759" r="48.2759" fill="#1B1F48" fill-opacity="0.63"/>
<path d="M87.3173 35.2912C87.3126 34.7167 87.9625 34.3802 88.4289 34.7157L90.7221 36.3654C90.8431 36.4524 90.9886 36.4987 91.1376 36.4975L93.9625 36.4744C94.537 36.4697 94.8734 37.1196 94.5379 37.5859L92.8882 39.8792C92.8012 40.0001 92.755 40.1457 92.7562 40.2947L92.7793 43.1195C92.784 43.694 92.1341 44.0304 91.6677 43.6949L89.3745 42.0453C89.2535 41.9583 89.108 41.912 88.9589 41.9132L86.1341 41.9363C85.5596 41.941 85.2232 41.2911 85.5587 40.8247L87.2084 38.5315C87.2954 38.4106 87.3416 38.265 87.3404 38.116L87.3173 35.2912Z" fill="url(#paint0_linear_78_27748)"/>
<path d="M1.97595 39.6331C1.46232 39.2011 1.65695 38.3688 2.30885 38.2094L5.51431 37.4256C5.68342 37.3842 5.83497 37.2901 5.94701 37.1569L8.07085 34.6313C8.50278 34.1176 9.33517 34.3123 9.49457 34.9642L10.2784 38.1696C10.3197 38.3387 10.4138 38.4903 10.5471 38.6023L13.0727 40.7262C13.5863 41.1581 13.3917 41.9905 12.7398 42.1499L9.53431 42.9337C9.3652 42.975 9.21365 43.0691 9.10161 43.2024L6.97777 45.728C6.54584 46.2416 5.71345 46.047 5.55405 45.3951L4.77025 42.1896C4.7289 42.0205 4.63479 41.869 4.50155 41.7569L1.97595 39.6331Z" fill="#FFB641"/>
<ellipse cx="82.34" cy="52.2637" rx="1.63705" ry="1.53474" transform="rotate(-27.3691 82.34 52.2637)" fill="white"/>
<ellipse cx="13.2675" cy="56.9368" rx="1.9123" ry="1.79278" transform="rotate(-76.8395 13.2675 56.9368)" fill="white"/>
<path d="M6.26536 46.6729L48.6826 13.8066C49.8013 13.729 50.9305 13.6896 52.0689 13.6896C58.8618 13.6896 65.327 15.0926 71.1906 17.6247L4.36269 69.4051C3.98759 66.9802 3.79297 64.4956 3.79297 61.9656C3.79297 56.6206 4.66159 51.4786 6.26536 46.6729Z" fill="url(#paint1_linear_78_27748)"/>
<path d="M77.0734 20.6883L18.8395 65.8099L16.6104 62.933L73.6064 18.7705C74.7907 19.3633 75.9472 20.0034 77.0734 20.6883Z" fill="url(#paint2_linear_78_27748)"/>
<path d="M51.9407 48.8621L66.7786 57.4777L52.6586 65.6146L38.0601 57.4777L51.9407 48.8621Z" fill="url(#paint3_linear_78_27748)"/>
<path d="M38.2993 57.2384L52.6586 65.6146L52.4193 101.991L38.2993 93.3759V57.2384Z" fill="url(#paint4_linear_78_27748)"/>
<path d="M66.5372 57.4777L52.6588 65.6146L52.4192 79.4952L66.8027 69.9224L66.5372 57.4777Z" fill="url(#paint5_linear_78_27748)"/>
<path d="M66.0598 69.2043L80.8977 77.8198L66.5385 86.1961L52.1792 77.8198L66.0598 69.2043Z" fill="url(#paint6_linear_78_27748)"/>
<path d="M52.1792 77.8199L66.5385 86.1961L66.2991 113L52.1792 104.385V77.8199Z" fill="url(#paint7_linear_78_27748)"/>
<path d="M80.657 77.8199L66.5371 86.1961L66.2973 113L80.9224 104.863L80.657 77.8199Z" fill="url(#paint8_linear_78_27748)"/>
<path d="M37.6736 61.9656L52.5115 70.5811L38.1522 78.9574L23.793 70.5811L37.6736 61.9656Z" fill="url(#paint9_linear_78_27748)"/>
<path d="M23.793 70.5811L38.1522 78.9573L37.9129 112.305L23.793 103.69V70.5811Z" fill="url(#paint10_linear_78_27748)"/>
<path d="M52.2705 70.5811L38.1506 78.9573L37.9117 112.311L52.2696 104.299L52.2705 70.5811Z" fill="url(#paint11_linear_78_27748)"/>
<g filter="url(#filter0_d_78_27748)">
<g filter="url(#filter1_f_78_27748)">
<circle cx="54.4826" cy="35.4138" r="18.9655" fill="#252734" fill-opacity="0.41"/>
</g>
<path d="M68.9547 36.8905C68.9547 45.8871 61.6615 53.1803 52.6648 53.1803C43.6682 53.1803 36.375 45.8871 36.375 36.8905C36.375 27.8939 43.6682 20.6006 52.6648 20.6006C61.6615 20.6006 68.9547 27.8939 68.9547 36.8905Z" fill="url(#paint12_linear_78_27748)"/>
<path d="M68.9547 36.8905C68.9547 45.8871 61.6615 53.1803 52.6648 53.1803C43.6682 53.1803 36.375 45.8871 36.375 36.8905C36.375 27.8939 43.6682 20.6006 52.6648 20.6006C61.6615 20.6006 68.9547 27.8939 68.9547 36.8905Z" fill="url(#paint13_linear_78_27748)"/>
<path fill-rule="evenodd" clip-rule="evenodd" d="M69.8115 36.8904C69.8115 46.3606 62.1344 54.0376 52.6643 54.0376C43.1942 54.0376 35.5171 46.3606 35.5171 36.8904C35.5171 27.4203 43.1942 19.7432 52.6643 19.7432C62.1344 19.7432 69.8115 27.4203 69.8115 36.8904ZM52.6643 53.1803C61.6609 53.1803 68.9541 45.8871 68.9541 36.8904C68.9541 27.8938 61.6609 20.6006 52.6643 20.6006C43.6677 20.6006 36.3745 27.8938 36.3745 36.8904C36.3745 45.8871 43.6677 53.1803 52.6643 53.1803Z" fill="url(#paint14_linear_78_27748)"/>
<circle cx="52.6646" cy="36.8904" r="12.8604" fill="#252734"/>
<circle cx="52.6646" cy="36.8904" r="12.8604" fill="url(#paint15_linear_78_27748)"/>
<path d="M57.5114 33.9101C57.6224 35.0325 57.2185 35.8279 56.2997 36.2966C57.0211 36.4693 57.5607 36.7868 57.9184 37.2493C58.276 37.7118 58.4148 38.3716 58.3346 39.2288C58.2915 39.6666 58.1912 40.052 58.034 40.385C57.8768 40.718 57.6779 40.9924 57.4374 41.2082C57.1969 41.4241 56.8978 41.6044 56.5402 41.7493C56.1825 41.8943 55.8079 42.0006 55.4163 42.0685C55.0247 42.1363 54.5761 42.1825 54.0705 42.2072V44.5659H52.646V42.2442C52.1527 42.2442 51.7765 42.2411 51.5175 42.235V44.5659H50.0931V42.2072C49.9821 42.2072 49.8156 42.2057 49.5936 42.2026C49.3716 42.1995 49.202 42.198 49.0848 42.198H47.2349L47.5216 40.5053H48.5483C48.8567 40.5053 49.0355 40.348 49.0848 40.0335V36.3151H49.2328C49.1958 36.3089 49.1465 36.3058 49.0848 36.3058V33.6512C49.0047 33.2318 48.7302 33.0222 48.2616 33.0222H47.2349V31.5052L49.1958 31.5145C49.5905 31.5145 49.8896 31.5114 50.0931 31.5052V29.1743H51.5175V31.459C52.0232 31.4466 52.3993 31.4405 52.646 31.4405V29.1743H54.0705V31.5052C54.5576 31.5484 54.9893 31.6177 55.3654 31.7133C55.7416 31.8089 56.09 31.9477 56.4107 32.1296C56.7313 32.3115 56.9857 32.552 57.1738 32.851C57.3618 33.1501 57.4744 33.5032 57.5114 33.9101ZM55.5227 38.9513C55.5227 38.7293 55.4764 38.532 55.3839 38.3593C55.2914 38.1866 55.1774 38.0448 55.0417 37.9338C54.906 37.8228 54.7287 37.7288 54.5098 37.6517C54.2909 37.5746 54.089 37.5176 53.904 37.4806C53.719 37.4436 53.4908 37.4158 53.2195 37.3973C52.9482 37.3788 52.7354 37.3696 52.5812 37.3696C52.4271 37.3696 52.2282 37.3727 51.9846 37.3788C51.7411 37.385 51.5946 37.3881 51.5453 37.3881V40.5145C51.5946 40.5145 51.7087 40.516 51.8875 40.5191C52.0663 40.5222 52.2143 40.5238 52.3315 40.5238C52.4487 40.5238 52.6121 40.5191 52.8217 40.5099C53.0314 40.5006 53.2118 40.4883 53.3629 40.4729C53.5139 40.4575 53.6897 40.4313 53.8901 40.3943C54.0905 40.3573 54.2616 40.3141 54.4035 40.2648C54.5453 40.2154 54.6917 40.1507 54.8428 40.0705C54.9939 39.9903 55.1157 39.8978 55.2082 39.793C55.3007 39.6882 55.3762 39.5649 55.4348 39.423C55.4934 39.2812 55.5227 39.124 55.5227 38.9513ZM54.8659 34.5484C54.8659 34.3449 54.8274 34.1645 54.7503 34.0073C54.6732 33.85 54.5792 33.7205 54.4682 33.6188C54.3572 33.517 54.2092 33.4307 54.0242 33.3598C53.8392 33.2889 53.6696 33.238 53.5155 33.2072C53.3613 33.1763 53.1717 33.1517 52.9466 33.1332C52.7215 33.1147 52.5427 33.107 52.4101 33.11C52.2775 33.1131 52.111 33.1162 51.9106 33.1193C51.7102 33.1224 51.5884 33.1239 51.5453 33.1239V35.9636C51.5761 35.9636 51.6825 35.9651 51.8644 35.9682C52.0463 35.9713 52.1897 35.9713 52.2945 35.9682C52.3993 35.9651 52.5535 35.959 52.757 35.9497C52.9605 35.9405 53.1301 35.9235 53.2657 35.8989C53.4014 35.8742 53.5602 35.8403 53.7421 35.7971C53.924 35.7539 54.0735 35.6969 54.1907 35.626C54.3079 35.5551 54.422 35.4718 54.533 35.3762C54.6439 35.2807 54.7272 35.162 54.7827 35.0201C54.8382 34.8783 54.8659 34.721 54.8659 34.5484Z" fill="url(#paint16_linear_78_27748)"/>
</g>
<defs>
<filter id="filter0_d_78_27748" x="13.5171" y="3.4483" width="81.9312" height="81.9311" filterUnits="userSpaceOnUse" color-interpolation-filters="sRGB">
<feFlood flood-opacity="0" result="BackgroundImageFix"/>
<feColorMatrix in="SourceAlpha" type="matrix" values="0 0 0 0 0 0 0 0 0 0 0 0 0 0 0 0 0 0 127 0" result="hardAlpha"/>
<feOffset dy="9"/>
<feGaussianBlur stdDeviation="11"/>
<feComposite in2="hardAlpha" operator="out"/>
<feColorMatrix type="matrix" values="0 0 0 0 0 0 0 0 0 0 0 0 0 0 0 0 0 0 0.39 0"/>
<feBlend mode="normal" in2="BackgroundImageFix" result="effect1_dropShadow_78_27748"/>
<feBlend mode="normal" in="SourceGraphic" in2="effect1_dropShadow_78_27748" result="shape"/>
</filter>
<filter id="filter1_f_78_27748" x="19.5171" y="0.448303" width="69.9312" height="69.9311" filterUnits="userSpaceOnUse" color-interpolation-filters="sRGB">
<feFlood flood-opacity="0" result="BackgroundImageFix"/>
<feBlend mode="normal" in="SourceGraphic" in2="BackgroundImageFix" result="shape"/>
<feGaussianBlur stdDeviation="8" result="effect1_foregroundBlur_78_27748"/>
</filter>
<linearGradient id="paint0_linear_78_27748" x1="93.9459" y1="52.8528" x2="85.2059" y2="22.8177" gradientUnits="userSpaceOnUse">
<stop stop-color="#6CFF54"/>
<stop offset="1" stop-color="#99E941"/>
<stop offset="1" stop-color="#9EFF33"/>
</linearGradient>
<linearGradient id="paint1_linear_78_27748" x1="80.5503" y1="3.43635" x2="2.2265" y2="60.3991" gradientUnits="userSpaceOnUse">
<stop stop-color="#D9D9D9" stop-opacity="0.1"/>
<stop offset="1" stop-color="#D9D9D9" stop-opacity="0"/>
</linearGradient>
<linearGradient id="paint2_linear_78_27748" x1="111.881" y1="3.43647" x2="33.5568" y2="60.3992" gradientUnits="userSpaceOnUse">
<stop stop-color="#D9D9D9" stop-opacity="0.1"/>
<stop offset="1" stop-color="#D9D9D9" stop-opacity="0"/>
</linearGradient>
<linearGradient id="paint3_linear_78_27748" x1="53.5322" y1="63.5155" x2="51.2958" y2="47.6973" gradientUnits="userSpaceOnUse">
<stop stop-color="#67FF92"/>
<stop offset="1" stop-color="#00CA69"/>
</linearGradient>
<linearGradient id="paint4_linear_78_27748" x1="40.8811" y1="111.325" x2="21.4287" y2="65.4949" gradientUnits="userSpaceOnUse">
<stop stop-color="#67FF92" stop-opacity="0"/>
<stop offset="1" stop-color="#00CA69"/>
</linearGradient>
<linearGradient id="paint5_linear_78_27748" x1="64.258" y1="113.555" x2="85.1338" y2="66.7982" gradientUnits="userSpaceOnUse">
<stop stop-color="#3CFF72" stop-opacity="0"/>
<stop offset="1" stop-color="#2BFF99"/>
</linearGradient>
<linearGradient id="paint6_linear_78_27748" x1="67.6513" y1="83.8577" x2="65.4149" y2="68.0395" gradientUnits="userSpaceOnUse">
<stop stop-color="#67FF92"/>
<stop offset="1" stop-color="#00CA69"/>
</linearGradient>
<linearGradient id="paint7_linear_78_27748" x1="54.7609" y1="131.906" x2="35.3086" y2="86.0763" gradientUnits="userSpaceOnUse">
<stop stop-color="#67FF92" stop-opacity="0"/>
<stop offset="1" stop-color="#00CA69"/>
</linearGradient>
<linearGradient id="paint8_linear_78_27748" x1="78.3777" y1="133.897" x2="99.2534" y2="87.1404" gradientUnits="userSpaceOnUse">
<stop stop-color="#3CFF72" stop-opacity="0"/>
<stop offset="1" stop-color="#2BFF99"/>
</linearGradient>
<linearGradient id="paint9_linear_78_27748" x1="39.2651" y1="76.619" x2="37.0287" y2="60.8008" gradientUnits="userSpaceOnUse">
<stop stop-color="#67FF92"/>
<stop offset="1" stop-color="#00CA69"/>
</linearGradient>
<linearGradient id="paint10_linear_78_27748" x1="26.3747" y1="124.668" x2="6.92238" y2="78.8376" gradientUnits="userSpaceOnUse">
<stop stop-color="#67FF92" stop-opacity="0"/>
<stop offset="1" stop-color="#00CA69"/>
</linearGradient>
<linearGradient id="paint11_linear_78_27748" x1="49.9912" y1="126.659" x2="70.8669" y2="79.9016" gradientUnits="userSpaceOnUse">
<stop stop-color="#3CFF72" stop-opacity="0"/>
<stop offset="1" stop-color="#2BFF99"/>
</linearGradient>
<linearGradient id="paint12_linear_78_27748" x1="52.6648" y1="20.6006" x2="52.6648" y2="53.1803" gradientUnits="userSpaceOnUse">
<stop stop-color="#DB3825"/>
<stop offset="1" stop-color="#7A1B10"/>
</linearGradient>
<linearGradient id="paint13_linear_78_27748" x1="45.5208" y1="20.4626" x2="28.7687" y2="46.1821" gradientUnits="userSpaceOnUse">
<stop stop-color="#F0DA15"/>
<stop offset="0.835592" stop-color="#D86800"/>
</linearGradient>
<linearGradient id="paint14_linear_78_27748" x1="45.1443" y1="19.5979" x2="27.5105" y2="46.6711" gradientUnits="userSpaceOnUse">
<stop stop-color="#FFF494"/>
<stop offset="0.63021" stop-color="#FFD4AD"/>
</linearGradient>
<linearGradient id="paint15_linear_78_27748" x1="47.0246" y1="23.921" x2="33.7993" y2="44.2259" gradientUnits="userSpaceOnUse">
<stop stop-color="#FFEB3C"/>
<stop offset="1" stop-color="#FF881B"/>
</linearGradient>
<linearGradient id="paint16_linear_78_27748" x1="52.7957" y1="29.1743" x2="52.7957" y2="44.5659" gradientUnits="userSpaceOnUse">
<stop stop-color="white" stop-opacity="0.87"/>
<stop offset="0.770302" stop-color="white" stop-opacity="0.554176"/>
<stop offset="1" stop-color="white" stop-opacity="0.46"/>
</linearGradient>
</defs>
</svg>
