<svg width="109" height="100" viewBox="0 0 109 100" fill="none" xmlns="http://www.w3.org/2000/svg">
<circle cx="56.9258" cy="50" r="50" fill="#1B1F48" fill-opacity="0.63"/>
<path d="M91.472 10.7026C91.3782 9.87971 92.2589 9.29896 92.9783 9.70925L96.5157 11.7267C96.7023 11.8331 96.918 11.8774 97.1314 11.853L101.177 11.3919C102 11.2981 102.581 12.1788 102.171 12.8982L100.153 16.4356C100.047 16.6223 100.003 16.8379 100.027 17.0514L100.488 21.0974C100.582 21.9203 99.7012 22.501 98.9818 22.0907L95.4444 20.0733C95.2578 19.9669 95.0421 19.9226 94.8287 19.947L90.7826 20.4081C89.9598 20.5018 89.379 19.6212 89.7893 18.9018L91.8067 15.3644C91.9132 15.1777 91.9574 14.9621 91.9331 14.7486L91.472 10.7026Z" fill="url(#paint0_linear_198_6968)"/>
<path d="M5.7835 40.576C5.68973 39.7531 6.5704 39.1724 7.28981 39.5827L10.8272 41.6001C11.0138 41.7065 11.2295 41.7508 11.4429 41.7265L15.489 41.2653C16.3119 41.1716 16.8926 42.0522 16.4823 42.7716L14.4649 46.309C14.3585 46.4957 14.3142 46.7113 14.3385 46.9248L14.7996 50.9708C14.8934 51.7937 14.0128 52.3744 13.2933 51.9642L9.75593 49.9467C9.56932 49.8403 9.35366 49.796 9.14021 49.8204L5.09415 50.2815C4.27129 50.3753 3.69054 49.4946 4.10083 48.7752L6.11826 45.2378C6.22469 45.0512 6.26894 44.8355 6.24462 44.622L5.7835 40.576Z" fill="url(#paint1_linear_198_6968)"/>
<ellipse cx="21.2603" cy="59.1048" rx="2.35988" ry="2.21239" transform="rotate(-33.4025 21.2603 59.1048)" fill="white"/>
<path fill-rule="evenodd" clip-rule="evenodd" d="M8.1709 61.1363C18.8383 44.9601 37.1715 34.2858 57.9978 34.2858C77.7804 34.2858 95.3135 43.917 106.164 58.7463C102.028 82.1905 81.5568 100 56.9262 100C33.1397 100 13.2327 83.3902 8.1709 61.1363Z" fill="url(#paint2_linear_198_6968)"/>
<rect x="32.8643" y="13.1885" width="51.5137" height="56.7229" rx="14.0694" fill="url(#paint3_linear_198_6968)"/>
<path d="M39.4346 22.167C39.4346 20.9273 40.4395 19.9224 41.6792 19.9224H53.6506C54.8903 19.9224 55.8952 20.9273 55.8952 22.167C55.8952 23.4067 54.8903 24.4116 53.6506 24.4116H41.6792C40.4395 24.4116 39.4346 23.4067 39.4346 22.167Z" fill="url(#paint4_linear_198_6968)"/>
<path d="M39.4346 30.3972C39.4346 29.1575 40.4395 28.1525 41.6792 28.1525H75.3487C76.5884 28.1525 77.5934 29.1575 77.5934 30.3972C77.5934 31.6368 76.5884 32.6418 75.3487 32.6418H41.6792C40.4395 32.6418 39.4346 31.6368 39.4346 30.3972Z" fill="url(#paint5_linear_198_6968)"/>
<path d="M39.4346 36.3829C39.4346 35.1432 40.4395 34.1383 41.6792 34.1383H71.6077C72.8474 34.1383 73.8523 35.1432 73.8523 36.3829C73.8523 37.6226 72.8474 38.6276 71.6077 38.6276H41.6792C40.4395 38.6276 39.4346 37.6226 39.4346 36.3829Z" fill="url(#paint6_linear_198_6968)"/>
<path d="M39.4346 42.3687C39.4346 41.129 40.4395 40.124 41.6792 40.124H63.3774C64.617 40.124 65.622 41.129 65.622 42.3687C65.622 43.6083 64.617 44.6133 63.3774 44.6133H41.6792C40.4395 44.6133 39.4346 43.6083 39.4346 42.3687Z" fill="url(#paint7_linear_198_6968)"/>
<path d="M52.4945 78.4406C43.0141 68.4572 44.1058 50.8084 45.8368 43.232L51.4457 43.9962C46.7365 65.3708 62.2737 82.6782 70.631 88.66L70.2879 89.4899C63.6981 88.7865 55.6799 81.8306 52.4945 78.4406Z" fill="url(#paint8_linear_198_6968)"/>
<path d="M45.6864 43.5961C55.9311 35.6084 66.6215 34.3294 70.4909 34.7043C60.6272 36.6604 53.3399 42.1187 50.9976 44.4381L45.6864 43.5961Z" fill="url(#paint9_linear_198_6968)"/>
<path d="M48.3269 43.596C65.2563 28.4333 84.7835 35.8401 92.431 41.4388C93.9336 45.9077 90.7658 57.744 88.994 63.1035C84.1984 77.2807 74.4283 86.5154 70.1426 89.3607C67.108 88.106 59.3901 83.4144 52.7956 74.6856C46.2012 65.9568 47.0688 50.3222 48.3269 43.596Z" fill="#D9D9D9"/>
<path d="M48.3269 43.596C65.2563 28.4333 84.7835 35.8401 92.431 41.4388C93.9336 45.9077 90.7658 57.744 88.994 63.1035C84.1984 77.2807 74.4283 86.5154 70.1426 89.3607C67.108 88.106 59.3901 83.4144 52.7956 74.6856C46.2012 65.9568 47.0688 50.3222 48.3269 43.596Z" fill="url(#paint10_linear_198_6968)"/>
<path d="M80.0734 42.3066C70.4541 39.7148 58.819 45.3845 54.2039 48.5432C53.1486 71.0428 60.8329 78.2222 70.9548 83.7541C72.7266 82.7934 75.3073 79.8453 76.3762 78.4914C85.2136 65.9824 88.2839 51.5379 88.7144 45.8793C83.4537 43.0885 80.7618 42.3347 80.0734 42.3066Z" fill="url(#paint11_linear_198_6968)"/>
<path d="M80.0734 42.3066C70.4541 39.7148 58.819 45.3845 54.2039 48.5432C53.1486 71.0428 60.8329 78.2222 70.9548 83.7541C72.7266 82.7934 75.3073 79.8453 76.3762 78.4914C85.2136 65.9824 88.2839 51.5379 88.7144 45.8793C83.4537 43.0885 80.7618 42.3347 80.0734 42.3066Z" fill="url(#paint12_radial_198_6968)"/>
<path d="M73.2441 82.3328C70.5203 82.0773 58.8295 77.4004 55.9223 65.3742C53.4924 55.3224 66.1591 45.4364 72.9408 41.6595C65.2804 42.2613 57.7452 46.0719 54.2375 48.4571C53.2257 71.0564 60.9986 78.2868 71.2278 83.8678C71.8364 83.5404 72.5393 82.9813 73.2441 82.3328Z" fill="url(#paint13_linear_198_6968)"/>
<path fill-rule="evenodd" clip-rule="evenodd" d="M79.6706 54.7018C80.3287 55.7628 80.3611 57.2426 79.7429 58.0069L70.1254 69.8976C69.8258 70.2681 69.4108 70.4168 68.9733 70.3106C68.5358 70.2044 68.1123 69.8522 67.7976 69.3326L62.9212 61.2808C62.272 60.2089 62.2544 58.7328 62.8819 57.9837C63.5094 57.2347 64.5444 57.4964 65.1936 58.5683L68.8776 64.6513L77.3598 54.1643C77.9779 53.4 79.0125 53.6407 79.6706 54.7018Z" fill="url(#paint14_linear_198_6968)"/>
<path fill-rule="evenodd" clip-rule="evenodd" d="M81.3874 54.2602C82.0455 55.3213 82.0779 56.8011 81.4597 57.5653L71.8422 69.4561C71.5426 69.8265 71.1276 69.9753 70.6901 69.8691C70.2526 69.7629 69.8291 69.4106 69.5144 68.8911L64.638 60.8393C63.9888 59.7674 63.9712 58.2912 64.5987 57.5422C65.2262 56.7932 66.2612 57.0549 66.9104 58.1268L70.5944 64.2098L79.0766 53.7228C79.6947 52.9585 80.7293 53.1991 81.3874 54.2602Z" fill="url(#paint15_linear_198_6968)"/>
<g filter="url(#filter0_d_198_6968)">
<path d="M91.445 46.0174L88.1688 51.2346L92.8302 55.2625L87.613 51.9863L83.585 56.6477L86.8613 51.4305L82.1999 47.4025L87.4171 50.6788L91.445 46.0174Z" fill="white"/>
</g>
<g filter="url(#filter1_d_198_6968)">
<path d="M82.9646 56.2173L81.1719 58.2255L82.8858 60.3013L80.8776 58.5087L78.8018 60.2225L80.5944 58.2143L78.8805 56.1385L80.8887 57.9311L82.9646 56.2173Z" fill="white"/>
</g>
<defs>
<filter id="filter0_d_198_6968" x="66.8665" y="35.4019" width="41.2972" height="41.2976" filterUnits="userSpaceOnUse" color-interpolation-filters="sRGB">
<feFlood flood-opacity="0" result="BackgroundImageFix"/>
<feColorMatrix in="SourceAlpha" type="matrix" values="0 0 0 0 0 0 0 0 0 0 0 0 0 0 0 0 0 0 127 0" result="hardAlpha"/>
<feOffset dy="4.71805"/>
<feGaussianBlur stdDeviation="7.66683"/>
<feComposite in2="hardAlpha" operator="out"/>
<feColorMatrix type="matrix" values="0 0 0 0 1 0 0 0 0 1 0 0 0 0 1 0 0 0 0.83 0"/>
<feBlend mode="normal" in2="BackgroundImageFix" result="effect1_dropShadow_198_6968"/>
<feBlend mode="normal" in="SourceGraphic" in2="effect1_dropShadow_198_6968" result="shape"/>
</filter>
<filter id="filter1_d_198_6968" x="63.4681" y="45.5229" width="34.8304" height="34.83" filterUnits="userSpaceOnUse" color-interpolation-filters="sRGB">
<feFlood flood-opacity="0" result="BackgroundImageFix"/>
<feColorMatrix in="SourceAlpha" type="matrix" values="0 0 0 0 0 0 0 0 0 0 0 0 0 0 0 0 0 0 127 0" result="hardAlpha"/>
<feOffset dy="4.71805"/>
<feGaussianBlur stdDeviation="7.66683"/>
<feComposite in2="hardAlpha" operator="out"/>
<feColorMatrix type="matrix" values="0 0 0 0 1 0 0 0 0 1 0 0 0 0 1 0 0 0 0.83 0"/>
<feBlend mode="normal" in2="BackgroundImageFix" result="effect1_dropShadow_198_6968"/>
<feBlend mode="normal" in="SourceGraphic" in2="effect1_dropShadow_198_6968" result="shape"/>
</filter>
<linearGradient id="paint0_linear_198_6968" x1="103.635" y1="34.8738" x2="86.5551" y2="-6.85892" gradientUnits="userSpaceOnUse">
<stop stop-color="#6CFF54"/>
<stop offset="1" stop-color="#99E941"/>
<stop offset="1" stop-color="#9EFF33"/>
</linearGradient>
<linearGradient id="paint1_linear_198_6968" x1="17.9469" y1="64.7472" x2="0.866613" y2="23.0145" gradientUnits="userSpaceOnUse">
<stop stop-color="#6CFF54"/>
<stop offset="1" stop-color="#99E941"/>
<stop offset="1" stop-color="#9EFF33"/>
</linearGradient>
<linearGradient id="paint2_linear_198_6968" x1="119.772" y1="22.1924" x2="23.2449" y2="108.732" gradientUnits="userSpaceOnUse">
<stop stop-color="#D9D9D9" stop-opacity="0.1"/>
<stop offset="1" stop-color="#D9D9D9" stop-opacity="0"/>
</linearGradient>
<linearGradient id="paint3_linear_198_6968" x1="58.6211" y1="13.1885" x2="58.6211" y2="69.9114" gradientUnits="userSpaceOnUse">
<stop stop-color="#FC6656"/>
<stop offset="1" stop-color="#DE4B3B"/>
</linearGradient>
<linearGradient id="paint4_linear_198_6968" x1="58.514" y1="19.9224" x2="58.514" y2="44.6133" gradientUnits="userSpaceOnUse">
<stop stop-color="#FF8174"/>
<stop offset="1" stop-color="#FF7A6C"/>
</linearGradient>
<linearGradient id="paint5_linear_198_6968" x1="58.514" y1="19.9224" x2="58.514" y2="44.6133" gradientUnits="userSpaceOnUse">
<stop stop-color="#FF8174"/>
<stop offset="1" stop-color="#FF7A6C"/>
</linearGradient>
<linearGradient id="paint6_linear_198_6968" x1="58.514" y1="19.9224" x2="58.514" y2="44.6133" gradientUnits="userSpaceOnUse">
<stop stop-color="#FF8174"/>
<stop offset="1" stop-color="#FF7A6C"/>
</linearGradient>
<linearGradient id="paint7_linear_198_6968" x1="58.514" y1="19.9224" x2="58.514" y2="44.6133" gradientUnits="userSpaceOnUse">
<stop stop-color="#FF8174"/>
<stop offset="1" stop-color="#FF7A6C"/>
</linearGradient>
<linearGradient id="paint8_linear_198_6968" x1="49.3331" y1="44.4832" x2="74.3674" y2="91.5003" gradientUnits="userSpaceOnUse">
<stop stop-color="#338F00"/>
<stop offset="1" stop-color="#62BB00"/>
</linearGradient>
<linearGradient id="paint9_linear_198_6968" x1="44.3126" y1="59.1289" x2="61.6895" y2="30.8632" gradientUnits="userSpaceOnUse">
<stop stop-color="#107000"/>
<stop offset="1" stop-color="#86FF00"/>
</linearGradient>
<linearGradient id="paint10_linear_198_6968" x1="27.1082" y1="121.517" x2="83.8829" y2="38.1845" gradientUnits="userSpaceOnUse">
<stop stop-color="#1BC100"/>
<stop offset="1" stop-color="#73DB00"/>
</linearGradient>
<linearGradient id="paint11_linear_198_6968" x1="37.3686" y1="109.032" x2="82.4933" y2="44.3375" gradientUnits="userSpaceOnUse">
<stop stop-color="#47D131"/>
<stop offset="1" stop-color="#99E941"/>
</linearGradient>
<radialGradient id="paint12_radial_198_6968" cx="0" cy="0" r="1" gradientUnits="userSpaceOnUse" gradientTransform="translate(82.9262 51.5676) rotate(130.113) scale(36.0137 28.7484)">
<stop stop-color="#F4FF78" stop-opacity="0.26"/>
<stop offset="1" stop-color="white" stop-opacity="0"/>
</radialGradient>
<linearGradient id="paint13_linear_198_6968" x1="49.6623" y1="68.3859" x2="94.8111" y2="48.8629" gradientUnits="userSpaceOnUse">
<stop stop-color="#3DA800"/>
<stop offset="1" stop-color="#44BB00" stop-opacity="0"/>
</linearGradient>
<linearGradient id="paint14_linear_198_6968" x1="66.5531" y1="86.092" x2="80.3751" y2="55.7629" gradientUnits="userSpaceOnUse">
<stop stop-color="#1BC100"/>
<stop offset="1" stop-color="#73DB00"/>
</linearGradient>
<linearGradient id="paint15_linear_198_6968" x1="72.9912" y1="51.3752" x2="65.5798" y2="77.0198" gradientUnits="userSpaceOnUse">
<stop stop-color="#BFFF8C"/>
<stop offset="1" stop-color="#8BFF33"/>
</linearGradient>
</defs>
</svg>
