<svg width="106" height="97" viewBox="0 0 106 97" fill="none" xmlns="http://www.w3.org/2000/svg">
<path d="M55.4306 3.03107L102.122 63.438H8.73926L55.4306 3.03107Z" fill="#E1E1E1"/>
<circle cx="53.7954" cy="48.3696" r="48.3696" fill="#1B1F48" fill-opacity="0.63"/>
<path d="M102.166 48.3696C102.166 75.0834 80.5102 96.7393 53.7964 96.7393C27.0826 96.7393 5.42676 75.0834 5.42676 48.3696C5.42676 21.6558 27.0826 0 53.7964 0C80.5102 0 102.166 21.6558 102.166 48.3696Z" fill="url(#paint0_linear_198_7218)"/>
<path d="M25.2425 43.8648L21.7341 49.6325L22.1862 43.7285L25.5188 39.5384L35.6107 49.5151L25.2425 43.8648Z" fill="#D3BF11"/>
<path d="M62.7632 21.4968L56.2109 19.9405L61.9529 18.5543L66.954 20.4288L60.5885 33.0735L62.7632 21.4968Z" fill="#D3BF11"/>
<path d="M79.2927 62.5357L82.3903 56.2197L82.4773 62.3893L79.4135 67.0516L68.0006 57.6485L79.2927 62.5357Z" fill="#D3BF11"/>
<path d="M23.5375 32.9198L20.0617 38.3397L9.75864 33.1529L19.2915 42.5847L24.5363 38.4415L23.5375 32.9198Z" fill="#D3BF11"/>
<path d="M72.6233 16.5132L66.4111 14.8809L68.1659 3.50849L62.1458 15.455L67.6902 19.1587L72.6233 16.5132Z" fill="#D3BF11"/>
<path d="M82.0929 73.7333L85.1896 67.7812L96.3703 72.1936L85.589 63.3034L80.5364 68.0971L82.0929 73.7333Z" fill="#D3BF11"/>
<path d="M21.7136 49.6549L9.51578 33.0286L20.2486 39.6643L23.5537 32.8981L35.7178 49.6083L24.8775 42.9002L21.7136 49.6549Z" fill="#F9E21A"/>
<path d="M56.1843 19.9299L68.2128 3.24246L65.2151 15.4682L72.6525 16.5246L60.5339 33.2058L63.5673 20.8559L56.1843 19.9299Z" fill="#F9E21A"/>
<path d="M82.4063 56.1951L96.6308 72.3005L84.8675 66.4251L82.0749 73.7581L67.8775 57.5625L79.759 63.503L82.4063 56.1951Z" fill="#F9E21A"/>
<path d="M74.232 30.9824C61.6713 31.0987 36.4104 31.3313 35.8521 31.3313C35.6195 34.1226 35.5032 42.3568 36.8988 52.9636C38.2945 63.5704 50.2736 69.4786 56.0888 71.1069C57.3681 70.0601 61.6713 66.7106 68.6495 61.6863C75.6276 56.6621 75.2787 39.1236 74.232 30.9824Z" fill="url(#paint1_linear_198_7218)"/>
<path d="M73.2528 30.6335H37.5246C36.342 30.6394 35.2094 31.1087 34.3731 31.9395C33.5369 32.7704 33.0645 33.8955 33.0586 35.0705V48.093C33.0586 68.5474 50.4984 75.3137 54.0042 76.4673C54.9032 76.7635 55.8743 76.7635 56.7732 76.4673C60.279 75.3137 77.7188 68.5474 77.7188 48.093V35.0705C77.713 33.8955 77.2406 32.7704 76.4043 31.9395C75.568 31.1087 74.4355 30.6394 73.2528 30.6335ZM72.3596 48.093C72.3596 64.3766 58.8499 70.1225 55.3887 71.3205C51.9275 70.1225 38.4178 64.3766 38.4178 48.093V35.9579H72.3596V48.093ZM52.7091 51.931V43.057C52.7091 42.351 52.9914 41.6738 53.4939 41.1746C53.9965 40.6753 54.678 40.3949 55.3887 40.3949C56.0994 40.3949 56.781 40.6753 57.2835 41.1746C57.786 41.6738 58.0683 42.351 58.0683 43.057V51.931C58.0683 52.637 57.786 53.3141 57.2835 53.8134C56.781 54.3126 56.0994 54.5931 55.3887 54.5931C54.678 54.5931 53.9965 54.3126 53.4939 53.8134C52.9914 53.3141 52.7091 52.637 52.7091 51.931ZM52.8654 63.3118C52.5325 62.9835 52.2683 62.5929 52.0882 62.1626C51.908 61.7324 51.8155 61.2709 51.8159 60.8049C51.8159 59.8635 52.1923 58.9606 52.8624 58.2949C53.5324 57.6293 54.4411 57.2553 55.3887 57.2553C56.3363 57.2553 57.245 57.6293 57.9151 58.2949C58.5851 58.9606 58.9615 59.8635 58.9615 60.8049C58.9615 61.7463 58.5851 62.6491 57.9151 63.3148C57.245 63.9805 56.3363 64.3544 55.3887 64.3544C54.9196 64.3549 54.4551 64.2629 54.022 64.084C53.5889 63.905 53.1958 63.6425 52.8654 63.3118Z" fill="#29A35D"/>
<path d="M73.2528 27.8422H37.5246C36.342 27.848 35.2094 28.3173 34.3731 29.1482C33.5369 29.979 33.0645 31.1042 33.0586 32.2791V45.3016C33.0586 65.756 50.4984 72.5223 54.0042 73.676C54.9032 73.9721 55.8743 73.9721 56.7732 73.676C60.279 72.5223 77.7188 65.756 77.7188 45.3016V32.2791C77.713 31.1042 77.2406 29.979 76.4043 29.1482C75.568 28.3173 74.4355 27.848 73.2528 27.8422ZM72.3596 45.3016C72.3596 61.5852 58.8499 67.3311 55.3887 68.5291C51.9275 67.3311 38.4178 61.5852 38.4178 45.3016V33.1665H72.3596V45.3016ZM52.7091 49.1396V40.2656C52.7091 39.5596 52.9914 38.8825 53.4939 38.3832C53.9965 37.884 54.678 37.6035 55.3887 37.6035C56.0994 37.6035 56.781 37.884 57.2835 38.3832C57.786 38.8825 58.0683 39.5596 58.0683 40.2656V49.1396C58.0683 49.8456 57.786 50.5228 57.2835 51.022C56.781 51.5213 56.0994 51.8017 55.3887 51.8017C54.678 51.8017 53.9965 51.5213 53.4939 51.022C52.9914 50.5228 52.7091 49.8456 52.7091 49.1396ZM52.8654 60.5204C52.5325 60.1921 52.2683 59.8015 52.0882 59.3713C51.908 58.941 51.8155 58.4795 51.8159 58.0135C51.8159 57.0721 52.1923 56.1692 52.8624 55.5036C53.5324 54.8379 54.4411 54.4639 55.3887 54.4639C56.3363 54.4639 57.245 54.8379 57.9151 55.5036C58.5851 56.1692 58.9615 57.0721 58.9615 58.0135C58.9615 58.9549 58.5851 59.8577 57.9151 60.5234C57.245 61.1891 56.3363 61.5631 55.3887 61.5631C54.9196 61.5635 54.4551 61.4715 54.022 61.2926C53.5889 61.1136 53.1958 60.8512 52.8654 60.5204Z" fill="url(#paint2_linear_198_7218)"/>
<path d="M73.2528 27.8422H37.5246C36.342 27.848 35.2094 28.3173 34.3731 29.1482C33.5369 29.979 33.0645 31.1042 33.0586 32.2791V45.3016C33.0586 65.756 50.4984 72.5223 54.0042 73.676C54.9032 73.9721 55.8743 73.9721 56.7732 73.676C60.279 72.5223 77.7188 65.756 77.7188 45.3016V32.2791C77.713 31.1042 77.2406 29.979 76.4043 29.1482C75.568 28.3173 74.4355 27.848 73.2528 27.8422ZM72.3596 45.3016C72.3596 61.5852 58.8499 67.3311 55.3887 68.5291C51.9275 67.3311 38.4178 61.5852 38.4178 45.3016V33.1665H72.3596V45.3016ZM52.7091 49.1396V40.2656C52.7091 39.5596 52.9914 38.8825 53.4939 38.3832C53.9965 37.884 54.678 37.6035 55.3887 37.6035C56.0994 37.6035 56.781 37.884 57.2835 38.3832C57.786 38.8825 58.0683 39.5596 58.0683 40.2656V49.1396C58.0683 49.8456 57.786 50.5228 57.2835 51.022C56.781 51.5213 56.0994 51.8017 55.3887 51.8017C54.678 51.8017 53.9965 51.5213 53.4939 51.022C52.9914 50.5228 52.7091 49.8456 52.7091 49.1396ZM52.8654 60.5204C52.5325 60.1921 52.2683 59.8015 52.0882 59.3713C51.908 58.941 51.8155 58.4795 51.8159 58.0135C51.8159 57.0721 52.1923 56.1692 52.8624 55.5036C53.5324 54.8379 54.4411 54.4639 55.3887 54.4639C56.3363 54.4639 57.245 54.8379 57.9151 55.5036C58.5851 56.1692 58.9615 57.0721 58.9615 58.0135C58.9615 58.9549 58.5851 59.8577 57.9151 60.5234C57.245 61.1891 56.3363 61.5631 55.3887 61.5631C54.9196 61.5635 54.4551 61.4715 54.022 61.2926C53.5889 61.1136 53.1958 60.8512 52.8654 60.5204Z" fill="#33E47E"/>
<path d="M90.2478 7.32229C90.157 6.52627 91.009 5.96445 91.7049 6.36136L95.127 8.31301C95.3075 8.41597 95.5162 8.45878 95.7227 8.43525L99.6368 7.98917C100.433 7.89845 100.995 8.75041 100.598 9.44636L98.6461 12.8684C98.5431 13.049 98.5003 13.2576 98.5238 13.4641L98.9699 17.3782C99.0606 18.1742 98.2087 18.736 97.5127 18.3391L94.0907 16.3875C93.9101 16.2845 93.7015 16.2417 93.495 16.2652L89.5809 16.7113C88.7849 16.802 88.223 15.9501 88.62 15.2541L90.5716 11.8321C90.6746 11.6515 90.7174 11.4429 90.6938 11.2364L90.2478 7.32229Z" fill="url(#paint3_linear_198_7218)"/>
<path d="M5.52218 68.716C5.43146 67.9199 6.28341 67.3581 6.97936 67.755L10.4014 69.7067C10.582 69.8096 10.7906 69.8525 10.9971 69.8289L14.9112 69.3828C15.7072 69.2921 16.269 70.1441 15.8721 70.84L13.9205 74.2621C13.8175 74.4426 13.7747 74.6512 13.7982 74.8577L14.2443 78.7719C14.335 79.5679 13.4831 80.1297 12.7871 79.7328L9.36508 77.7812C9.18454 77.6782 8.97592 77.6354 8.76943 77.6589L4.8553 78.105C4.05927 78.1957 3.49746 77.3438 3.89437 76.6478L5.84601 73.2257C5.94897 73.0452 5.99179 72.8366 5.96825 72.6301L5.52218 68.716Z" fill="url(#paint4_linear_198_7218)"/>
<ellipse cx="104.461" cy="49.8129" rx="1.10178" ry="1.03292" transform="rotate(-103.942 104.461 49.8129)" fill="white"/>
<ellipse cx="19.7557" cy="16.1942" rx="2.28293" ry="2.14025" transform="rotate(-103.942 19.7557 16.1942)" fill="white"/>
<defs>
<linearGradient id="paint0_linear_198_7218" x1="115.6" y1="-17.8029" x2="-10.6503" y2="58.1008" gradientUnits="userSpaceOnUse">
<stop stop-color="#D9D9D9" stop-opacity="0.1"/>
<stop offset="1" stop-color="#D9D9D9" stop-opacity="0"/>
</linearGradient>
<linearGradient id="paint1_linear_198_7218" x1="58.188" y1="18.0094" x2="25.2245" y2="49.8047" gradientUnits="userSpaceOnUse">
<stop stop-color="#07EE7F"/>
<stop offset="1" stop-color="#4B7B20"/>
</linearGradient>
<linearGradient id="paint2_linear_198_7218" x1="43.8082" y1="68.5582" x2="50.4412" y2="20.8218" gradientUnits="userSpaceOnUse">
<stop stop-color="#F05544"/>
<stop offset="1" stop-color="#FF8375"/>
</linearGradient>
<linearGradient id="paint3_linear_198_7218" x1="102.015" y1="30.7054" x2="85.4912" y2="-9.66656" gradientUnits="userSpaceOnUse">
<stop stop-color="#6CFF54"/>
<stop offset="1" stop-color="#99E941"/>
<stop offset="1" stop-color="#9EFF33"/>
</linearGradient>
<linearGradient id="paint4_linear_198_7218" x1="17.289" y1="92.099" x2="0.765612" y2="51.7271" gradientUnits="userSpaceOnUse">
<stop stop-color="#6CFF54"/>
<stop offset="1" stop-color="#99E941"/>
<stop offset="1" stop-color="#9EFF33"/>
</linearGradient>
</defs>
</svg>
