<svg width="102" height="98" viewBox="0 0 102 98" fill="none" xmlns="http://www.w3.org/2000/svg">
<g filter="url(#filter0_f_47_1420)">
<circle cx="34.9064" cy="30.0175" r="12.2049" fill="#252734" fill-opacity="0.41"/>
</g>
<g filter="url(#filter1_f_47_1420)">
<circle cx="61.6251" cy="57.3959" r="23.75" fill="#252734" fill-opacity="0.41"/>
</g>
<circle cx="47.1112" cy="48.8196" r="46.1805" fill="white" fill-opacity="0.05"/>
<path d="M21.9711 56.6942C21.9711 54.8306 23.4667 53.3199 25.3117 53.3199H73.4857C75.3306 53.3199 76.8262 54.8306 76.8262 56.6942V63.6202H21.9711V56.6942Z" fill="url(#paint0_linear_47_1420)"/>
<path fill-rule="evenodd" clip-rule="evenodd" d="M1.37342 55.2403C4.51085 32.6031 23.9405 15.1738 47.441 15.1738C70.1133 15.1738 88.9967 31.3963 93.1168 52.867C91.0668 76.4763 71.2522 95 47.1112 95C23.7852 95 4.4984 77.7059 1.37342 55.2403Z" fill="url(#paint1_linear_47_1420)" fill-opacity="0.15"/>
<path d="M64.5303 3.96881C64.524 3.20392 65.3893 2.756 66.0102 3.20268L69.0635 5.39909C69.2246 5.51496 69.4183 5.57654 69.6167 5.57492L73.3778 5.54418C74.1427 5.53793 74.5906 6.4032 74.1439 7.02414L71.9475 10.0774C71.8317 10.2385 71.7701 10.4322 71.7717 10.6307L71.8024 14.3917C71.8087 15.1566 70.9434 15.6045 70.3225 15.1578L67.2692 12.9614C67.1082 12.8456 66.9144 12.784 66.716 12.7856L62.9549 12.8163C62.19 12.8226 61.7421 11.9573 62.1888 11.3364L64.3852 8.28313C64.5011 8.12206 64.5626 7.92828 64.561 7.72986L64.5303 3.96881Z" fill="url(#paint2_linear_47_1420)"/>
<ellipse cx="88.0783" cy="25.7171" rx="2.17961" ry="2.04339" transform="rotate(-27.3691 88.0783 25.7171)" fill="white"/>
<path d="M7.52676 63.9223C7.89431 63.5126 8.57145 63.6941 8.68495 64.2326L9.24301 66.8806C9.27245 67.0203 9.3456 67.147 9.45186 67.2423L11.4661 69.0496C11.8757 69.4172 11.6942 70.0943 11.1557 70.2078L8.50773 70.7659C8.36803 70.7953 8.24133 70.8685 8.14599 70.9747L6.3387 72.9889C5.97115 73.3986 5.294 73.2171 5.18051 72.6786L4.62245 70.0306C4.59301 69.8909 4.51986 69.7642 4.4136 69.6689L2.3994 67.8616C1.98977 67.494 2.17121 66.8169 2.70974 66.7034L5.35773 66.1453C5.49743 66.1159 5.62412 66.0427 5.71947 65.9365L7.52676 63.9223Z" fill="url(#paint3_linear_47_1420)"/>
<ellipse cx="7.37951" cy="45.4799" rx="0.989248" ry="0.92742" transform="rotate(-27.3691 7.37951 45.4799)" fill="#FFBCEB"/>
<path d="M67.2958 52.9593C67.2958 62.4475 59.6041 70.1391 50.1159 70.1391C40.6277 70.1391 32.936 62.4475 32.936 52.9593C32.936 43.4711 40.6277 35.7794 50.1159 35.7794C59.6041 35.7794 67.2958 43.4711 67.2958 52.9593Z" fill="url(#paint4_linear_47_1420)"/>
<path d="M67.2958 52.9593C67.2958 62.4475 59.6041 70.1391 50.1159 70.1391C40.6277 70.1391 32.936 62.4475 32.936 52.9593C32.936 43.4711 40.6277 35.7794 50.1159 35.7794C59.6041 35.7794 67.2958 43.4711 67.2958 52.9593Z" fill="url(#paint5_linear_47_1420)"/>
<path fill-rule="evenodd" clip-rule="evenodd" d="M68.2 52.9594C68.2 62.947 60.1035 71.0435 50.1159 71.0435C40.1284 71.0435 32.0319 62.947 32.0319 52.9594C32.0319 42.9719 40.1284 34.8754 50.1159 34.8754C60.1035 34.8754 68.2 42.9719 68.2 52.9594ZM50.1159 70.1393C59.6041 70.1393 67.2958 62.4476 67.2958 52.9594C67.2958 43.4713 59.6041 35.7796 50.1159 35.7796C40.6277 35.7796 32.9361 43.4713 32.9361 52.9594C32.9361 62.4476 40.6277 70.1393 50.1159 70.1393Z" fill="url(#paint6_linear_47_1420)"/>
<circle cx="50.1159" cy="52.9593" r="13.563" fill="#252734"/>
<circle cx="50.1159" cy="52.9593" r="13.563" fill="url(#paint7_linear_47_1420)"/>
<path d="M55.2275 49.8162C55.3445 50.9998 54.9185 51.8388 53.9495 52.333C54.7104 52.5151 55.2795 52.85 55.6567 53.3378C56.0339 53.8256 56.1802 54.5214 56.0957 55.4254C56.0501 55.8871 55.9445 56.2936 55.7786 56.6448C55.6128 56.996 55.403 57.2854 55.1494 57.513C54.8958 57.7406 54.5804 57.9309 54.2032 58.0837C53.826 58.2365 53.4309 58.3487 53.0179 58.4202C52.6049 58.4918 52.1318 58.5406 51.5985 58.5666V61.0541H50.0962V58.6056C49.576 58.6056 49.1793 58.6023 48.9061 58.5958V61.0541H47.4038V58.5666C47.2867 58.5666 47.1112 58.5649 46.877 58.5617C46.6429 58.5584 46.4641 58.5568 46.3405 58.5568H44.3895L44.6919 56.7716H45.7747C46.0999 56.7716 46.2885 56.6058 46.3405 56.2741V52.3525H46.4966C46.4576 52.346 46.4055 52.3428 46.3405 52.3428V49.543C46.256 49.1008 45.9666 48.8797 45.4723 48.8797H44.3895V47.2798L46.4576 47.2896C46.8738 47.2896 47.1892 47.2863 47.4038 47.2798V44.8215H48.9061V47.2311C49.4394 47.2181 49.8361 47.2115 50.0962 47.2115V44.8215H51.5985V47.2798C52.1123 47.3254 52.5675 47.3985 52.9643 47.4993C53.361 47.6001 53.7284 47.7465 54.0666 47.9383C54.4048 48.1302 54.673 48.3838 54.8714 48.6992C55.0697 49.0146 55.1884 49.387 55.2275 49.8162ZM53.1301 55.1327C53.1301 54.8986 53.0813 54.6905 52.9838 54.5084C52.8862 54.3263 52.7659 54.1767 52.6228 54.0597C52.4798 53.9426 52.2928 53.8434 52.0619 53.7621C51.831 53.6809 51.618 53.6207 51.4229 53.5817C51.2278 53.5427 50.9872 53.5134 50.7011 53.4939C50.4149 53.4744 50.1905 53.4646 50.028 53.4646C49.8654 53.4646 49.6556 53.4679 49.3987 53.4744C49.1419 53.4809 48.9874 53.4841 48.9354 53.4841V56.7814C48.9874 56.7814 49.1077 56.783 49.2963 56.7862C49.4849 56.7895 49.641 56.7911 49.7646 56.7911C49.8881 56.7911 50.0605 56.7862 50.2816 56.7765C50.5027 56.7667 50.6929 56.7537 50.8523 56.7375C51.0116 56.7212 51.1969 56.6936 51.4083 56.6546C51.6197 56.6155 51.8001 56.57 51.9497 56.518C52.0993 56.466 52.2538 56.3977 52.4131 56.3131C52.5724 56.2286 52.7009 56.131 52.7984 56.0205C52.896 55.9099 52.9756 55.7798 53.0374 55.6303C53.0992 55.4807 53.1301 55.3148 53.1301 55.1327ZM52.4375 50.4893C52.4375 50.2747 52.3968 50.0844 52.3155 49.9186C52.2342 49.7528 52.1351 49.6162 52.018 49.5089C51.9009 49.4016 51.7449 49.3105 51.5498 49.2357C51.3547 49.161 51.1758 49.1073 51.0132 49.0748C50.8506 49.0423 50.6507 49.0163 50.4133 48.9967C50.1759 48.9772 49.9873 48.9691 49.8475 48.9724C49.7077 48.9756 49.5321 48.9789 49.3207 48.9821C49.1093 48.9854 48.9809 48.987 48.9354 48.987V51.9818C48.9679 51.9818 49.0801 51.9835 49.2719 51.9867C49.4638 51.99 49.615 51.99 49.7255 51.9867C49.8361 51.9835 49.9987 51.9769 50.2133 51.9672C50.4279 51.9574 50.6068 51.9396 50.7498 51.9135C50.8929 51.8875 51.0604 51.8518 51.2522 51.8062C51.4441 51.7607 51.6018 51.7006 51.7254 51.6258C51.8489 51.551 51.9692 51.4632 52.0863 51.3624C52.2034 51.2616 52.2912 51.1364 52.3497 50.9868C52.4082 50.8372 52.4375 50.6714 52.4375 50.4893Z" fill="url(#paint8_linear_47_1420)"/>
<path d="M35.9118 23.759C37.7135 28.5196 35.3149 33.8393 30.5544 35.641C25.7939 37.4427 20.4742 35.0441 18.6724 30.2836C16.8707 25.5231 19.2693 20.2034 24.0298 18.4016C28.7904 16.5999 34.1101 18.9985 35.9118 23.759Z" fill="url(#paint9_linear_47_1420)"/>
<path d="M35.9118 23.759C37.7135 28.5196 35.3149 33.8393 30.5544 35.641C25.7939 37.4427 20.4742 35.0441 18.6724 30.2836C16.8707 25.5231 19.2693 20.2034 24.0298 18.4016C28.7904 16.5999 34.1101 18.9985 35.9118 23.759Z" fill="url(#paint10_linear_47_1420)"/>
<path fill-rule="evenodd" clip-rule="evenodd" d="M36.3655 23.5873C38.262 28.5984 35.7372 34.1981 30.7261 36.0947C25.7151 37.9912 20.1153 35.4664 18.2188 30.4553C16.3222 25.4442 18.8471 19.8445 23.8581 17.948C28.8692 16.0514 34.4689 18.5763 36.3655 23.5873ZM30.5544 35.641C35.3149 33.8393 37.7135 28.5195 35.9118 23.759C34.1101 18.9985 28.7904 16.5999 24.0298 18.4016C19.2693 20.2033 16.8707 25.5231 18.6724 30.2836C20.4742 35.0441 25.7939 37.4427 30.5544 35.641Z" fill="url(#paint11_linear_47_1420)"/>
<circle cx="27.2922" cy="27.0213" r="7.27608" transform="rotate(-20.7301 27.2922 27.0213)" fill="#252734"/>
<circle cx="27.2922" cy="27.0213" r="7.27608" transform="rotate(-20.7301 27.2922 27.0213)" fill="url(#paint12_linear_47_1420)"/>
<path d="M29.2599 24.4739C29.5434 25.0456 29.489 25.5474 29.0967 25.9794C29.513 25.9263 29.8621 25.9862 30.144 26.1593C30.4259 26.3324 30.6314 26.6538 30.7607 27.1234C30.8255 27.3637 30.8497 27.5877 30.8331 27.7954C30.8166 28.0031 30.7664 28.1881 30.6823 28.3505C30.5983 28.5129 30.4762 28.6682 30.3159 28.8165C30.1557 28.9648 29.9788 29.0961 29.7851 29.2104C29.5915 29.3248 29.3634 29.4391 29.1008 29.5534L29.5732 30.8015L28.8194 31.0868L28.3544 29.8582C28.0934 29.957 27.8938 30.0307 27.7555 30.0793L28.2223 31.3127L27.4685 31.598L26.9962 30.3499C26.9374 30.3722 26.849 30.4047 26.7309 30.4475C26.6129 30.4903 26.5228 30.5235 26.4608 30.5469L25.4819 30.9174L25.2947 29.9643L25.8379 29.7587C26.0011 29.6969 26.0642 29.5779 26.0273 29.4016L25.2827 27.4341L25.361 27.4044C25.3402 27.4086 25.3135 27.4168 25.2808 27.4292L24.7492 26.0244C24.6228 25.8186 24.4356 25.7626 24.1876 25.8565L23.6443 26.0621L23.3405 25.2594L24.38 24.8716C24.5888 24.7926 24.7465 24.731 24.8529 24.687L24.3861 23.4536L25.1399 23.1683L25.5974 24.3773C25.8625 24.2695 26.0603 24.1909 26.1908 24.1415L25.737 22.9423L26.4907 22.6571L26.9575 23.8905C27.224 23.8158 27.4663 23.766 27.6845 23.7413C27.9026 23.7165 28.1148 23.7202 28.3209 23.7522C28.527 23.7842 28.7098 23.8605 28.8692 23.9811C29.0286 24.1017 29.1588 24.266 29.2599 24.4739ZM29.2172 27.5397C29.1727 27.4222 29.1087 27.3271 29.0252 27.2542C28.9417 27.1814 28.8529 27.1292 28.7589 27.0976C28.6649 27.0661 28.5522 27.0518 28.421 27.0549C28.2897 27.0579 28.1714 27.0682 28.0661 27.0857C27.9608 27.1031 27.8345 27.1341 27.6872 27.1787C27.54 27.2232 27.4255 27.2609 27.344 27.2918C27.2624 27.3227 27.1578 27.3641 27.0301 27.4162C26.9025 27.4682 26.8256 27.4992 26.7995 27.5091L27.4256 29.1634C27.4517 29.1535 27.5124 29.1315 27.6076 29.0973C27.7029 29.0631 27.7815 29.0343 27.8435 29.0108C27.9055 28.9874 27.991 28.9522 28.1001 28.9053C28.2092 28.8584 28.3022 28.8158 28.379 28.7774C28.4559 28.739 28.5436 28.6899 28.6423 28.6302C28.7409 28.5705 28.8228 28.5134 28.888 28.4589C28.9532 28.4044 29.0177 28.3408 29.0816 28.2681C29.1455 28.1954 29.1914 28.1221 29.2193 28.0481C29.2473 27.9741 29.2626 27.8937 29.2651 27.8069C29.2677 27.7201 29.2518 27.6311 29.2172 27.5397ZM27.9879 25.3415C27.9472 25.2338 27.8906 25.1461 27.8184 25.0783C27.7461 25.0105 27.6704 24.9608 27.5913 24.9292C27.5122 24.8976 27.4166 24.8816 27.3045 24.8811C27.1924 24.8806 27.0925 24.8876 27.0047 24.9022C26.917 24.9168 26.8117 24.9417 26.6889 24.977C26.5661 25.0123 26.4699 25.044 26.4004 25.0722C26.3308 25.1004 26.2434 25.1353 26.1379 25.1771C26.0325 25.2189 25.9684 25.2441 25.9455 25.2527L26.5142 26.7553C26.5305 26.7491 26.5871 26.7287 26.684 26.6939C26.7809 26.6591 26.8567 26.6304 26.9116 26.6077C26.9664 26.5851 27.0468 26.551 27.1526 26.5053C27.2584 26.4597 27.3448 26.4167 27.4116 26.3765C27.4785 26.3363 27.5557 26.2865 27.6433 26.2273C27.7309 26.168 27.7986 26.1079 27.8464 26.0469C27.8942 25.9859 27.9379 25.919 27.9775 25.8462C28.0171 25.7734 28.0374 25.6939 28.0383 25.6077C28.0393 25.5216 28.0225 25.4328 27.9879 25.3415Z" fill="url(#paint13_linear_47_1420)"/>
<rect x="60.3057" y="68.6113" width="16.493" height="16.493" fill="#355A3E"/>
<path d="M25.3117 57.1523C23.4667 57.1523 21.9711 58.6498 21.9711 60.497V91.6553C21.9711 93.5025 23.4667 95 25.3117 95H73.4857C75.3306 95 76.8262 93.5025 76.8262 91.6553V84.0858H68.5628C64.5817 84.0858 61.3543 80.8544 61.3543 76.8683C61.3543 72.8822 64.5817 69.6509 68.5628 69.6509H76.8262V60.497C76.8262 58.6498 75.3306 57.1523 73.4857 57.1523H25.3117Z" fill="#D9D9D9"/>
<path d="M25.3117 57.1523C23.4667 57.1523 21.9711 58.6498 21.9711 60.497V91.6553C21.9711 93.5025 23.4667 95 25.3117 95H73.4857C75.3306 95 76.8262 93.5025 76.8262 91.6553V84.0858H68.5628C64.5817 84.0858 61.3543 80.8544 61.3543 76.8683C61.3543 72.8822 64.5817 69.6509 68.5628 69.6509H76.8262V60.497C76.8262 58.6498 75.3306 57.1523 73.4857 57.1523H25.3117Z" fill="url(#paint14_linear_47_1420)"/>
<path d="M63.8908 76.9147C63.8908 73.9381 66.3039 71.525 69.2805 71.525H79.1771C79.3339 71.525 79.461 71.6521 79.461 71.8089V82.0205C79.461 82.1773 79.3339 82.3044 79.1771 82.3044H69.2805C66.3039 82.3044 63.8908 79.8914 63.8908 76.9147V76.9147Z" fill="#B7B7B7"/>
<path d="M63.8908 76.9147C63.8908 73.9381 66.3039 71.525 69.2805 71.525H79.1771C79.3339 71.525 79.461 71.6521 79.461 71.8089V82.0205C79.461 82.1773 79.3339 82.3044 79.1771 82.3044H69.2805C66.3039 82.3044 63.8908 79.8914 63.8908 76.9147V76.9147Z" fill="url(#paint15_linear_47_1420)"/>
<rect x="15.264" y="39.6659" width="9.10259" height="9.10259" rx="3.63095" fill="#D9D9D9"/>
<rect x="15.264" y="39.6659" width="9.10259" height="9.10259" rx="3.63095" fill="url(#paint16_linear_47_1420)"/>
<path d="M19.3445 46.2533V44.5681H17.6594V43.7297H19.3445V42.0613H20.1829V43.7297H21.8513V44.5681H20.1829V46.2533H19.3445Z" fill="white"/>
<path d="M46.7759 24.8129L47.4769 23.2804L45.9445 22.5794L46.2932 21.817L47.8257 22.518L48.5197 21.0008L49.2821 21.3496L48.5881 22.8668L50.1053 23.5608L49.7566 24.3232L48.2393 23.6292L47.5384 25.1616L46.7759 24.8129Z" fill="url(#paint17_linear_47_1420)"/>
<path d="M62.969 95C34.9203 94.7369 23.9987 71.6673 22.0418 60.0348L22.0043 60.024C21.9824 60.1786 21.9711 60.3365 21.9711 60.497V91.6553C21.9711 93.5025 23.4667 95 25.3117 95H62.969Z" fill="url(#paint18_linear_47_1420)"/>
<circle cx="69.8716" cy="76.8579" r="2.96875" fill="#D9D9D9"/>
<circle cx="69.8716" cy="76.8579" r="2.96875" fill="url(#paint19_linear_47_1420)"/>
<path d="M44.4723 57.1963H54.3681V94.9999H44.4723V57.1963Z" fill="url(#paint20_linear_47_1420)"/>
<path d="M39.8543 57.1963L42.8231 57.1963V94.9999L39.8543 94.9998V57.1963Z" fill="url(#paint21_linear_47_1420)"/>
<path d="M3.95553 34.1906L44.5317 2.75088C45.6018 2.67673 46.682 2.63904 47.771 2.63904C54.269 2.63904 60.4536 3.98114 66.0627 6.40326L2.13544 55.9362C1.77663 53.6165 1.59045 51.2398 1.59045 48.8196C1.59045 43.7066 2.42137 38.7878 3.95553 34.1906Z" fill="url(#paint22_linear_47_1420)"/>
<path d="M71.6892 9.33385L15.983 52.4969L13.8506 49.7449L68.3728 7.49927C69.5056 8.06637 70.6119 8.67868 71.6892 9.33385Z" fill="url(#paint23_linear_47_1420)"/>
<defs>
<filter id="filter0_f_47_1420" x="6.70154" y="1.81262" width="56.4097" height="56.4097" filterUnits="userSpaceOnUse" color-interpolation-filters="sRGB">
<feFlood flood-opacity="0" result="BackgroundImageFix"/>
<feBlend mode="normal" in="SourceGraphic" in2="BackgroundImageFix" result="shape"/>
<feGaussianBlur stdDeviation="8" result="effect1_foregroundBlur_47_1420"/>
</filter>
<filter id="filter1_f_47_1420" x="21.8751" y="17.6459" width="79.4999" height="79.5" filterUnits="userSpaceOnUse" color-interpolation-filters="sRGB">
<feFlood flood-opacity="0" result="BackgroundImageFix"/>
<feBlend mode="normal" in="SourceGraphic" in2="BackgroundImageFix" result="shape"/>
<feGaussianBlur stdDeviation="8" result="effect1_foregroundBlur_47_1420"/>
</filter>
<linearGradient id="paint0_linear_47_1420" x1="42.1208" y1="67.4852" x2="42.9151" y2="43.7767" gradientUnits="userSpaceOnUse">
<stop stop-color="#279315"/>
<stop offset="1" stop-color="#99E941"/>
</linearGradient>
<linearGradient id="paint1_linear_47_1420" x1="23.4558" y1="85.7448" x2="33.2092" y2="2.55163" gradientUnits="userSpaceOnUse">
<stop stop-color="#F05544"/>
<stop offset="1" stop-color="#FF8375"/>
</linearGradient>
<linearGradient id="paint2_linear_47_1420" x1="73.3558" y1="27.3508" x2="61.719" y2="-12.6386" gradientUnits="userSpaceOnUse">
<stop stop-color="#6CFF54"/>
<stop offset="1" stop-color="#99E941"/>
<stop offset="1" stop-color="#9EFF33"/>
</linearGradient>
<linearGradient id="paint3_linear_47_1420" x1="3.50352" y1="71.4338" x2="7.45953" y2="61.9645" gradientUnits="userSpaceOnUse">
<stop stop-color="#F05544"/>
<stop offset="1" stop-color="#FF8375"/>
</linearGradient>
<linearGradient id="paint4_linear_47_1420" x1="50.1159" y1="35.7794" x2="50.1159" y2="70.1391" gradientUnits="userSpaceOnUse">
<stop stop-color="#DB3825"/>
<stop offset="1" stop-color="#7A1B10"/>
</linearGradient>
<linearGradient id="paint5_linear_47_1420" x1="42.5815" y1="35.6338" x2="24.9142" y2="62.7586" gradientUnits="userSpaceOnUse">
<stop stop-color="#F0DA15"/>
<stop offset="0.835592" stop-color="#D86800"/>
</linearGradient>
<linearGradient id="paint6_linear_47_1420" x1="42.185" y1="34.7221" x2="23.5878" y2="63.2745" gradientUnits="userSpaceOnUse">
<stop stop-color="#FFF494"/>
<stop offset="0.63021" stop-color="#FFD4AD"/>
</linearGradient>
<linearGradient id="paint7_linear_47_1420" x1="44.1677" y1="39.2813" x2="30.2198" y2="60.6956" gradientUnits="userSpaceOnUse">
<stop stop-color="#FFEB3C"/>
<stop offset="1" stop-color="#FF881B"/>
</linearGradient>
<linearGradient id="paint8_linear_47_1420" x1="50.2542" y1="44.8215" x2="50.2542" y2="61.0541" gradientUnits="userSpaceOnUse">
<stop stop-color="white" stop-opacity="0.87"/>
<stop offset="0.770302" stop-color="white" stop-opacity="0.554176"/>
<stop offset="1" stop-color="white" stop-opacity="0.46"/>
</linearGradient>
<linearGradient id="paint9_linear_47_1420" x1="24.0298" y1="18.4016" x2="30.5544" y2="35.641" gradientUnits="userSpaceOnUse">
<stop stop-color="#DB3825"/>
<stop offset="1" stop-color="#7A1B10"/>
</linearGradient>
<linearGradient id="paint10_linear_47_1420" x1="20.222" y1="19.7593" x2="16.5084" y2="36.7235" gradientUnits="userSpaceOnUse">
<stop stop-color="#F0DA15"/>
<stop offset="0.835592" stop-color="#D86800"/>
</linearGradient>
<linearGradient id="paint11_linear_47_1420" x1="19.8499" y1="19.3771" x2="15.9409" y2="37.2341" gradientUnits="userSpaceOnUse">
<stop stop-color="#FFF494"/>
<stop offset="0.63021" stop-color="#FFD4AD"/>
</linearGradient>
<linearGradient id="paint12_linear_47_1420" x1="24.1012" y1="19.6835" x2="16.6187" y2="31.1715" gradientUnits="userSpaceOnUse">
<stop stop-color="#FFEB3C"/>
<stop offset="1" stop-color="#FF881B"/>
</linearGradient>
<linearGradient id="paint13_linear_47_1420" x1="25.8162" y1="22.9123" x2="28.8986" y2="31.0568" gradientUnits="userSpaceOnUse">
<stop stop-color="white" stop-opacity="0.87"/>
<stop offset="0.770302" stop-color="white" stop-opacity="0.554176"/>
<stop offset="1" stop-color="white" stop-opacity="0.46"/>
</linearGradient>
<linearGradient id="paint14_linear_47_1420" x1="42.1208" y1="109.201" x2="52.6968" y2="23.2907" gradientUnits="userSpaceOnUse">
<stop stop-color="#47D131"/>
<stop offset="1" stop-color="#99E941"/>
</linearGradient>
<linearGradient id="paint15_linear_47_1420" x1="69.6101" y1="86.3491" x2="72.6323" y2="61.8834" gradientUnits="userSpaceOnUse">
<stop stop-color="#55FF3A"/>
<stop offset="1" stop-color="#65AF13"/>
</linearGradient>
<linearGradient id="paint16_linear_47_1420" x1="18.6076" y1="52.184" x2="22.2347" y2="31.856" gradientUnits="userSpaceOnUse">
<stop stop-color="#47D131"/>
<stop offset="1" stop-color="#99E941"/>
</linearGradient>
<linearGradient id="paint17_linear_47_1420" x1="45.9895" y1="26.1828" x2="51.4026" y2="18.3644" gradientUnits="userSpaceOnUse">
<stop stop-color="#47D131"/>
<stop offset="1" stop-color="#99E941"/>
</linearGradient>
<linearGradient id="paint18_linear_47_1420" x1="35.9668" y1="108.37" x2="47.5358" y2="27.9386" gradientUnits="userSpaceOnUse">
<stop stop-color="#36BF20"/>
<stop offset="1" stop-color="#99E941"/>
</linearGradient>
<linearGradient id="paint19_linear_47_1420" x1="68.9298" y1="82.0964" x2="71.2146" y2="68.5451" gradientUnits="userSpaceOnUse">
<stop stop-color="#2AAD15"/>
<stop offset="1" stop-color="#6BCC00"/>
</linearGradient>
<linearGradient id="paint20_linear_47_1420" x1="49.4202" y1="57.396" x2="49.4202" y2="95.0002" gradientUnits="userSpaceOnUse">
<stop stop-color="white" stop-opacity="0.25"/>
<stop offset="1" stop-color="white" stop-opacity="0"/>
</linearGradient>
<linearGradient id="paint21_linear_47_1420" x1="44.8022" y1="57.396" x2="44.8022" y2="95.0002" gradientUnits="userSpaceOnUse">
<stop stop-color="white" stop-opacity="0.25"/>
<stop offset="1" stop-color="white" stop-opacity="0"/>
</linearGradient>
<linearGradient id="paint22_linear_47_1420" x1="75.0161" y1="-7.16921" x2="0.0919676" y2="47.3211" gradientUnits="userSpaceOnUse">
<stop stop-color="#D9D9D9" stop-opacity="0.1"/>
<stop offset="1" stop-color="#D9D9D9" stop-opacity="0"/>
</linearGradient>
<linearGradient id="paint23_linear_47_1420" x1="104.986" y1="-7.1692" x2="30.0615" y2="47.3211" gradientUnits="userSpaceOnUse">
<stop stop-color="#D9D9D9" stop-opacity="0.1"/>
<stop offset="1" stop-color="#D9D9D9" stop-opacity="0"/>
</linearGradient>
</defs>
</svg>
