<svg width="35" height="23" viewBox="0 0 35 23" fill="none" xmlns="http://www.w3.org/2000/svg">
<path d="M4.90018 22.66C4.59018 22.66 4.27018 22.66 3.90018 22.61C3.45309 22.574 3.0259 22.4097 2.66989 22.1369C2.31389 21.8641 2.0442 21.4943 1.89321 21.0719C1.74222 20.6495 1.71634 20.1926 1.81869 19.7559C1.92103 19.3192 2.14725 18.9213 2.47018 18.61C3.05261 18.0912 3.51061 17.4478 3.81012 16.7275C4.10963 16.0073 4.24295 15.2289 4.20018 14.45C2.62396 13.6263 1.39281 12.268 0.727568 10.6186C0.0623256 8.96923 0.00652498 7.13681 0.570176 5.45002C0.929093 4.39211 1.536 3.43546 2.34018 2.66002C3.33528 1.62413 4.60558 0.894033 6.00159 0.555662C7.39759 0.21729 8.8612 0.284723 10.2202 0.750024C11.6924 1.24538 12.9991 2.13788 13.9962 3.32901C14.9932 4.52014 15.6417 5.96358 15.8702 7.50002C16.3624 10.2618 15.9301 13.1089 14.6402 15.6V15.68C11.5602 20.52 8.62018 22.66 4.90018 22.66ZM4.53018 20.15C6.74018 20.26 9.23018 19.51 12.4502 14.39C13.4611 12.4191 13.8116 10.1754 13.4502 7.99002C13.3007 6.88716 12.8474 5.8476 12.1411 4.98757C11.4347 4.12754 10.503 3.48092 9.45018 3.12002C8.53443 2.79784 7.5447 2.74921 6.60177 2.98006C5.65885 3.2109 4.80352 3.71125 4.14018 4.42002C3.6177 4.93272 3.22663 5.56392 3.00018 6.26002C2.6016 7.46226 2.67415 8.77095 3.20315 9.92176C3.73215 11.0726 4.67819 11.9797 5.85018 12.46C6.04228 12.5369 6.21228 12.6604 6.34493 12.8192C6.47758 12.978 6.56872 13.1673 6.61018 13.37C6.84878 14.584 6.78376 15.8382 6.42089 17.021C6.05802 18.2038 5.40854 19.2787 4.53018 20.15ZM23.5902 22.66C23.2702 22.66 22.9602 22.66 22.5902 22.61C22.1431 22.574 21.7159 22.4097 21.3599 22.1369C21.0039 21.8641 20.7342 21.4943 20.5832 21.0719C20.4322 20.6495 20.4063 20.1926 20.5087 19.7559C20.611 19.3192 20.8372 18.9213 21.1602 18.61C21.7426 18.0912 22.2006 17.4478 22.5001 16.7275C22.7996 16.0073 22.933 15.2289 22.8902 14.45C21.3154 13.6248 20.0855 12.2663 19.4205 10.6174C18.7554 8.96857 18.6986 7.13692 19.2602 5.45002C19.6135 4.39652 20.2096 3.44082 21.0002 2.66002C21.9977 1.62139 23.2715 0.889703 24.6712 0.551282C26.071 0.21286 27.5383 0.281819 28.9002 0.750024C30.3736 1.24339 31.6815 2.13529 32.6788 3.32679C33.6761 4.51828 34.3239 5.96278 34.5502 7.50002C35.0424 10.2618 34.6101 13.1089 33.3202 15.6C33.322 15.6267 33.322 15.6534 33.3202 15.68C30.2502 20.52 27.3002 22.66 23.5902 22.66ZM23.2102 20.15C25.4302 20.26 27.9102 19.51 31.1402 14.39C32.1593 12.4218 32.5104 10.1753 32.1402 7.99002C32.1448 7.95685 32.1448 7.9232 32.1402 7.89002C31.9844 6.8011 31.5273 5.77742 30.8205 4.93454C30.1137 4.09167 29.1853 3.46318 28.1402 3.12002C27.2244 2.79784 26.2347 2.74921 25.2918 2.98006C24.3489 3.2109 23.4935 3.71125 22.8302 4.42002C22.3144 4.93271 21.9332 5.56472 21.7202 6.26002C21.3216 7.46226 21.3941 8.77095 21.9231 9.92176C22.4522 11.0726 23.3982 11.9797 24.5702 12.46C24.7599 12.539 24.9275 12.6633 25.0582 12.8219C25.1889 12.9805 25.2789 13.1687 25.3202 13.37C25.5568 14.5865 25.4879 15.8427 25.1197 17.026C24.7514 18.2092 24.0953 19.2827 23.2102 20.15Z" fill="#F67942"/>
</svg>
