<svg width="93" height="104" viewBox="0 0 93 104" fill="none" xmlns="http://www.w3.org/2000/svg">
<path d="M92.3422 45.5C92.3422 70.629 71.9711 91 46.8422 91C21.7132 91 1.34217 70.629 1.34217 45.5C1.34217 20.371 21.7132 0 46.8422 0C71.9711 0 92.3422 20.371 92.3422 45.5Z" fill="white" fill-opacity="0.05"/>
<path d="M3.6724 31.0867L43.6506 0.110196C44.705 0.0371371 45.7692 0 46.8422 0C53.2445 0 59.3379 1.32232 64.8643 3.70875L1.87913 52.5118C1.52561 50.2263 1.34217 47.8846 1.34217 45.5C1.34217 40.4624 2.16084 35.616 3.6724 31.0867Z" fill="url(#paint0_linear_47_1347)"/>
<path d="M70.4081 6.59612L15.5228 49.1231L13.4218 46.4117L67.1406 4.78857C68.2567 5.34732 69.3467 5.95061 70.4081 6.59612Z" fill="url(#paint1_linear_47_1347)"/>
<path fill-rule="evenodd" clip-rule="evenodd" d="M42.9048 37.2544L42.9047 37.2545L25.3193 20.354C23.9134 18.9104 23.934 16.7653 25.3673 15.3489C26.8007 13.9325 28.9302 13.9529 30.3361 15.3965L50.3819 34.8233C50.5879 35.0349 50.7633 35.2614 50.9081 35.4986L50.9117 35.471L70.5935 56.0175V52.196C70.5935 49.9026 72.1237 48.3737 74.4189 48.3737C76.7142 48.3737 78.2444 49.9026 78.2444 52.196V64.4276C78.2444 66.721 76.7142 68.25 74.4189 68.25H62.1775C59.8823 68.25 58.3521 66.721 58.3521 64.4276C58.3521 62.1342 59.8823 60.6053 62.1775 60.6053H65.2195L43.4346 37.9022C43.227 37.689 43.0504 37.4762 42.9048 37.2544Z" fill="url(#paint2_linear_47_1347)"/>
<g filter="url(#filter0_f_47_1347)">
<path d="M42.6717 67.6C41.313 67.6 40.4071 67.1471 39.5013 66.2412L30.8957 57.6353L23.6488 64.8824C21.8371 66.6942 19.1196 66.6942 17.3079 64.8824C15.4962 63.0706 14.8761 56.5683 16.6878 54.7565L27.7252 48.1236C29.5369 46.3118 32.2544 46.3118 34.0661 48.1236L42.6717 56.7294L70.3003 29.5529C72.112 27.7412 74.8295 27.7412 76.6412 29.5529C78.4529 31.3647 78.4529 34.0824 76.6412 35.8941L45.8422 66.2412C44.9364 67.1471 44.0305 67.6 42.6717 67.6Z" fill="#272D3A"/>
<path d="M73.4707 51.2937C70.7532 51.2937 67.0672 48.6165 67.0672 45.8989L68.9415 36.7996H58.9771C56.2595 36.7996 54.4478 34.9878 54.4478 32.2701C54.4478 29.5525 54.1556 24.05 56.8731 24.05L73.4707 27.7407C76.1883 27.7407 78 29.5525 78 32.2701V46.7643C78 49.4819 76.1883 51.2937 73.4707 51.2937Z" fill="#272D3A"/>
</g>
<path d="M43.1065 54.9323C42.0394 54.9323 41.3281 54.5773 40.6167 53.8673L33.8587 47.1224L17.3708 63.9351C15.948 65.355 13.8139 65.355 12.3912 63.9351C10.9684 62.5151 10.4815 57.4189 11.9042 55.9989L31.3689 39.6676C32.7916 38.2476 34.9257 38.2476 36.3485 39.6676L43.1065 46.4125L64.8033 25.1129C66.2261 23.693 68.3602 23.693 69.7829 25.1129C71.2057 26.5329 71.2057 28.6628 69.7829 30.0828L45.5963 53.8673C44.8849 54.5773 44.1736 54.9323 43.1065 54.9323Z" fill="url(#paint3_linear_47_1347)"/>
<path d="M67.2931 42.1522C65.159 42.1522 62.2644 40.054 62.2644 37.924L63.7363 30.7925H55.9112C53.7771 30.7925 52.3543 29.3725 52.3543 27.2425C52.3543 25.1126 52.1248 20.8 54.2589 20.8L67.2931 23.6926C69.4273 23.6926 70.85 25.1126 70.85 27.2425V38.6023C70.85 40.7322 69.4273 42.1522 67.2931 42.1522Z" fill="url(#paint4_linear_47_1347)"/>
<path d="M43.0521 51.3938C41.983 51.3938 41.2702 51.0387 40.5575 50.3287L33.7862 43.5829L25.4473 52.4589L17.1085 61.3349C15.683 62.7551 13.5447 62.7551 12.1191 61.3349C10.6936 59.9148 10.6936 57.7845 12.1191 56.3644L31.2915 36.1271C32.717 34.707 34.8553 34.707 36.2809 36.1271L43.0521 42.8728L64.7915 21.5705C66.217 20.1504 68.3553 20.1504 69.7809 21.5705C71.2064 22.9907 71.2064 25.1209 69.7809 26.5411L45.5468 50.3287C44.834 51.0387 44.1213 51.3938 43.0521 51.3938Z" fill="black"/>
<path d="M43.0521 51.3938C41.983 51.3938 41.2702 51.0387 40.5575 50.3287L33.7862 43.5829L25.4473 52.4589L17.1085 61.3349C15.683 62.7551 13.5447 62.7551 12.1191 61.3349C10.6936 59.9148 10.6936 57.7845 12.1191 56.3644L31.2915 36.1271C32.717 34.707 34.8553 34.707 36.2809 36.1271L43.0521 42.8728L64.7915 21.5705C66.217 20.1504 68.3553 20.1504 69.7809 21.5705C71.2064 22.9907 71.2064 25.1209 69.7809 26.5411L45.5468 50.3287C44.834 51.0387 44.1213 51.3938 43.0521 51.3938Z" fill="url(#paint5_linear_47_1347)"/>
<path d="M43.0521 51.3938C41.983 51.3938 41.2702 51.0387 40.5575 50.3287L33.7862 43.5829L25.4473 52.4589L17.1085 61.3349C15.683 62.7551 13.5447 62.7551 12.1191 61.3349C10.6936 59.9148 10.6936 57.7845 12.1191 56.3644L31.2915 36.1271C32.717 34.707 34.8553 34.707 36.2809 36.1271L43.0521 42.8728L64.7915 21.5705C66.217 20.1504 68.3553 20.1504 69.7809 21.5705C71.2064 22.9907 71.2064 25.1209 69.7809 26.5411L45.5468 50.3287C44.834 51.0387 44.1213 51.3938 43.0521 51.3938Z" fill="url(#paint6_radial_47_1347)" fill-opacity="0.2"/>
<path d="M67.2862 38.612C65.1479 38.612 63.7223 37.1919 63.7223 35.0616V27.2508H55.8819C53.7436 27.2508 52.3181 25.8306 52.3181 23.7004C52.3181 21.5702 53.7436 20.15 55.8819 20.15H67.2862C69.4245 20.15 70.85 21.5702 70.85 23.7004V35.0616C70.85 37.1919 69.4245 38.612 67.2862 38.612Z" fill="black"/>
<path d="M67.2862 38.612C65.1479 38.612 63.7223 37.1919 63.7223 35.0616V27.2508H55.8819C53.7436 27.2508 52.3181 25.8306 52.3181 23.7004C52.3181 21.5702 53.7436 20.15 55.8819 20.15H67.2862C69.4245 20.15 70.85 21.5702 70.85 23.7004V35.0616C70.85 37.1919 69.4245 38.612 67.2862 38.612Z" fill="url(#paint7_linear_47_1347)"/>
<path d="M67.2862 38.612C65.1479 38.612 63.7223 37.1919 63.7223 35.0616V27.2508H55.8819C53.7436 27.2508 52.3181 25.8306 52.3181 23.7004C52.3181 21.5702 53.7436 20.15 55.8819 20.15H67.2862C69.4245 20.15 70.85 21.5702 70.85 23.7004V35.0616C70.85 37.1919 69.4245 38.612 67.2862 38.612Z" fill="url(#paint8_radial_47_1347)" fill-opacity="0.2"/>
<path d="M5.46237 12.2317C5.45621 11.4781 6.30873 11.0368 6.92053 11.4769L9.92877 13.6409C10.0875 13.7551 10.2784 13.8158 10.4739 13.8142L14.1795 13.7839C14.9331 13.7777 15.3745 14.6303 14.9344 15.242L12.7703 18.2503C12.6562 18.409 12.5955 18.5999 12.5971 18.7954L12.6274 22.501C12.6335 23.2547 11.781 23.696 11.1692 23.2559L8.16096 21.0918C8.00226 20.9777 7.81133 20.917 7.61584 20.9186L3.91021 20.9489C3.15659 20.955 2.71527 20.1025 3.15538 19.4907L5.31941 16.4825C5.43358 16.3238 5.49426 16.1329 5.49266 15.9374L5.46237 12.2317Z" fill="url(#paint9_linear_47_1347)"/>
<path d="M5.46237 12.2317C5.45621 11.4781 6.30873 11.0368 6.92053 11.4769L9.92877 13.6409C10.0875 13.7551 10.2784 13.8158 10.4739 13.8142L14.1795 13.7839C14.9331 13.7777 15.3745 14.6303 14.9344 15.242L12.7703 18.2503C12.6562 18.409 12.5955 18.5999 12.5971 18.7954L12.6274 22.501C12.6335 23.2547 11.781 23.696 11.1692 23.2559L8.16096 21.0918C8.00226 20.9777 7.81133 20.917 7.61584 20.9186L3.91021 20.9489C3.15659 20.955 2.71527 20.1025 3.15538 19.4907L5.31941 16.4825C5.43358 16.3238 5.49426 16.1329 5.49266 15.9374L5.46237 12.2317Z" fill="url(#paint10_linear_47_1347)"/>
<path d="M81.9296 70.7039C82.2918 70.3003 82.9589 70.479 83.0708 71.0096L83.6206 73.6186C83.6496 73.7562 83.7217 73.8811 83.8264 73.975L85.8109 75.7557C86.2145 76.1178 86.0357 76.785 85.5051 76.8968L82.8961 77.4466C82.7585 77.4756 82.6337 77.5477 82.5397 77.6524L80.7591 79.6369C80.3969 80.0405 79.7298 79.8617 79.618 79.3311L79.0681 76.7222C79.0391 76.5845 78.967 76.4597 78.8624 76.3658L76.8778 74.5851C76.4742 74.223 76.653 73.5558 77.1836 73.444L79.7926 72.8941C79.9302 72.8651 80.055 72.7931 80.149 72.6884L81.9296 70.7039Z" fill="url(#paint11_linear_47_1347)"/>
<path d="M81.9296 70.7039C82.2918 70.3003 82.9589 70.479 83.0708 71.0096L83.6206 73.6186C83.6496 73.7562 83.7217 73.8811 83.8264 73.975L85.8109 75.7557C86.2145 76.1178 86.0357 76.785 85.5051 76.8968L82.8961 77.4466C82.7585 77.4756 82.6337 77.5477 82.5397 77.6524L80.7591 79.6369C80.3969 80.0405 79.7298 79.8617 79.618 79.3311L79.0681 76.7222C79.0391 76.5845 78.967 76.4597 78.8624 76.3658L76.8778 74.5851C76.4742 74.223 76.653 73.5558 77.1836 73.444L79.7926 72.8941C79.9302 72.8651 80.055 72.7931 80.149 72.6884L81.9296 70.7039Z" fill="url(#paint12_linear_47_1347)"/>
<ellipse cx="82.1327" cy="7.3252" rx="2.14749" ry="2.01327" transform="rotate(-27.3691 82.1327 7.3252)" fill="white"/>
<ellipse cx="82.1327" cy="7.3252" rx="2.14749" ry="2.01327" transform="rotate(-27.3691 82.1327 7.3252)" fill="url(#paint13_linear_47_1347)"/>
<ellipse cx="81.7844" cy="52.5333" rx="0.97467" ry="0.913753" transform="rotate(-27.3691 81.7844 52.5333)" fill="#FFBCEB"/>
<ellipse cx="81.7844" cy="52.5333" rx="0.97467" ry="0.913753" transform="rotate(-27.3691 81.7844 52.5333)" fill="url(#paint14_linear_47_1347)"/>
<g filter="url(#filter1_f_47_1347)">
<circle cx="49.075" cy="65.3251" r="21.775" fill="#252734" fill-opacity="0.41"/>
</g>
<path d="M65.6902 67.0203C65.6902 77.3497 57.3167 85.7233 46.9873 85.7233C36.658 85.7233 28.2844 77.3497 28.2844 67.0203C28.2844 56.691 36.658 48.3174 46.9873 48.3174C57.3167 48.3174 65.6902 56.691 65.6902 67.0203Z" fill="url(#paint15_linear_47_1347)"/>
<path d="M65.6902 67.0203C65.6902 77.3497 57.3167 85.7233 46.9873 85.7233C36.658 85.7233 28.2844 77.3497 28.2844 67.0203C28.2844 56.691 36.658 48.3174 46.9873 48.3174C57.3167 48.3174 65.6902 56.691 65.6902 67.0203Z" fill="url(#paint16_linear_47_1347)"/>
<path fill-rule="evenodd" clip-rule="evenodd" d="M66.6746 67.0203C66.6746 77.8933 57.8603 86.7076 46.9873 86.7076C36.1143 86.7076 27.3 77.8933 27.3 67.0203C27.3 56.1473 36.1143 47.333 46.9873 47.333C57.8603 47.333 66.6746 56.1473 66.6746 67.0203ZM46.9873 85.7233C57.3167 85.7233 65.6903 77.3497 65.6903 67.0203C65.6903 56.691 57.3167 48.3174 46.9873 48.3174C36.658 48.3174 28.2844 56.691 28.2844 67.0203C28.2844 77.3497 36.658 85.7233 46.9873 85.7233Z" fill="url(#paint17_linear_47_1347)"/>
<circle cx="46.9873" cy="67.0202" r="14.7655" fill="#252734"/>
<circle cx="46.9873" cy="67.0202" r="14.7655" fill="url(#paint18_linear_47_1347)"/>
<path d="M52.5518 63.5985C52.6793 64.887 52.2155 65.8003 51.1606 66.3384C51.989 66.5367 52.6085 66.9013 53.0191 67.4323C53.4297 67.9633 53.589 68.7208 53.497 69.705C53.4474 70.2076 53.3324 70.6501 53.1519 71.0325C52.9713 71.4148 52.743 71.7298 52.4669 71.9776C52.1907 72.2254 51.8474 72.4325 51.4367 72.5989C51.0261 72.7653 50.596 72.8874 50.1464 72.9653C49.6968 73.0432 49.1817 73.0963 48.6012 73.1246V75.8327H46.9657V73.1671C46.3993 73.1671 45.9674 73.1635 45.6701 73.1565V75.8327H44.0346V73.1246C43.9071 73.1246 43.716 73.1228 43.4611 73.1193C43.2062 73.1158 43.0115 73.114 42.877 73.114H40.753L41.0822 71.1705H42.261C42.615 71.1705 42.8204 70.99 42.877 70.6289V66.3597H43.0469C43.0044 66.3526 42.9478 66.349 42.877 66.349V63.3011C42.785 62.8197 42.4699 62.5789 41.9318 62.5789H40.753V60.8373L43.0044 60.8479C43.4576 60.8479 43.8009 60.8443 44.0346 60.8373V58.161H45.6701V60.7842C46.2506 60.77 46.6825 60.7629 46.9657 60.7629V58.161H48.6012V60.8373C49.1605 60.8868 49.6561 60.9665 50.088 61.0762C50.5199 61.1859 50.9199 61.3452 51.288 61.5541C51.6562 61.763 51.9483 62.0391 52.1642 62.3825C52.3801 62.7258 52.5093 63.1312 52.5518 63.5985ZM50.2685 69.3864C50.2685 69.1315 50.2154 68.9049 50.1092 68.7067C50.003 68.5084 49.872 68.3456 49.7163 68.2182C49.5605 68.0907 49.357 67.9828 49.1056 67.8943C48.8543 67.8058 48.6224 67.7403 48.41 67.6978C48.1976 67.6553 47.9357 67.6234 47.6241 67.6022C47.3126 67.581 47.0684 67.5703 46.8914 67.5703C46.7144 67.5703 46.486 67.5739 46.2064 67.581C45.9267 67.588 45.7586 67.5916 45.7019 67.5916V71.1811C45.7586 71.1811 45.8895 71.1829 46.0949 71.1865C46.3002 71.19 46.4701 71.1918 46.6046 71.1918C46.7391 71.1918 46.9268 71.1865 47.1675 71.1758C47.4082 71.1652 47.6153 71.1511 47.7887 71.1334C47.9622 71.1157 48.164 71.0856 48.3941 71.0431C48.6242 71.0006 48.8207 70.951 48.9835 70.8944C49.1463 70.8378 49.3145 70.7634 49.488 70.6714C49.6614 70.5793 49.8012 70.4731 49.9074 70.3528C50.0136 70.2324 50.1004 70.0908 50.1676 69.928C50.2349 69.7651 50.2685 69.5846 50.2685 69.3864ZM49.5145 64.3312C49.5145 64.0976 49.4703 63.8905 49.3818 63.71C49.2933 63.5294 49.1853 63.3807 49.0578 63.2639C48.9304 63.1471 48.7605 63.048 48.5481 62.9666C48.3357 62.8851 48.141 62.8267 47.964 62.7913C47.787 62.7559 47.5693 62.7276 47.3108 62.7064C47.0524 62.6851 46.8471 62.6763 46.6949 62.6798C46.5427 62.6834 46.3515 62.6869 46.1214 62.6904C45.8913 62.694 45.7515 62.6958 45.7019 62.6958V65.9561C45.7373 65.9561 45.8594 65.9579 46.0683 65.9614C46.2772 65.9649 46.4418 65.9649 46.5621 65.9614C46.6825 65.9579 46.8595 65.9508 47.0931 65.9402C47.3268 65.9295 47.5215 65.9101 47.6772 65.8818C47.833 65.8534 48.0153 65.8145 48.2242 65.7649C48.433 65.7154 48.6047 65.6499 48.7392 65.5685C48.8738 65.487 49.0047 65.3915 49.1322 65.2817C49.2596 65.172 49.3552 65.0357 49.4189 64.8729C49.4826 64.71 49.5145 64.5295 49.5145 64.3312Z" fill="url(#paint19_linear_47_1347)"/>
<defs>
<filter id="filter0_f_47_1347" x="1.5587" y="10.0087" width="90.4826" height="71.6326" filterUnits="userSpaceOnUse" color-interpolation-filters="sRGB">
<feFlood flood-opacity="0" result="BackgroundImageFix"/>
<feBlend mode="normal" in="SourceGraphic" in2="BackgroundImageFix" result="shape"/>
<feGaussianBlur stdDeviation="7.02065" result="effect1_foregroundBlur_47_1347"/>
</filter>
<filter id="filter1_f_47_1347" x="11.3" y="27.55" width="75.55" height="75.55" filterUnits="userSpaceOnUse" color-interpolation-filters="sRGB">
<feFlood flood-opacity="0" result="BackgroundImageFix"/>
<feBlend mode="normal" in="SourceGraphic" in2="BackgroundImageFix" result="shape"/>
<feGaussianBlur stdDeviation="8" result="effect1_foregroundBlur_47_1347"/>
</filter>
<linearGradient id="paint0_linear_47_1347" x1="73.6858" y1="-9.66371" x2="-0.134228" y2="44.0236" gradientUnits="userSpaceOnUse">
<stop stop-color="#D9D9D9" stop-opacity="0.1"/>
<stop offset="1" stop-color="#D9D9D9" stop-opacity="0"/>
</linearGradient>
<linearGradient id="paint1_linear_47_1347" x1="103.214" y1="-9.66374" x2="29.3938" y2="44.0236" gradientUnits="userSpaceOnUse">
<stop stop-color="#D9D9D9" stop-opacity="0.1"/>
<stop offset="1" stop-color="#D9D9D9" stop-opacity="0"/>
</linearGradient>
<linearGradient id="paint2_linear_47_1347" x1="78.2443" y1="58.3119" x2="58.3521" y2="58.3119" gradientUnits="userSpaceOnUse">
<stop stop-color="#F05544"/>
<stop offset="1" stop-color="#FF9029"/>
</linearGradient>
<linearGradient id="paint3_linear_47_1347" x1="33.09" y1="81.7882" x2="45.1908" y2="-14.0279" gradientUnits="userSpaceOnUse">
<stop stop-color="#1C850B"/>
<stop offset="1" stop-color="#30B63E"/>
</linearGradient>
<linearGradient id="paint4_linear_47_1347" x1="33.09" y1="81.7882" x2="45.1908" y2="-14.0279" gradientUnits="userSpaceOnUse">
<stop stop-color="#1C850B"/>
<stop offset="1" stop-color="#30B63E"/>
</linearGradient>
<linearGradient id="paint5_linear_47_1347" x1="33.016" y1="78.2532" x2="45.097" y2="-17.5809" gradientUnits="userSpaceOnUse">
<stop stop-color="#47D131"/>
<stop offset="1" stop-color="#99E941"/>
</linearGradient>
<radialGradient id="paint6_radial_47_1347" cx="0" cy="0" r="1" gradientUnits="userSpaceOnUse" gradientTransform="translate(68.2925 22.1172) rotate(126.741) scale(36.5342 56.9055)">
<stop stop-color="#D6FF60"/>
<stop offset="1" stop-color="#DAFF70" stop-opacity="0"/>
</radialGradient>
<linearGradient id="paint7_linear_47_1347" x1="33.016" y1="78.2532" x2="45.097" y2="-17.5809" gradientUnits="userSpaceOnUse">
<stop stop-color="#47D131"/>
<stop offset="1" stop-color="#99E941"/>
</linearGradient>
<radialGradient id="paint8_radial_47_1347" cx="0" cy="0" r="1" gradientUnits="userSpaceOnUse" gradientTransform="translate(68.2925 22.1172) rotate(126.741) scale(36.5342 56.9055)">
<stop stop-color="#D6FF60"/>
<stop offset="1" stop-color="#DAFF70" stop-opacity="0"/>
</radialGradient>
<linearGradient id="paint9_linear_47_1347" x1="14.1578" y1="35.2691" x2="2.69252" y2="-4.13099" gradientUnits="userSpaceOnUse">
<stop stop-color="#6CFF54"/>
<stop offset="1" stop-color="#99E941"/>
<stop offset="1" stop-color="#9EFF33"/>
</linearGradient>
<linearGradient id="paint10_linear_47_1347" x1="3.31989" y1="12.7092" x2="2.06211" y2="25.2915" gradientUnits="userSpaceOnUse">
<stop stop-color="#FFEB3C"/>
<stop offset="1" stop-color="#FF881B"/>
</linearGradient>
<linearGradient id="paint11_linear_47_1347" x1="75.3817" y1="87.1662" x2="88.3911" y2="60.6628" gradientUnits="userSpaceOnUse">
<stop stop-color="#B18CFF"/>
<stop offset="1" stop-color="#FF6666"/>
</linearGradient>
<linearGradient id="paint12_linear_47_1347" x1="80.5592" y1="69.9188" x2="73.7898" y2="75.9974" gradientUnits="userSpaceOnUse">
<stop stop-color="#FFEB3C"/>
<stop offset="1" stop-color="#FF881B"/>
</linearGradient>
<linearGradient id="paint13_linear_47_1347" x1="81.1909" y1="5.29487" x2="79.1772" y2="8.59251" gradientUnits="userSpaceOnUse">
<stop stop-color="#FFEB3C"/>
<stop offset="1" stop-color="#FF881B"/>
</linearGradient>
<linearGradient id="paint14_linear_47_1347" x1="81.3569" y1="51.6118" x2="80.443" y2="53.1085" gradientUnits="userSpaceOnUse">
<stop stop-color="#FFEB3C"/>
<stop offset="1" stop-color="#FF881B"/>
</linearGradient>
<linearGradient id="paint15_linear_47_1347" x1="46.9873" y1="48.3174" x2="46.9873" y2="85.7233" gradientUnits="userSpaceOnUse">
<stop stop-color="#DB3825"/>
<stop offset="1" stop-color="#7A1B10"/>
</linearGradient>
<linearGradient id="paint16_linear_47_1347" x1="38.785" y1="48.1589" x2="19.5513" y2="77.6884" gradientUnits="userSpaceOnUse">
<stop stop-color="#F0DA15"/>
<stop offset="0.835592" stop-color="#D86800"/>
</linearGradient>
<linearGradient id="paint17_linear_47_1347" x1="38.3533" y1="47.1662" x2="18.1074" y2="78.2499" gradientUnits="userSpaceOnUse">
<stop stop-color="#FFF494"/>
<stop offset="0.63021" stop-color="#FFD4AD"/>
</linearGradient>
<linearGradient id="paint18_linear_47_1347" x1="40.5118" y1="52.1296" x2="25.3273" y2="75.4424" gradientUnits="userSpaceOnUse">
<stop stop-color="#FFEB3C"/>
<stop offset="1" stop-color="#FF881B"/>
</linearGradient>
<linearGradient id="paint19_linear_47_1347" x1="47.1376" y1="58.161" x2="47.1376" y2="75.8327" gradientUnits="userSpaceOnUse">
<stop stop-color="white" stop-opacity="0.87"/>
<stop offset="0.770302" stop-color="white" stop-opacity="0.554176"/>
<stop offset="1" stop-color="white" stop-opacity="0.46"/>
</linearGradient>
</defs>
</svg>
