<svg width="35" height="23" viewBox="0 0 35 23" fill="none" xmlns="http://www.w3.org/2000/svg">
<path d="M30.0999 0.340006C30.4099 0.340006 30.7299 0.340006 31.0999 0.390005C31.547 0.426012 31.9742 0.590296 32.3302 0.863137C32.6862 1.13598 32.9559 1.50577 33.1069 1.92813C33.2579 2.35048 33.2838 2.80744 33.1814 3.24414C33.0791 3.68084 32.8529 4.07872 32.5299 4.39001C31.9475 4.90884 31.4895 5.55228 31.19 6.27249C30.8905 6.99271 30.7572 7.77117 30.7999 8.55001C32.3762 9.37371 33.6073 10.7321 34.2726 12.3814C34.9378 14.0308 34.9936 15.8632 34.4299 17.55C34.071 18.6079 33.4641 19.5646 32.6599 20.34C31.6648 21.3759 30.3945 22.106 28.9985 22.4444C27.6025 22.7827 26.1389 22.7153 24.7799 22.25C23.3077 21.7547 22.001 20.8622 21.004 19.671C20.0069 18.4799 19.3584 17.0364 19.1299 15.5C18.6377 12.7382 19.07 9.89117 20.3599 7.40001L20.3599 7.32001C23.4399 2.48001 26.3799 0.340007 30.0999 0.340006ZM30.4699 2.85001C28.2599 2.74001 25.7699 3.49001 22.5499 8.61001C21.5391 10.5809 21.1885 12.8246 21.5499 15.01C21.6994 16.1129 22.1527 17.1524 22.8591 18.0125C23.5655 18.8725 24.4971 19.5191 25.5499 19.88C26.4657 20.2022 27.4554 20.2508 28.3983 20.02C29.3413 19.7891 30.1966 19.2888 30.8599 18.58C31.3824 18.0673 31.7735 17.4361 31.9999 16.74C32.3985 15.5378 32.326 14.2291 31.797 13.0783C31.268 11.9275 30.3219 11.0203 29.1499 10.54C28.9578 10.4631 28.7878 10.3397 28.6552 10.1808C28.5225 10.022 28.4314 9.83274 28.3899 9.63001C28.1513 8.416 28.2164 7.16184 28.5792 5.97902C28.9421 4.7962 29.5916 3.72134 30.4699 2.85001ZM11.4099 0.340008C11.7299 0.340008 12.0399 0.340008 12.4099 0.390007C12.857 0.426014 13.2842 0.590298 13.6402 0.863138C13.9962 1.13598 14.2659 1.50578 14.4169 1.92813C14.5679 2.35048 14.5938 2.80744 14.4914 3.24414C14.3891 3.68084 14.1629 4.07872 13.8399 4.39001C13.2575 4.90884 12.7995 5.55228 12.5 6.2725C12.2005 6.99271 12.0672 7.77117 12.1099 8.55001C13.6847 9.37525 14.9146 10.7338 15.5796 12.3826C16.2447 14.0315 16.3015 15.8631 15.7399 17.55C15.3866 18.6035 14.7906 19.5592 13.9999 20.34C13.0024 21.3786 11.7286 22.1103 10.3289 22.4488C8.92914 22.7872 7.46179 22.7182 6.09995 22.25C4.62654 21.7566 3.31863 20.8647 2.3213 19.6732C1.32397 18.4818 0.676239 17.0373 0.449947 15.5C-0.0423211 12.7382 0.39001 9.89117 1.67995 7.40001C1.67814 7.37337 1.67814 7.34664 1.67995 7.32001C4.74994 2.48001 7.69995 0.340008 11.4099 0.340008ZM11.7899 2.85001C9.56995 2.74001 7.08995 3.49001 3.85995 8.61001C2.84077 10.5782 2.48976 12.8247 2.85995 15.01C2.85529 15.0432 2.85529 15.0768 2.85995 15.11C3.01573 16.1989 3.47284 17.2226 4.17965 18.0655C4.88646 18.9084 5.81483 19.5369 6.85995 19.88C7.77569 20.2022 8.76542 20.2508 9.70835 20.02C10.6513 19.7891 11.5066 19.2888 12.1699 18.58C12.6857 18.0673 13.0669 17.4353 13.2799 16.74C13.6785 15.5378 13.606 14.2291 13.077 13.0783C12.548 11.9275 11.6019 11.0203 10.4299 10.54C10.2402 10.461 10.0726 10.3368 9.94192 10.1782C9.81119 10.0195 9.72125 9.83136 9.67995 9.63001C9.4433 8.41354 9.51219 7.15737 9.88044 5.97408C10.2487 4.79079 10.9048 3.71736 11.7899 2.85001Z" fill="#F67942"/>
</svg>
