<svg id="Layer_1" data-name="Layer 1" xmlns="http://www.w3.org/2000/svg" xmlns:xlink="http://www.w3.org/1999/xlink" height="20" viewBox="0 0 787 227" fill="#cccccc"><defs><style>.cls-1{fill:none;}.cls-2{clip-path:url(#clip-path);}.cls-3{clip-path:url(#clip-path-2);}</style><clipPath id="clip-path" transform="translate(-6.5 -286.5)"><path class="cls-1" d="M505.1,381.51c-13.9,0-26.76,7.62-28.15,26.41H532C531.52,394.72,522,381.51,505.1,381.51Zm-398-61.24a89.5,89.5,0,0,1,93.24,7.3l-2.18,1.11-14.58,7.43A73.21,73.21,0,0,0,75.22,409.56l123-62.66,25.47-13,29.86-15.24V337l-30.12,15.35-14.57,7.42L79.19,425.82,72,429.49l-7.33,3.75L42,444.77V426.49l7.69-3.92a16.29,16.29,0,0,0,8.84-15.74q-.26-3.39-.26-6.81A89.51,89.51,0,0,1,107.12,320.27ZM681.78,418c-28.68,2.78-46.92,7.12-46.92,20,0,8.87,6.77,14.77,18.07,14.77,14.77,0,28.85-6.78,28.85-28.84ZM606.8,337V463H591V337Zm-31.62,0V463H559.36V337ZM753.31,369a43.15,43.15,0,0,1,4.69.17v16.89a57.1,57.1,0,0,0-8.86-.69c-14.6,0-21.9,7.78-21.9,28.64v49H711.42V369.51H726.9v16.34C731.59,375.26,741,369.51,753.31,369ZM439.93,346.05v23.46h17.73v12.7H439.93v55.44c0,9.73.69,12.16,9.73,12.16h8V463H446.19c-17.9,0-22.07-4-22.07-23.46V382.21H409.34v-12.7h14.78V346.05Zm-84-11.29c22.73,0,42.74,10.24,47.79,34.41H386.47c-4.17-14.42-18.75-19.46-31.28-19.46-9.76,0-26.76,4.34-26.76,18.42,0,11.12,8.72,16.67,20.58,19.29l14.56,3.3c19.29,4.17,42.4,11.47,42.4,36.84,0,24.51-22.9,37.72-48,37.72-29.72,0-48.49-16.3-51.79-41.36h17.42c3.3,17.37,15.11,26.41,34.75,26.41,18.77,0,29.37-8.67,29.37-21.2,0-13.38-11.3-18.59-27.11-22.25l-15.71-3.3c-17.38-3.82-34.59-13.56-34.59-34.41C310.35,345,335.55,334.76,355.89,334.76ZM505.1,368c28.67,0,45.54,23.81,43.62,53.52H476.78c.51,20.16,15.11,29.89,28.84,29.89,13.91,0,21.56-6.26,25.55-15.47H547.5c-4.17,16-19.11,29.38-41.88,29.38-29.54,0-45.88-21.2-45.88-48.84C459.74,386.75,479.56,368,505.1,368Zm154.08-.33c26.25,0,37.37,12,37.19,38.58l-.17,21.56c-.18,15.79.52,26.38,2.43,35.27h-16a102.32,102.32,0,0,1-1.21-12.85c-5.73,9.75-15.29,15.12-32,15.12-17.55,0-32.15-9.74-32.15-26.94,0-22.11,25-28.67,63.26-32.85v-2.26c0-17.2-9.38-22.76-21.21-22.76-13.2,0-20.67,6.95-21.37,18.59H621.64C623,378.93,641.11,367.63,659.18,367.63ZM253.56,355.26v18.23l-7.7,3.92A16.29,16.29,0,0,0,237,393.14c.17,2.28.26,4.58.26,6.88a89.51,89.51,0,0,1-142.1,72.4L111,464.37l.9-.48A73.28,73.28,0,0,0,221,400a75.6,75.6,0,0,0-.63-9.63L97.25,453.13l-25.47,13L42,481.28V463l30-15.28,14.57-7.44Z"/></clipPath><clipPath id="clip-path-2" transform="translate(-6.5 -286.5)"><rect class="cls-1" x="42" y="310.5" width="716" height="179"/></clipPath></defs><title>stellar_logo-freelogovectors.net_</title><g class="cls-2"><g class="cls-3"><rect x="33.26" y="21.76" width="720.47" height="183.47"/></g></g><rect class="cls-1" width="787" height="227"/></svg>