<svg width="60" height="56" viewBox="0 0 60 56" fill="none" xmlns="http://www.w3.org/2000/svg">
<rect x="1" y="1" width="58" height="54" rx="9" fill="#090402" stroke="url(#paint0_linear_795_120)" stroke-width="2"/>
<g clip-path="url(#clip0_795_120)">
<path d="M20.2321 42H39.7699C41.8181 42 43.4825 40.3355 43.4825 38.2874V19.7866C43.4825 17.7385 41.8181 16.074 39.7699 16.074H38.2973V15.037C38.2973 14.4666 37.8306 14 37.2602 14C36.6899 14 36.2232 14.4666 36.2232 15.037V16.074H23.7788V15.037C23.7788 14.4666 23.3121 14 22.7417 14C22.1713 14 21.7047 14.4666 21.7047 15.037V16.074H20.2321C18.184 16.074 16.5195 17.7385 16.5195 19.7866V38.2874C16.5195 40.3355 18.184 42 20.2321 42ZM18.5937 19.7866C18.5937 18.8844 19.3299 18.1482 20.2321 18.1482H21.7047V19.1852C21.7047 19.7556 22.1713 20.2222 22.7417 20.2222C23.3121 20.2222 23.7787 19.7556 23.7787 19.1852V18.1482H36.2232V19.1852C36.2232 19.7556 36.6899 20.2222 37.2602 20.2222C37.8306 20.2222 38.2973 19.7556 38.2973 19.1852V18.1482H39.7698C40.672 18.1482 41.4083 18.8844 41.4083 19.7866V38.2874C41.4083 39.1896 40.672 39.9259 39.7698 39.9259H20.2321C19.3299 39.9259 18.5937 39.1896 18.5937 38.2874V19.7866Z" fill="#d0ff96"/>
<path d="M24.0385 25.9259C24.7544 25.9259 25.3347 25.3456 25.3347 24.6296C25.3347 23.9137 24.7544 23.3334 24.0385 23.3334C23.3225 23.3334 22.7422 23.9137 22.7422 24.6296C22.7422 25.3456 23.3225 25.9259 24.0385 25.9259Z" fill="#d0ff96"/>
<path d="M29.7416 25.9259C30.4575 25.9259 31.0379 25.3456 31.0379 24.6296C31.0379 23.9137 30.4575 23.3334 29.7416 23.3334C29.0257 23.3334 28.4453 23.9137 28.4453 24.6296C28.4453 25.3456 29.0257 25.9259 29.7416 25.9259Z" fill="#d0ff96"/>
<path d="M35.4447 25.9259C36.1606 25.9259 36.741 25.3456 36.741 24.6296C36.741 23.9137 36.1606 23.3334 35.4447 23.3334C34.7288 23.3334 34.1484 23.9137 34.1484 24.6296C34.1484 25.3456 34.7288 25.9259 35.4447 25.9259Z" fill="#d0ff96"/>
<path d="M24.0385 31.1111C24.7544 31.1111 25.3347 30.5307 25.3347 29.8148C25.3347 29.0989 24.7544 28.5186 24.0385 28.5186C23.3225 28.5186 22.7422 29.0989 22.7422 29.8148C22.7422 30.5307 23.3225 31.1111 24.0385 31.1111Z" fill="#d0ff96"/>
<path d="M29.7416 31.1111C30.4575 31.1111 31.0379 30.5307 31.0379 29.8148C31.0379 29.0989 30.4575 28.5186 29.7416 28.5186C29.0257 28.5186 28.4453 29.0989 28.4453 29.8148C28.4453 30.5307 29.0257 31.1111 29.7416 31.1111Z" fill="#d0ff96"/>
<path d="M35.4447 31.1111C36.1606 31.1111 36.741 30.5307 36.741 29.8148C36.741 29.0989 36.1606 28.5186 35.4447 28.5186C34.7288 28.5186 34.1484 29.0989 34.1484 29.8148C34.1484 30.5307 34.7288 31.1111 35.4447 31.1111Z" fill="#d0ff96"/>
<path d="M24.0385 36.2963C24.7544 36.2963 25.3347 35.7159 25.3347 35C25.3347 34.2841 24.7544 33.7037 24.0385 33.7037C23.3225 33.7037 22.7422 34.2841 22.7422 35C22.7422 35.7159 23.3225 36.2963 24.0385 36.2963Z" fill="#d0ff96"/>
<path d="M29.7416 36.2963C30.4575 36.2963 31.0379 35.7159 31.0379 35C31.0379 34.2841 30.4575 33.7037 29.7416 33.7037C29.0257 33.7037 28.4453 34.2841 28.4453 35C28.4453 35.7159 29.0257 36.2963 29.7416 36.2963Z" fill="#d0ff96"/>
<path d="M35.4447 36.2963C36.1606 36.2963 36.741 35.7159 36.741 35C36.741 34.2841 36.1606 33.7037 35.4447 33.7037C34.7288 33.7037 34.1484 34.2841 34.1484 35C34.1484 35.7159 34.7288 36.2963 35.4447 36.2963Z" fill="#d0ff96"/>
</g>
<defs>
<linearGradient id="paint0_linear_795_120" x1="4.76" y1="28" x2="75.5253" y2="28" gradientUnits="userSpaceOnUse">
<stop stop-color="#d0ff96" stop-opacity="0.65"/>
<stop offset="1" stop-color="#d0ff96" stop-opacity="0.28"/>
</linearGradient>
<clipPath id="clip0_795_120">
<rect width="28" height="28" fill="white" transform="translate(16 14)"/>
</clipPath>
</defs>
</svg>
