<svg width="60" height="56" viewBox="0 0 60 56" fill="none" xmlns="http://www.w3.org/2000/svg">
<mask id="path-1-inside-1_2321_442" fill="white">
<path d="M0 10C0 4.47715 4.47715 0 10 0H50C55.5228 0 60 4.47715 60 10V46C60 51.5229 55.5228 56 50 56H10C4.47715 56 0 51.5228 0 46V10Z"/>
</mask>
<path d="M0 10C0 4.47715 4.47715 0 10 0H50C55.5228 0 60 4.47715 60 10V46C60 51.5229 55.5228 56 50 56H10C4.47715 56 0 51.5228 0 46V10Z" fill="#090402"/>
<path d="M10 2H50V-2H10V2ZM58 10V46H62V10H58ZM50 54H10V58H50V54ZM2 46V10H-2V46H2ZM10 54C5.58172 54 2 50.4183 2 46H-2C-2 52.6274 3.37258 58 10 58V54ZM58 46C58 50.4183 54.4183 54 50 54V58C56.6274 58 62 52.6274 62 46H58ZM50 2C54.4183 2 58 5.58172 58 10H62C62 3.37258 56.6274 -2 50 -2V2ZM10 -2C3.37258 -2 -2 3.37258 -2 10H2C2 5.58172 5.58172 2 10 2V-2Z" fill="url(#paint0_linear_2321_442)" mask="url(#path-1-inside-1_2321_442)"/>
<g clip-path="url(#clip0_2321_442)">
<path d="M35.5625 40.2617H25.4375C24.0396 40.2099 24.0407 38.2037 25.4375 38.1523H35.5625C36.9604 38.2042 36.9593 40.2104 35.5625 40.2617ZM37.6719 36.043H23.327C19.8383 36.043 17 33.2047 17 29.716V21.0664C17 17.5771 19.8388 14.7383 23.3281 14.7383H37.6719C41.1612 14.7383 44 17.5771 44 21.0664V29.7148C44 33.2042 41.1612 36.043 37.6719 36.043ZM23.3281 16.8477C21.0019 16.8477 19.1094 18.7402 19.1094 21.0664V29.716C19.1094 32.0415 21.0014 33.9336 23.327 33.9336H37.6719C39.9981 33.9336 41.8906 32.0411 41.8906 29.7148V21.0664C41.8906 18.7402 39.9981 16.8477 37.6719 16.8477H23.3281ZM30.4999 32.5098C26.7723 32.5841 23.5006 29.3456 23.5394 25.617C23.493 19.3966 31.0634 16.233 35.448 20.6421C36.7624 21.9693 37.4771 23.7336 37.4607 25.6108L37.4609 25.7341C37.4787 28.2769 34.4258 29.6693 32.5532 27.9545C30.5573 29.7017 27.3131 28.2276 27.336 25.5488C27.5082 21.2815 33.6506 21.3982 33.6619 25.6675C33.6341 26.153 34.0335 26.6045 34.5178 26.6035C34.9698 26.6035 35.3516 26.2063 35.3516 25.7362L35.3514 25.609C35.3514 25.6049 35.3514 25.6009 35.3514 25.5968C35.4066 21.2569 30.1064 19.051 27.0577 22.1396C24.0217 25.1435 26.2441 30.4254 30.5024 30.4004C31.222 30.4001 31.887 30.2803 32.4254 30.0541C32.9625 29.8283 33.5807 30.0809 33.8063 30.6178C34.0319 31.1549 33.7796 31.7731 33.2426 31.9988C32.4481 32.3326 31.5008 32.5093 30.5034 32.5098C30.5022 32.5098 30.501 32.5098 30.4999 32.5098ZM30.5 24.4941C29.9184 24.4941 29.4453 24.9673 29.4453 25.5488C29.4983 26.9461 31.5019 26.9457 31.5547 25.5488C31.5547 24.9673 31.0816 24.4941 30.5 24.4941Z" fill="#d0ff96"/>
</g>
<defs>
<linearGradient id="paint0_linear_2321_442" x1="4.76" y1="28" x2="75.5253" y2="28" gradientUnits="userSpaceOnUse">
<stop stop-color="#d0ff96" stop-opacity="0.65"/>
<stop offset="1" stop-color="#d0ff96" stop-opacity="0.28"/>
</linearGradient>
<clipPath id="clip0_2321_442">
<rect width="27" height="27" fill="white" transform="translate(17 14)"/>
</clipPath>
</defs>
</svg>
