<svg width="60" height="56" viewBox="0 0 60 56" fill="none" xmlns="http://www.w3.org/2000/svg">
<rect x="1" y="1" width="58" height="54" rx="9" fill="#090402" stroke="url(#paint0_linear_2321_421)" stroke-width="2"/>
<path fill-rule="evenodd" clip-rule="evenodd" d="M26.8125 23.75V25.875C26.2257 25.875 25.75 26.3507 25.75 26.9375V31.1875C25.75 31.7743 26.2257 32.25 26.8125 32.25H33.1875C33.7743 32.25 34.25 31.7743 34.25 31.1875V26.9375C34.25 26.3507 33.7743 25.875 33.1875 25.875H28.9375V23.75C28.9375 23.1632 29.4132 22.6875 30 22.6875C30.5868 22.6875 31.0625 23.1632 31.0625 23.75V24.2812C31.0625 24.8681 31.5382 25.3438 32.125 25.3438C32.7118 25.3438 33.1875 24.8681 33.1875 24.2812V23.75C33.1875 21.9895 31.7605 20.5625 30 20.5625C28.2395 20.5625 26.8125 21.9895 26.8125 23.75ZM27.875 28V30.125H32.125V28H27.875Z" fill="#d0ff96"/>
<path fill-rule="evenodd" clip-rule="evenodd" d="M29.6369 13.1891C29.8714 13.1036 30.1286 13.1036 30.3631 13.1891L42.0506 17.4493C42.4705 17.6024 42.75 18.0024 42.75 18.4502V26.2665C42.75 27.3083 42.7382 28.6776 42.6043 30.0258C42.4728 31.349 42.214 32.7723 41.6559 33.8655C41.1311 34.8938 40.117 35.9548 39.0151 36.9246C37.8878 37.9165 36.5658 38.9004 35.3166 39.7654C34.0645 40.6325 32.8692 41.3913 31.9879 41.9329C31.5468 42.2039 31.1833 42.4213 30.9293 42.5713C30.2265 42.9862 29.7393 42.9661 29.0707 42.5713C28.8167 42.4213 28.4532 42.2039 28.0121 41.9329C27.1308 41.3913 25.9355 40.6325 24.6834 39.7654C23.4342 38.9004 22.1122 37.9165 20.9849 36.9246C19.883 35.9548 18.8689 34.8938 18.344 33.8655C17.786 32.7723 17.5272 31.349 17.3957 30.0258C17.2618 28.6776 17.25 27.3083 17.25 26.2665V18.4502C17.25 18.0024 17.5295 17.6024 17.9494 17.4493L29.6369 13.1891ZM30 40.6475C30.2308 40.5103 30.5288 40.3311 30.8773 40.1169C31.7366 39.5888 32.8975 38.8516 34.1089 38.0128C35.3231 37.172 36.5717 36.2403 37.6131 35.3238C38.6799 34.3851 39.4328 33.5447 39.7642 32.8953C40.1348 32.1694 40.3646 31.0743 40.4897 29.8146C40.6124 28.5799 40.625 27.3017 40.625 26.2665V19.1962L30 15.3233L19.375 19.1962V26.2665C19.375 27.3017 19.3876 28.5799 19.5103 29.8146C19.6354 31.0743 19.8652 32.1694 20.2358 32.8953C20.5673 33.5447 21.3202 34.3851 22.3869 35.3238C23.4284 36.2403 24.6769 37.172 25.8911 38.0128C27.1025 38.8516 28.2635 39.5888 29.1227 40.1169C29.4712 40.3311 29.7692 40.5103 30 40.6475Z" fill="#d0ff96"/>
<defs>
<linearGradient id="paint0_linear_2321_421" x1="4.76" y1="28" x2="75.5253" y2="28" gradientUnits="userSpaceOnUse">
<stop stop-color="#d0ff96" stop-opacity="0.65"/>
<stop offset="1" stop-color="#d0ff96" stop-opacity="0.28"/>
</linearGradient>
</defs>
</svg>
