<svg width="37" height="37" viewBox="0 0 37 37" fill="none" xmlns="http://www.w3.org/2000/svg">
<g clip-path="url(#clip0_2730_4493)">
<path d="M21.3906 31.5078C22.1889 31.5078 22.8359 30.8607 22.8359 30.0625V28.6172H25.7266V30.0625C25.7266 30.8607 26.3736 31.5078 27.1719 31.5078H30.0625C30.8607 31.5078 31.5078 30.8607 31.5078 30.0625C31.5078 29.2643 30.8607 28.6172 30.0625 28.6172H28.6172V27.1719C28.6172 26.3736 27.9701 25.7266 27.1719 25.7266H22.8359V21.3906C22.8359 20.5924 22.1889 19.9453 21.3906 19.9453C20.5924 19.9453 19.9453 20.5924 19.9453 21.3906V30.0625C19.9453 30.8607 20.5924 31.5078 21.3906 31.5078Z" fill="#352101"/>
<path d="M27.1719 22.8359H28.6172V24.2812C28.6172 25.0795 29.2643 25.7266 30.0625 25.7266C30.8607 25.7266 31.5078 25.0795 31.5078 24.2812V21.3906C31.5078 20.5924 30.8607 19.9453 30.0625 19.9453H27.1719C26.3736 19.9453 25.7266 20.5924 25.7266 21.3906C25.7266 22.1889 26.3736 22.8359 27.1719 22.8359Z" fill="#352101"/>
<path d="M1.44531 11.5625C2.24356 11.5625 2.89062 10.9154 2.89062 10.1172V7.22656C2.89062 4.83573 4.83573 2.89062 7.22656 2.89062H10.1172C10.9154 2.89062 11.5625 2.24356 11.5625 1.44531C11.5625 0.647066 10.9154 0 10.1172 0H7.22656C3.24184 0 0 3.24184 0 7.22656V10.1172C0 10.9154 0.647066 11.5625 1.44531 11.5625Z" fill="#352101"/>
<path d="M29.7734 0H26.8828C26.0846 0 25.4375 0.647066 25.4375 1.44531C25.4375 2.24356 26.0846 2.89062 26.8828 2.89062H29.7734C32.1643 2.89062 34.1094 4.83573 34.1094 7.22656V10.1172C34.1094 10.9154 34.7564 11.5625 35.5547 11.5625C36.3529 11.5625 37 10.9154 37 10.1172V7.22656C37 3.24184 33.7582 0 29.7734 0Z" fill="#352101"/>
<path d="M7.22656 37H10.1172C10.9154 37 11.5625 36.3529 11.5625 35.5547C11.5625 34.7564 10.9154 34.1094 10.1172 34.1094H7.22656C4.83573 34.1094 2.89062 32.1643 2.89062 29.7734V26.8828C2.89062 26.0846 2.24356 25.4375 1.44531 25.4375C0.647066 25.4375 0 26.0846 0 26.8828V29.7734C0 33.7582 3.24184 37 7.22656 37Z" fill="#352101"/>
<path d="M35.5547 25.4375C34.7564 25.4375 34.1094 26.0846 34.1094 26.8828V29.7734C34.1094 32.1643 32.1643 34.1094 29.7734 34.1094H26.8828C26.0846 34.1094 25.4375 34.7564 25.4375 35.5547C25.4375 36.3529 26.0846 37 26.8828 37H29.7734C33.7582 37 37 33.7582 37 29.7734V26.8828C37 26.0846 36.3529 25.4375 35.5547 25.4375Z" fill="#352101"/>
<path d="M5.49219 9.82812V12.7188C5.49219 15.1096 7.43729 17.0547 9.82812 17.0547H12.7188C15.1096 17.0547 17.0547 15.1096 17.0547 12.7188V9.82812C17.0547 7.43729 15.1096 5.49219 12.7188 5.49219H9.82812C7.43729 5.49219 5.49219 7.43729 5.49219 9.82812ZM14.1641 9.82812V12.7188C14.1641 13.5157 13.5157 14.1641 12.7188 14.1641H9.82812C9.03118 14.1641 8.38281 13.5157 8.38281 12.7188V9.82812C8.38281 9.03118 9.03118 8.38281 9.82812 8.38281H12.7188C13.5157 8.38281 14.1641 9.03118 14.1641 9.82812Z" fill="#352101"/>
<path d="M24.2812 17.0547H27.1719C29.5627 17.0547 31.5078 15.1096 31.5078 12.7188V9.82812C31.5078 7.43729 29.5627 5.49219 27.1719 5.49219H24.2812C21.8904 5.49219 19.9453 7.43729 19.9453 9.82812V12.7188C19.9453 15.1096 21.8904 17.0547 24.2812 17.0547ZM22.8359 9.82812C22.8359 9.03118 23.4843 8.38281 24.2812 8.38281H27.1719C27.9688 8.38281 28.6172 9.03118 28.6172 9.82812V12.7188C28.6172 13.5157 27.9688 14.1641 27.1719 14.1641H24.2812C23.4843 14.1641 22.8359 13.5157 22.8359 12.7188V9.82812Z" fill="#352101"/>
<path d="M17.0547 24.2812C17.0547 21.8904 15.1096 19.9453 12.7188 19.9453H9.82812C7.43729 19.9453 5.49219 21.8904 5.49219 24.2812V27.1719C5.49219 29.5627 7.43729 31.5078 9.82812 31.5078H12.7188C15.1096 31.5078 17.0547 29.5627 17.0547 27.1719V24.2812ZM14.1641 27.1719C14.1641 27.9688 13.5157 28.6172 12.7188 28.6172H9.82812C9.03118 28.6172 8.38281 27.9688 8.38281 27.1719V24.2812C8.38281 23.4843 9.03118 22.8359 9.82812 22.8359H12.7188C13.5157 22.8359 14.1641 23.4843 14.1641 24.2812V27.1719Z" fill="#352101"/>
</g>
<defs>
<clipPath id="clip0_2730_4493">
<rect width="37" height="37" fill="white"/>
</clipPath>
</defs>
</svg>
