<svg width="60" height="56" viewBox="0 0 60 56" fill="none" xmlns="http://www.w3.org/2000/svg">
<rect x="1" y="1" width="58" height="54" rx="9" fill="#090402" stroke="url(#paint0_linear_410_119)" stroke-width="2"/>
<path d="M24.1066 32.3234C24.9967 32.3234 25.8867 31.9847 26.5643 31.3071C27.2208 30.6506 27.5823 29.7778 27.5823 28.8494C27.5823 28.2313 27.4213 27.6383 27.1205 27.1171L28.7684 25.4692C29.3026 25.776 29.9011 25.9301 30.5 25.9301C31.0989 25.9301 31.6974 25.776 32.2316 25.4693L33.8801 27.1178C33.1175 28.4458 33.3022 30.1736 34.4357 31.3071C35.0921 31.9636 35.965 32.3252 36.8934 32.3252C37.8218 32.3252 38.6946 31.9636 39.3511 31.3071C40.0075 30.6507 40.3691 29.7778 40.3691 28.8494C40.3691 27.921 40.0076 27.0481 39.3511 26.3917C38.6947 25.7352 37.8218 25.3736 36.8934 25.3736C36.2754 25.3736 35.6824 25.5347 35.1611 25.8355L33.5133 24.1876C34.2759 22.8596 34.0912 21.1319 32.9578 19.9984C32.3013 19.3418 31.4285 18.9803 30.5001 18.9803C29.5717 18.9803 28.6989 19.3418 28.0424 19.9984C26.9089 21.1319 26.7242 22.8596 27.4869 24.1876L25.839 25.8355C25.3177 25.5347 24.7248 25.3737 24.1067 25.3737C23.1783 25.3737 22.3055 25.7352 21.6491 26.3917C20.9926 27.0481 20.6311 27.921 20.6311 28.8494C20.6311 29.7778 20.9926 30.6507 21.6491 31.3071C22.3265 31.9847 23.2166 32.3234 24.1066 32.3234ZM38.0695 27.6733C38.3836 27.9875 38.5566 28.4051 38.5566 28.8494C38.5566 29.2937 38.3836 29.7113 38.0695 30.0255C37.7553 30.3396 37.3377 30.5127 36.8934 30.5127C36.4491 30.5127 36.0315 30.3396 35.7173 30.0255C35.0689 29.377 35.0689 28.3218 35.7173 27.6733C36.0315 27.3592 36.4491 27.1862 36.8934 27.1862C37.3377 27.1862 37.7553 27.3592 38.0695 27.6733ZM29.324 21.28C29.6381 20.9658 30.0558 20.7928 30.5001 20.7928C30.9443 20.7928 31.362 20.9658 31.6761 21.28C32.3246 21.9285 32.3246 22.9836 31.6761 23.6321C31.0277 24.2805 29.9725 24.2806 29.324 23.6321C28.6755 22.9836 28.6755 21.9285 29.324 21.28ZM22.9306 27.6733C23.2447 27.3592 23.6624 27.1861 24.1067 27.1861C24.5509 27.1861 24.9686 27.3592 25.2828 27.6733C25.5969 27.9875 25.7699 28.4051 25.7699 28.8494C25.7699 29.2937 25.5969 29.7114 25.2828 30.0255C24.6343 30.6739 23.5791 30.674 22.9306 30.0255C22.6165 29.7114 22.4434 29.2937 22.4434 28.8494C22.4434 28.4051 22.6164 27.9875 22.9306 27.6733ZM44.0938 15H16.9062C16.4058 15 16 15.4057 16 15.9062V35.3991C16 35.8996 16.4058 36.3053 16.9062 36.3053H24.0194L22.5814 40.3327C22.4823 40.6102 22.5244 40.9187 22.6941 41.1595C22.8639 41.4004 23.1402 41.5437 23.4349 41.5437H37.5651C37.8598 41.5437 38.1361 41.4004 38.3058 41.1595C38.4756 40.9187 38.5177 40.6103 38.4185 40.3327L36.9805 36.3053H44.0938C44.5942 36.3053 45 35.8996 45 35.3991V15.9062C45 15.4057 44.5942 15 44.0938 15ZM36.2793 39.7312H24.7207L25.944 36.3053H35.0561L36.2793 39.7312ZM43.1875 34.4928H17.8125V16.8125H43.1875V34.4928Z" fill="#d0ff96"/>
<defs>
<linearGradient id="paint0_linear_410_119" x1="4.76" y1="28" x2="75.5253" y2="28" gradientUnits="userSpaceOnUse">
<stop stop-color="#d0ff96" stop-opacity="0.65"/>
<stop offset="1" stop-color="#d0ff96" stop-opacity="0.28"/>
</linearGradient>
</defs>
</svg>
