<svg width="36" height="36" viewBox="0 0 36 36" fill="none" xmlns="http://www.w3.org/2000/svg">
<g clip-path="url(#clip0_2730_4491)">
<path d="M15.3984 36H8.4375C3.78506 36 0 32.2149 0 27.5625V8.4375C0 3.78506 3.78506 0 8.4375 0H14.2734C16.6902 0 18.9927 1.01475 20.5905 2.78402C21.111 3.36045 21.0658 4.24969 20.4894 4.77021C19.9131 5.29073 19.0238 5.24545 18.5032 4.6691C17.4376 3.48919 15.896 2.8125 14.2734 2.8125H8.4375C5.33588 2.8125 2.8125 5.33588 2.8125 8.4375V27.5625C2.8125 30.6641 5.33588 33.1875 8.4375 33.1875H15.3984C17.2623 33.2566 17.2609 35.9315 15.3984 36ZM7.17188 29.7422C6.3952 29.7422 5.76563 29.1126 5.76563 28.3359V14.2031C5.76563 10.3261 8.91984 7.17188 12.7969 7.17188H28.9688C32.8458 7.17188 36 10.3261 36 14.2031V15.6797C35.9309 17.5435 33.256 17.5421 33.1875 15.6797V14.2031C33.1875 11.8769 31.295 9.98438 28.9688 9.98438H12.7969C10.4707 9.98438 8.57813 11.8769 8.57813 14.2031V28.3359C8.57813 29.1126 7.94855 29.7422 7.17188 29.7422ZM26.5078 36C13.93 35.5212 13.9379 17.4904 26.508 17.0156C27.8358 17.0156 29.1691 17.3192 30.4705 17.9177C31.1761 18.2423 31.485 19.0773 31.1604 19.7829C30.8359 20.4885 30.0007 20.7976 29.2952 20.4728C24.9903 18.3359 19.7424 21.7531 19.8282 26.5078C19.9275 33.9602 30.1793 35.7367 32.794 28.7729C33.0574 28.0424 33.8631 27.6635 34.5938 27.927C35.3244 28.1903 35.7032 28.9962 35.4398 29.7268C34.0874 33.479 30.4979 36 26.5078 36ZM27.5649 29.3906C26.6032 29.3906 25.7001 29.0116 25.022 28.3234L23.0409 26.2951C22.4982 25.7395 22.5087 24.8492 23.0643 24.3065C23.6199 23.7639 24.5102 23.7743 25.053 24.3299L27.0299 26.3538C27.3123 26.6517 27.8208 26.6509 28.1041 26.3495L33.5948 20.8072C34.1414 20.2554 35.0318 20.2513 35.5835 20.7979C36.1353 21.3444 36.1394 22.2348 35.5928 22.7866L30.1049 28.3262C29.4297 29.0116 28.5266 29.3906 27.5649 29.3906Z" fill="#352101"/>
</g>
<defs>
<clipPath id="clip0_2730_4491">
<rect width="36" height="36" fill="white"/>
</clipPath>
</defs>
</svg>
