<svg width="60" height="56" viewBox="0 0 60 56" fill="none" xmlns="http://www.w3.org/2000/svg">
<rect x="1" y="1" width="58" height="54" rx="9" fill="#090402" stroke="url(#paint0_linear_410_118)" stroke-width="2"/>
<g clip-path="url(#clip0_410_118)">
<path d="M34.2686 17.6421L35.8698 16.0409L38.7003 18.8714L43.3988 14.1726L45 15.7738L38.7003 22.0736L34.2686 17.6421ZM43.2658 20.7104C44.388 22.794 44.9838 25.1353 44.9838 27.5684C44.9838 31.4394 43.4765 35.0786 40.7393 37.8159C38.0022 40.553 34.3628 42.0407 30.492 42.0407C26.621 42.0407 22.9818 40.553 20.2445 37.8159C17.5074 35.0786 16 31.4394 16 27.5684C16 23.6976 17.5074 20.0582 20.2445 17.3211C22.9818 14.5839 26.621 13.0566 30.492 13.0566C32.0247 13.0566 33.5208 13.3137 34.9392 13.7691L33.0891 15.6194C32.2517 15.4375 31.383 15.3409 30.492 15.3409C23.7496 15.3409 18.2643 20.8261 18.2643 27.5684C18.2643 30.6528 19.413 33.474 21.3041 35.6275C21.9621 32.6833 24.0025 30.2555 26.7062 29.0631C25.5774 28.0339 24.8678 26.5522 24.8678 24.9078C24.8678 21.8067 27.3907 19.2836 30.492 19.2836C33.5931 19.2836 36.1161 21.8065 36.1161 24.9078C36.1161 26.5522 35.4067 28.0339 34.2779 29.0631C36.9814 30.2555 39.022 32.6833 39.6798 35.6275C41.571 33.4738 42.7196 30.6528 42.7196 27.5684C42.7196 25.7236 42.308 23.973 41.5732 22.403L43.2658 20.7104ZM30.492 28.2675C32.3446 28.2675 33.8518 26.7604 33.8518 24.9078C33.8518 23.055 32.3446 21.5479 30.492 21.5479C28.6393 21.5479 27.1321 23.055 27.1321 24.9078C27.1321 26.7604 28.6393 28.2675 30.492 28.2675ZM30.492 39.7961C33.1581 39.7961 35.6273 38.9376 37.6389 37.4836C37.5336 33.6325 34.3682 30.5318 30.492 30.5318C26.6159 30.5318 23.4502 33.6325 23.3451 37.4836C25.3568 38.9376 27.8257 39.7961 30.492 39.7961Z" fill="#d0ff96"/>
</g>
<defs>
<linearGradient id="paint0_linear_410_118" x1="4.76" y1="28" x2="75.5253" y2="28" gradientUnits="userSpaceOnUse">
<stop stop-color="#d0ff96" stop-opacity="0.65"/>
<stop offset="1" stop-color="#d0ff96" stop-opacity="0.28"/>
</linearGradient>
<clipPath id="clip0_410_118">
<rect width="29" height="29" fill="white" transform="translate(16 13)"/>
</clipPath>
</defs>
</svg>
