<svg width="103" height="103" viewBox="0 0 103 103" fill="none" xmlns="http://www.w3.org/2000/svg">
<g clip-path="url(#clip0_3896_1075)">
<g opacity="0.32" filter="url(#filter0_f_3896_1075)">
<path d="M41.8722 14.0237L50.3149 30.8695C50.902 32.0411 52.034 32.8509 53.342 33.0351L72.1471 35.6876C75.4412 36.1526 76.7635 40.1553 74.3864 42.4609L60.8111 55.63C59.8677 56.5457 59.4383 57.8634 59.6649 59.1515L62.9149 77.684C63.4846 80.9298 60.0475 83.4153 57.0994 81.8916L40.2671 73.1854C39.0966 72.5804 37.6988 72.5844 36.5308 73.1958L19.7356 81.9965C16.794 83.5383 13.3464 81.0706 13.9023 77.8217L17.0737 59.2711C17.2949 57.9817 16.8599 56.6664 15.9126 55.756L2.28164 42.6633C-0.105218 40.3696 1.20011 36.3595 4.49222 35.8776L23.2858 33.1195C24.593 32.928 25.7217 32.1118 26.3038 30.9369L34.6749 14.0439C36.1395 11.085 40.3935 11.0731 41.8722 14.0237Z" fill="url(#paint0_linear_3896_1075)"/>
</g>
<path d="M99.6242 56.0922L99.6242 56.0922C101.953 54.8324 101.834 51.4708 99.3885 50.4006L99.6242 56.0922ZM99.6242 56.0922L82.33 65.4491L82.3298 65.4492C80.8548 66.2478 79.865 67.715 79.6899 69.3729C79.6899 69.3731 79.6899 69.3732 79.6899 69.3734L77.6353 88.752L77.6353 88.7522C77.3597 91.3563 74.1694 92.557 72.2205 90.7369C72.2204 90.7368 72.2203 90.7368 72.2203 90.7367L57.9288 77.3801L57.9285 77.3799C56.7108 76.2426 55.0035 75.7719 53.3633 76.1211L53.3629 76.1212L34.107 80.2282L34.1069 80.2283C31.4821 80.7884 29.3879 78.1303 30.5256 75.7631L30.5256 75.7629L38.9861 58.1506C39.7108 56.6441 39.6384 54.8837 38.7988 53.4469L38.7986 53.4466L28.9514 36.6065C28.9513 36.6064 28.9513 36.6063 28.9513 36.6063C27.6249 34.3365 29.5004 31.5255 32.153 31.8624L32.1533 31.8625L51.6748 34.3348C51.6749 34.3348 51.675 34.3348 51.675 34.3348C53.3372 34.5457 55.0034 33.9339 56.1291 32.6931C56.1291 32.6931 56.1291 32.6931 56.1291 32.6931L69.2995 18.1776L69.2998 18.1773C71.0812 16.2122 74.3686 17.1177 74.8565 19.7098L75.7806 19.5313L74.8565 19.7098L78.4599 38.8501C78.4599 38.8502 78.4599 38.8502 78.4599 38.8502C78.7678 40.4862 79.8693 41.8611 81.401 42.5309C81.4011 42.5309 81.4011 42.5309 81.4012 42.531L99.3884 50.4005L99.6242 56.0922Z" fill="url(#paint1_linear_3896_1075)" fill-opacity="0.32" stroke="url(#paint2_linear_3896_1075)" stroke-width="1.88038"/>
<path fill-rule="evenodd" clip-rule="evenodd" d="M50.7161 30.9394L42.2369 14.0622C40.7518 11.1061 36.4878 11.1221 35.0227 14.0894L26.6487 31.0302C26.0663 32.2085 24.9358 33.0276 23.6258 33.2209L4.79072 36.0037C1.49135 36.4899 0.186925 40.5107 2.58167 42.8075L16.2576 55.9178C17.208 56.8294 17.6454 58.1474 17.425 59.44L14.2645 78.0372C13.7105 81.2943 17.1686 83.7645 20.1156 82.2162L29.1801 77.4552C29.1744 76.86 29.3032 76.2441 29.593 75.6409L38.0537 58.0281C38.6425 56.8041 38.5846 55.372 37.9004 54.2011L28.0531 37.3608C26.3291 34.4109 28.7758 30.7757 32.1951 31.21L51.7169 33.6823C52.619 33.7968 53.5213 33.6144 54.294 33.183L53.7525 33.1072C52.4413 32.9238 51.3057 32.1132 50.7161 30.9394ZM61.2237 82.1066L57.1984 78.3446C56.2044 77.4162 54.8099 77.0318 53.471 77.3169L49.845 78.0902L57.5672 82.0749C58.8119 82.7167 60.1427 82.6461 61.2237 82.1066Z" fill="url(#paint3_linear_3896_1075)"/>
<path d="M65.8927 65.5921L61.1878 60.4943L54.4923 62.4479C54.2486 62.5205 53.9843 62.437 53.8253 62.2389C53.6667 62.0416 53.6454 61.7687 53.7719 61.5497L57.2229 55.551L53.3347 49.878C53.1904 49.6702 53.1884 49.3964 53.3295 49.1865C53.4708 48.976 53.7272 48.8718 53.9767 48.9224L60.7536 50.2969L65.0082 44.8257C65.32 44.4265 66.0683 44.6329 66.126 45.134L66.9003 51.9921L73.4182 54.2843C73.6582 54.3687 73.823 54.589 73.8336 54.8414C73.8444 55.0932 73.6993 55.3264 73.467 55.4304L67.169 58.2941L66.9795 65.1924C66.973 65.4445 66.8119 65.6671 66.5728 65.7547C66.3281 65.8446 66.0608 65.7745 65.8927 65.5921Z" fill="url(#paint4_linear_3896_1075)"/>
</g>
<defs>
<filter id="filter0_f_3896_1075" x="-12.1036" y="-1.34502" width="100.863" height="96.975" filterUnits="userSpaceOnUse" color-interpolation-filters="sRGB">
<feFlood flood-opacity="0" result="BackgroundImageFix"/>
<feBlend mode="normal" in="SourceGraphic" in2="BackgroundImageFix" result="shape"/>
<feGaussianBlur stdDeviation="6.58132" result="effect1_foregroundBlur_3896_1075"/>
</filter>
<linearGradient id="paint0_linear_3896_1075" x1="70.8716" y1="-17.1518" x2="-15.0737" y2="38.3895" gradientUnits="userSpaceOnUse">
<stop stop-color="#FFE9AE"/>
<stop offset="1" stop-color="#E3A729"/>
</linearGradient>
<linearGradient id="paint1_linear_3896_1075" x1="74.258" y1="16.5565" x2="54.8378" y2="86.9911" gradientUnits="userSpaceOnUse">
<stop stop-color="#403F3F"/>
<stop offset="1" stop-color="#161616"/>
</linearGradient>
<linearGradient id="paint2_linear_3896_1075" x1="74.258" y1="16.5565" x2="54.8378" y2="86.9911" gradientUnits="userSpaceOnUse">
<stop stop-color="#919191" stop-opacity="0.08"/>
<stop offset="1" stop-color="#757272"/>
</linearGradient>
<linearGradient id="paint3_linear_3896_1075" x1="73.1103" y1="-16.3024" x2="-12.9821" y2="39.4548" gradientUnits="userSpaceOnUse">
<stop stop-color="#FFE9AE"/>
<stop offset="1" stop-color="#E3A729"/>
</linearGradient>
<linearGradient id="paint4_linear_3896_1075" x1="60.4539" y1="43.7386" x2="65.0947" y2="63.6923" gradientUnits="userSpaceOnUse">
<stop stop-color="#F8FBFA"/>
<stop offset="1" stop-color="#6F6F6F" stop-opacity="0.51"/>
</linearGradient>
<clipPath id="clip0_3896_1075">
<rect width="103" height="103" fill="white"/>
</clipPath>
</defs>
</svg>
