<svg width="103" height="103" viewBox="0 0 103 103" fill="none" xmlns="http://www.w3.org/2000/svg">
<g clip-path="url(#clip0_3896_1026)">
<g opacity="0.64" filter="url(#filter0_f_3896_1026)">
<path fill-rule="evenodd" clip-rule="evenodd" d="M14.0732 44.5777C16.763 43.617 20.01 42.5805 23.6861 41.6403L22.9291 35.5239C22.0472 28.3979 27.1271 21.8829 34.2531 21.001C39.6693 20.3306 44.7325 23.1044 47.2377 27.603C49.2907 24.8944 51.9116 22.696 54.8756 21.1387C50.2007 14.2078 41.8865 10.0799 33.037 11.1751C20.4929 12.7277 11.5507 24.1961 13.1032 36.7401L14.0732 44.5777ZM58.5124 30.4602C55.8524 32.1595 53.7979 34.8219 52.9319 38.1077L52.8272 38.5049C55.3119 38.5903 57.5793 38.7531 59.572 38.9465L58.602 31.1088C58.5751 30.8915 58.5452 30.6753 58.5124 30.4602ZM41.3884 43.0573L41.3452 43.2212C44.1994 43.3291 47.5991 43.5737 51.3613 44.0673L51.6926 42.81C58.4492 42.9857 63.6932 43.7683 66.1223 44.1978L67.0757 51.9017C65.7745 51.4951 64.437 51.1078 63.0676 50.7469C49.9311 47.2848 38.2033 47.3782 34.1497 47.5449L25.8255 79.1301C27.6893 80.2878 31.5165 82.5325 36.7076 84.8966C25.6133 85.6184 16.4665 84.2936 13.012 83.6828L9 51.2664C12.7013 49.605 23.5541 45.1591 37.0362 43.4905C38.5114 43.308 39.9647 43.1654 41.3884 43.0573Z" fill="url(#paint0_linear_3896_1026)"/>
</g>
<path fill-rule="evenodd" clip-rule="evenodd" d="M14.0732 44.5777C16.763 43.617 20.01 42.5805 23.6861 41.6403L22.9291 35.5239C22.0472 28.3979 27.1271 21.8829 34.2531 21.001C39.6693 20.3306 44.7325 23.1044 47.2377 27.603C49.2907 24.8944 51.9116 22.696 54.8756 21.1387C50.2007 14.2078 41.8865 10.0799 33.037 11.1751C20.4929 12.7277 11.5507 24.1961 13.1032 36.7401L14.0732 44.5777ZM58.5124 30.4602C55.8524 32.1595 53.7979 34.8219 52.9319 38.1077L52.8272 38.5049C55.3119 38.5903 57.5793 38.7531 59.572 38.9465L58.602 31.1088C58.5751 30.8915 58.5452 30.6753 58.5124 30.4602ZM41.3884 43.0573L41.3452 43.2212C44.1994 43.3291 47.5991 43.5737 51.3613 44.0673L51.6926 42.81C58.4492 42.9857 63.6932 43.7683 66.1223 44.1978L67.0757 51.9017C65.7745 51.4951 64.437 51.1078 63.0676 50.7469C49.9311 47.2848 38.2033 47.3782 34.1497 47.5449L25.8255 79.1301C27.6893 80.2878 31.5165 82.5325 36.7076 84.8966C25.6133 85.6184 16.4665 84.2936 13.012 83.6828L9 51.2664C12.7013 49.605 23.5541 45.1591 37.0362 43.4905C38.5114 43.308 39.9647 43.1654 41.3884 43.0573Z" fill="url(#paint1_linear_3896_1026)"/>
<mask id="path-3-inside-1_3896_1026" fill="white">
<path fill-rule="evenodd" clip-rule="evenodd" d="M51.3612 44.0667C47.599 43.5732 44.1993 43.3285 41.3452 43.2206L43.3578 35.584C46.579 23.3616 59.1433 16.0385 71.3658 19.2598C83.5882 22.481 90.9112 35.0453 87.69 47.2676L85.6774 54.9043C83.1408 53.5915 80.0621 52.1288 76.5454 50.704L78.116 44.7444C79.9459 37.801 75.7859 30.6635 68.8426 28.8336C61.8993 27.0037 54.7618 31.1638 52.9319 38.1071L51.3612 44.0667ZM63.0675 50.7468C49.9311 47.2847 38.2033 47.3782 34.1497 47.5448L25.8254 79.13C29.2763 81.2736 39.4578 87.1433 52.5649 90.5977C65.7013 94.0598 77.4291 93.9663 81.4826 93.7996L89.8068 62.2144C86.3561 60.0709 76.1747 54.2012 63.0675 50.7468Z"/>
</mask>
<path fill-rule="evenodd" clip-rule="evenodd" d="M51.3612 44.0667C47.599 43.5732 44.1993 43.3285 41.3452 43.2206L43.3578 35.584C46.579 23.3616 59.1433 16.0385 71.3658 19.2598C83.5882 22.481 90.9112 35.0453 87.69 47.2676L85.6774 54.9043C83.1408 53.5915 80.0621 52.1288 76.5454 50.704L78.116 44.7444C79.9459 37.801 75.7859 30.6635 68.8426 28.8336C61.8993 27.0037 54.7618 31.1638 52.9319 38.1071L51.3612 44.0667ZM63.0675 50.7468C49.9311 47.2847 38.2033 47.3782 34.1497 47.5448L25.8254 79.13C29.2763 81.2736 39.4578 87.1433 52.5649 90.5977C65.7013 94.0598 77.4291 93.9663 81.4826 93.7996L89.8068 62.2144C86.3561 60.0709 76.1747 54.2012 63.0675 50.7468Z" fill="url(#paint2_linear_3896_1026)" fill-opacity="0.62"/>
<path d="M41.3452 43.2206L39.4112 42.7109L38.775 45.1249L41.2696 45.2192L41.3452 43.2206ZM51.3612 44.0667L51.1011 46.0497L52.8465 46.2787L53.2952 44.5764L51.3612 44.0667ZM85.6774 54.9043L84.7581 56.6805L86.9751 57.828L87.6113 55.414L85.6774 54.9043ZM76.5454 50.704L74.6114 50.1943L74.1628 51.8966L75.7944 52.5576L76.5454 50.704ZM34.1497 47.5448L34.0675 45.5465L32.592 45.6072L32.2157 47.0351L34.1497 47.5448ZM25.8254 79.13L23.8915 78.6203L23.5149 80.0492L24.7701 80.8289L25.8254 79.13ZM81.4826 93.7996L81.5648 95.7979L83.0402 95.7372L83.4166 94.3093L81.4826 93.7996ZM89.8068 62.2144L91.7408 62.7241L92.1174 61.2952L90.8622 60.5155L89.8068 62.2144ZM41.2696 45.2192C44.0703 45.3251 47.4078 45.5652 51.1011 46.0497L51.6213 42.0837C47.7903 41.5811 44.3284 41.332 41.4207 41.222L41.2696 45.2192ZM41.4238 35.0743L39.4112 42.7109L43.2791 43.7303L45.2918 36.0937L41.4238 35.0743ZM71.8755 17.3258C58.5849 13.8231 44.9266 21.7838 41.4238 35.0743L45.2918 36.0937C48.2315 24.9394 59.7017 18.254 70.8561 21.1937L71.8755 17.3258ZM89.624 47.7773C93.1267 34.4869 85.166 20.8285 71.8755 17.3258L70.8561 21.1937C82.0104 24.1334 88.6958 35.6037 85.7561 46.7579L89.624 47.7773ZM87.6113 55.414L89.624 47.7773L85.7561 46.7579L83.7434 54.3946L87.6113 55.414ZM75.7944 52.5576C79.2467 53.9563 82.2691 55.3923 84.7581 56.6805L86.5967 53.1281C84.0125 51.7907 80.8775 50.3013 77.2964 48.8503L75.7944 52.5576ZM76.1821 44.2347L74.6114 50.1943L78.4793 51.2137L80.05 45.254L76.1821 44.2347ZM68.3329 30.7676C74.2081 32.316 77.7305 38.3595 76.1821 44.2347L80.05 45.254C82.1614 37.2426 77.3637 29.0111 69.3523 26.8997L68.3329 30.7676ZM54.8658 38.6168C56.4142 32.7416 62.4577 29.2192 68.3329 30.7676L69.3523 26.8997C61.3409 24.7883 53.1093 29.586 50.9979 37.5974L54.8658 38.6168ZM53.2952 44.5764L54.8658 38.6168L50.9979 37.5974L49.4272 43.557L53.2952 44.5764ZM34.2318 49.5431C38.1813 49.3808 49.6889 49.2891 62.5578 52.6808L63.5772 48.8128C50.1733 45.2802 38.2252 45.3756 34.0675 45.5465L34.2318 49.5431ZM27.7594 79.6397L36.0836 48.0545L32.2157 47.0351L23.8915 78.6203L27.7594 79.6397ZM53.0746 88.6637C40.2351 85.2799 30.2442 79.5204 26.8807 77.4311L24.7701 80.8289C28.3083 83.0267 38.6805 89.0068 52.0552 92.5316L53.0746 88.6637ZM81.4004 91.8013C77.4511 91.9637 65.9435 92.0553 53.0746 88.6637L52.0552 92.5316C65.4591 96.0642 77.4072 95.9689 81.5648 95.7979L81.4004 91.8013ZM87.8729 61.7047L79.5486 93.2899L83.4166 94.3093L91.7408 62.7241L87.8729 61.7047ZM62.5578 52.6808C75.3974 56.0646 85.3882 61.8241 88.7515 63.9133L90.8622 60.5155C87.3241 58.3177 76.952 52.3378 63.5772 48.8128L62.5578 52.6808Z" fill="url(#paint3_linear_3896_1026)" mask="url(#path-3-inside-1_3896_1026)"/>
<g opacity="0.29" filter="url(#filter1_f_3896_1026)">
<path fill-rule="evenodd" clip-rule="evenodd" d="M67.076 51.9017L70.1345 76.6142C66.4334 78.2756 55.5805 82.7215 42.0984 84.3901C40.2627 84.6173 38.4609 84.7825 36.7077 84.8965C31.5167 82.5325 27.6895 80.2878 25.8257 79.1301L34.1499 47.5449C38.2035 47.3783 49.9314 47.2848 63.0678 50.7469C64.4372 51.1078 65.7747 51.4951 67.076 51.9017ZM51.6928 42.81L51.3615 44.0673C47.5993 43.5738 44.1996 43.3291 41.3455 43.2212L41.3887 43.0573C45.0642 42.7781 48.5429 42.7281 51.6928 42.81ZM52.8275 38.5049C51.7675 38.4684 50.6679 38.446 49.5333 38.4414L48.7762 32.3249C48.5646 30.6151 48.0287 29.0231 47.2379 27.603C49.291 24.8944 51.9118 22.696 54.8758 21.1387C56.7128 23.862 57.9878 27.0181 58.5126 30.4602C55.8526 32.1595 53.7981 34.822 52.9321 38.1077L52.8275 38.5049ZM42.8568 72.9214L42.7327 71.9187C41.4182 72.4662 39.9902 72.7957 38.4938 72.862L38.5669 73.4524L42.8568 72.9214Z" fill="url(#paint4_linear_3896_1026)"/>
</g>
<path d="M61.3844 70.093C60.5202 69.2293 59.5535 68.4875 58.6021 67.732C58.0501 67.2945 57.5371 66.8197 57.1275 66.2411C56.3214 65.0996 56.8994 63.7584 58.2664 63.5362C58.6535 63.4735 59.028 63.5212 59.4003 63.5983C60.8325 63.9031 62.1008 64.535 63.2044 65.5176C63.7536 66.0082 63.9909 65.9648 64.3926 65.3368C64.8157 64.6727 65.2042 63.9871 65.6127 63.313C65.886 62.8599 65.8015 62.4894 65.4106 62.1616C64.6934 61.5655 63.926 61.0696 63.0822 60.6847C61.9797 60.1878 61.9812 60.1822 62.3015 58.9808C62.7551 57.2883 62.7551 57.2883 61.1179 56.8439C60.8809 56.7796 60.6455 56.7097 60.407 56.651C59.6362 56.4657 59.4691 56.5702 59.2309 57.3624C59.1232 57.7167 59.037 58.0768 58.9332 58.4381C58.64 59.497 58.6391 59.4788 57.559 59.5811C54.947 59.8309 53.0277 61.1077 52.1444 63.7441C51.3606 66.0781 52.1215 68.0043 53.6844 69.6809C54.6469 70.7151 55.8135 71.4872 56.8884 72.3841C57.3087 72.7319 57.6983 73.1073 58.0029 73.5615C58.9081 74.8917 58.2367 76.5132 56.6638 76.7693C55.8228 76.9066 55.0084 76.7754 54.224 76.4487C53.0131 75.9463 51.9046 75.2798 50.9387 74.3646C50.3732 73.8276 50.1536 73.8698 49.7259 74.5507C49.3579 75.1399 49.0098 75.7405 48.6618 76.3412C48.1939 77.1489 48.224 77.3788 48.9159 78.004C49.7998 78.7952 50.8218 79.3542 51.8866 79.841C52.7197 80.2229 52.736 80.2693 52.4923 81.2098C52.3826 81.6354 52.2659 82.0652 52.1562 82.4908C52.0162 83.028 52.1791 83.4078 52.7092 83.5637C53.3093 83.7386 53.9179 83.9037 54.5256 84.0507C55.0241 84.174 55.353 83.9637 55.4939 83.4446C55.6514 82.8642 55.8374 82.2855 55.9734 81.6992C56.107 81.1003 56.4365 80.8662 57.0283 80.859C58.3908 80.8454 59.6588 80.4345 60.7729 79.6104C63.8656 77.3339 64.1405 72.8484 61.3844 70.093Z" fill="url(#paint5_linear_3896_1026)"/>
</g>
<defs>
<filter id="filter0_f_3896_1026" x="-1" y="1" width="78.0757" height="94.1062" filterUnits="userSpaceOnUse" color-interpolation-filters="sRGB">
<feFlood flood-opacity="0" result="BackgroundImageFix"/>
<feBlend mode="normal" in="SourceGraphic" in2="BackgroundImageFix" result="shape"/>
<feGaussianBlur stdDeviation="5" result="effect1_foregroundBlur_3896_1026"/>
</filter>
<filter id="filter1_f_3896_1026" x="17.8257" y="13.1387" width="60.3086" height="79.7578" filterUnits="userSpaceOnUse" color-interpolation-filters="sRGB">
<feFlood flood-opacity="0" result="BackgroundImageFix"/>
<feBlend mode="normal" in="SourceGraphic" in2="BackgroundImageFix" result="shape"/>
<feGaussianBlur stdDeviation="4" result="effect1_foregroundBlur_3896_1026"/>
</filter>
<linearGradient id="paint0_linear_3896_1026" x1="70.0135" y1="-31.2938" x2="-1.35976" y2="62.7655" gradientUnits="userSpaceOnUse">
<stop stop-color="#FFE9AE"/>
<stop offset="1" stop-color="#E3A729"/>
</linearGradient>
<linearGradient id="paint1_linear_3896_1026" x1="73.7858" y1="21.9007" x2="26.7437" y2="87.333" gradientUnits="userSpaceOnUse">
<stop stop-color="#FFE9AE"/>
<stop offset="1" stop-color="#E3A729"/>
</linearGradient>
<linearGradient id="paint2_linear_3896_1026" x1="72.4501" y1="19.3746" x2="53.6857" y2="90.5731" gradientUnits="userSpaceOnUse">
<stop stop-color="#403F3F"/>
<stop offset="1" stop-color="#161616"/>
</linearGradient>
<linearGradient id="paint3_linear_3896_1026" x1="72.4501" y1="19.3746" x2="53.6857" y2="90.5731" gradientUnits="userSpaceOnUse">
<stop stop-color="#919191" stop-opacity="0.08"/>
<stop offset="1" stop-color="#757272"/>
</linearGradient>
<linearGradient id="paint4_linear_3896_1026" x1="50.5275" y1="-7.07398" x2="-6.21518" y2="56.1945" gradientUnits="userSpaceOnUse">
<stop stop-color="#FFE9AE"/>
<stop offset="1" stop-color="#E3A729"/>
</linearGradient>
<linearGradient id="paint5_linear_3896_1026" x1="57.5727" y1="56.6157" x2="69.3912" y2="74.2769" gradientUnits="userSpaceOnUse">
<stop stop-color="#F8FBFA"/>
<stop offset="1" stop-color="#6F6F6F" stop-opacity="0.51"/>
</linearGradient>
<clipPath id="clip0_3896_1026">
<rect width="103" height="103" fill="white"/>
</clipPath>
</defs>
</svg>
