<svg width="103" height="103" viewBox="0 0 103 103" fill="none" xmlns="http://www.w3.org/2000/svg">
<path fill-rule="evenodd" clip-rule="evenodd" d="M44.726 22.4078L47.3361 8.84053L18.4996 13.5204L25.267 25.5657L44.726 22.4078ZM73.9826 62.3725C73.2063 58.1523 71.2308 54.2 68.2704 50.9422L46.4539 26.9353L25.0624 30.4069L11.9577 60.0811C10.1789 64.1081 9.55527 68.4822 10.1534 72.7312C10.7165 76.7293 12.3377 80.5544 14.8415 83.7956C17.3457 87.036 20.6393 89.5692 24.3654 91.1225C28.3258 92.7731 32.7161 93.2727 37.0617 92.5674L54.7285 89.7003C59.0736 88.9952 63.0812 87.1327 66.3163 84.3144C69.36 81.6624 71.6833 78.2176 73.0343 74.3515C74.3845 70.4849 74.7128 66.3428 73.9826 62.3725Z" fill="url(#paint0_linear_3896_1092)"/>
<g filter="url(#filter0_b_3896_1092)">
<mask id="path-2-inside-1_3896_1092" fill="white">
<path fill-rule="evenodd" clip-rule="evenodd" d="M73.8627 24.274L79.3186 11.5809L50.149 9.9747L54.1789 23.1901L73.8627 24.274ZM93.8789 69.5783C94.0247 65.2898 92.9417 61.0061 90.7479 57.1897L74.5806 29.0665L52.942 27.8751L33.7847 54.0532C31.1846 57.6056 29.6384 61.7445 29.3124 66.0231C29.006 70.049 29.7702 74.1326 31.5215 77.8349C33.2734 81.5365 35.9478 84.7165 39.2547 87.032C42.7696 89.4926 46.9509 90.921 51.3468 91.1631L69.2176 92.1471C73.6129 92.3891 77.9264 91.4284 81.6902 89.3686C85.2313 87.4301 88.2387 84.563 90.3864 81.0761C92.5336 77.5885 93.7416 73.6129 93.8789 69.5783Z"/>
</mask>
<path fill-rule="evenodd" clip-rule="evenodd" d="M73.8627 24.274L79.3186 11.5809L50.149 9.9747L54.1789 23.1901L73.8627 24.274ZM93.8789 69.5783C94.0247 65.2898 92.9417 61.0061 90.7479 57.1897L74.5806 29.0665L52.942 27.8751L33.7847 54.0532C31.1846 57.6056 29.6384 61.7445 29.3124 66.0231C29.006 70.049 29.7702 74.1326 31.5215 77.8349C33.2734 81.5365 35.9478 84.7165 39.2547 87.032C42.7696 89.4926 46.9509 90.921 51.3468 91.1631L69.2176 92.1471C73.6129 92.3891 77.9264 91.4284 81.6902 89.3686C85.2313 87.4301 88.2387 84.563 90.3864 81.0761C92.5336 77.5885 93.7416 73.6129 93.8789 69.5783Z" fill="url(#paint1_linear_3896_1092)" fill-opacity="0.62"/>
<path d="M79.3186 11.5809L81.156 12.3707L82.2863 9.74124L79.4286 9.58389L79.3186 11.5809ZM73.8627 24.274L73.7527 26.271L75.1482 26.3478L75.7001 25.0638L73.8627 24.274ZM50.149 9.9747L50.2589 7.97773L47.4011 7.82037L48.2359 10.5581L50.149 9.9747ZM54.1789 23.1901L52.2659 23.7735L52.6735 25.1103L54.0689 25.1871L54.1789 23.1901ZM90.7479 57.1897L92.4819 56.193L92.4818 56.1929L90.7479 57.1897ZM93.8789 69.5783L95.8778 69.6464L95.8778 69.6463L93.8789 69.5783ZM74.5806 29.0665L76.3145 28.0698L75.7738 27.1292L74.6905 27.0696L74.5806 29.0665ZM52.942 27.8751L53.052 25.8781L51.9687 25.8184L51.328 26.6939L52.942 27.8751ZM33.7847 54.0532L35.3986 55.2344L35.3987 55.2343L33.7847 54.0532ZM29.3124 66.0231L27.3182 65.8712L27.3182 65.8713L29.3124 66.0231ZM31.5215 77.8349L29.7135 78.6901L29.7137 78.6904L31.5215 77.8349ZM39.2547 87.032L38.1075 88.6703L38.1077 88.6704L39.2547 87.032ZM51.3468 91.1631L51.4567 89.1661L51.3468 91.1631ZM69.2176 92.1471L69.1077 94.1441L69.2176 92.1471ZM81.6902 89.3686L82.6504 91.123L82.6505 91.1229L81.6902 89.3686ZM90.3864 81.0761L92.0893 82.125L92.0895 82.1247L90.3864 81.0761ZM77.4811 10.7911L72.0252 23.4842L75.7001 25.0638L81.156 12.3707L77.4811 10.7911ZM50.039 11.9717L79.2086 13.5778L79.4286 9.58389L50.2589 7.97773L50.039 11.9717ZM56.0919 22.6068L52.062 9.39134L48.2359 10.5581L52.2659 23.7735L56.0919 22.6068ZM73.9726 22.277L54.2889 21.1932L54.0689 25.1871L73.7527 26.271L73.9726 22.277ZM89.014 58.1864C91.0271 61.6885 92.0128 65.6047 91.8801 69.5104L95.8778 69.6463C96.0366 64.9749 94.8563 60.3236 92.4819 56.193L89.014 58.1864ZM72.8467 30.0633L89.014 58.1865L92.4818 56.1929L76.3145 28.0698L72.8467 30.0633ZM52.8321 29.872L74.4706 31.0635L74.6905 27.0696L53.052 25.8781L52.8321 29.872ZM35.3987 55.2343L54.556 29.0562L51.328 26.6939L32.1707 52.8721L35.3987 55.2343ZM31.3067 66.175C31.6035 62.2783 33.0128 58.494 35.3986 55.2344L32.1708 52.8719C29.3564 56.7171 27.6733 61.2108 27.3182 65.8712L31.3067 66.175ZM33.3294 76.9796C31.7242 73.5863 31.027 69.8492 31.3067 66.1749L27.3182 65.8713C26.985 70.2488 27.8161 74.679 29.7135 78.6901L33.3294 76.9796ZM40.4018 85.3936C37.3835 83.2802 34.9348 80.3716 33.3292 76.9793L29.7137 78.6904C31.612 82.7014 34.5122 86.1528 38.1075 88.6703L40.4018 85.3936ZM51.4567 89.1661C47.423 88.944 43.6028 87.6345 40.4017 85.3935L38.1077 88.6704C41.9364 91.3507 46.4789 92.8981 51.2368 93.1601L51.4567 89.1661ZM69.3276 90.1501L51.4567 89.1661L51.2368 93.1601L69.1077 94.1441L69.3276 90.1501ZM80.73 87.6141C77.3023 89.4901 73.3608 90.3722 69.3276 90.1501L69.1077 94.1441C73.865 94.406 78.5505 93.3668 82.6504 91.123L80.73 87.6141ZM88.6835 80.0272C86.7152 83.2228 83.962 85.8449 80.7298 87.6142L82.6505 91.1229C86.5006 89.0154 89.7621 85.9033 92.0893 82.125L88.6835 80.0272ZM91.8801 69.5103C91.7547 73.1925 90.6514 76.831 88.6833 80.0276L92.0895 82.1247C94.4159 78.3461 95.7284 74.0333 95.8778 69.6464L91.8801 69.5103Z" fill="url(#paint2_linear_3896_1092)" mask="url(#path-2-inside-1_3896_1092)"/>
</g>
<path d="M68.0757 63.3923C69.0282 63.0866 69.816 62.5541 70.439 61.7953C71.0622 61.0364 71.4299 60.1662 71.5427 59.1844C71.6467 58.2791 71.5262 57.4373 71.1809 56.6588C70.8357 55.8803 70.3669 55.2352 69.7739 54.7228C69.1809 54.2105 68.4848 53.8385 67.6858 53.6067C67.5557 53.569 67.4097 53.5319 67.2564 53.4951L67.4052 52.2001C67.4598 51.724 67.1182 51.2938 66.6421 51.2391L64.9182 51.0411C64.4421 50.9864 64.0119 51.328 63.9572 51.8041L63.8252 52.9534L62.0274 52.7469L62.1594 51.5976C62.2141 51.1215 61.8725 50.6913 61.3964 50.6366L59.6724 50.4386C59.1963 50.3839 58.7661 50.7255 58.7114 51.2016L58.5794 52.3509L55.6225 52.0113L53.2154 72.9691L56.1729 73.3088L56.0574 74.3144C56.0027 74.7905 56.3443 75.2207 56.8204 75.2754L58.5444 75.4734C59.0205 75.5281 59.4507 75.1865 59.5054 74.7104L59.6209 73.7048L60.3492 73.7884C60.7262 73.8291 61.0817 73.8665 61.4198 73.9015L61.3032 74.9169C61.2485 75.393 61.5901 75.8232 62.0662 75.8779L63.7902 76.0759C64.2663 76.1306 64.6965 75.789 64.7511 75.3129L64.8779 74.209C65.1188 74.223 65.318 74.2307 65.4694 74.2318C66.6083 74.2371 67.5923 74.0145 68.4212 73.5642C69.2502 73.1138 69.938 72.4638 70.4848 71.614C71.0313 70.7641 71.3593 69.8629 71.4687 68.9098C71.6078 67.6994 71.3857 66.6068 70.8024 65.6321C70.2191 64.6575 69.3102 63.9108 68.0757 63.3923ZM61.8839 56.2646C63.876 56.4934 65.0789 56.6558 65.4926 56.7516C66.1881 56.9185 66.6912 57.2249 67.0022 57.6708C67.3131 58.1167 67.4313 58.6639 67.3569 59.3121C67.2792 59.9888 67.0091 60.5106 66.5468 60.8776C66.0846 61.2446 65.4863 61.4294 64.7522 61.4319C64.3464 61.4336 63.319 61.3397 61.6704 61.1504L58.8971 60.8319L59.4537 55.9855L61.8839 56.2646ZM66.3195 69.919C65.8729 70.3166 65.3288 70.5368 64.6865 70.5788C64.2666 70.6177 63.2946 70.5494 61.7697 70.3743L57.8525 69.9244L58.4962 64.32L61.9128 64.7124C63.8379 64.9335 65.0774 65.1772 65.6311 65.4437C66.1848 65.7102 66.5888 66.0801 66.8434 66.5535C67.0978 67.027 67.1891 67.5781 67.1168 68.2073C67.0318 68.9504 66.7661 69.521 66.3195 69.919Z" fill="url(#paint3_linear_3896_1092)"/>
<defs>
<filter id="filter0_b_3896_1092" x="22.2466" y="2.97461" width="78.6455" height="96.2092" filterUnits="userSpaceOnUse" color-interpolation-filters="sRGB">
<feFlood flood-opacity="0" result="BackgroundImageFix"/>
<feGaussianBlur in="BackgroundImageFix" stdDeviation="3.5"/>
<feComposite in2="SourceAlpha" operator="in" result="effect1_backgroundBlur_3896_1092"/>
<feBlend mode="normal" in="SourceGraphic" in2="effect1_backgroundBlur_3896_1092" result="shape"/>
</filter>
<linearGradient id="paint0_linear_3896_1092" x1="74.1236" y1="16.5638" x2="35.2803" y2="96.2384" gradientUnits="userSpaceOnUse">
<stop stop-color="#FFE9AE"/>
<stop offset="1" stop-color="#E3A729"/>
</linearGradient>
<linearGradient id="paint1_linear_3896_1092" x1="65.9545" y1="10.6632" x2="61.5099" y2="91.3822" gradientUnits="userSpaceOnUse">
<stop stop-color="#403F3F"/>
<stop offset="1" stop-color="#161616"/>
</linearGradient>
<linearGradient id="paint2_linear_3896_1092" x1="65.9545" y1="10.6632" x2="61.5099" y2="91.3822" gradientUnits="userSpaceOnUse">
<stop stop-color="#919191" stop-opacity="0.08"/>
<stop offset="1" stop-color="#757272"/>
</linearGradient>
<linearGradient id="paint3_linear_3896_1092" x1="60.2313" y1="51.1418" x2="72.3021" y2="70.0455" gradientUnits="userSpaceOnUse">
<stop stop-color="#F8FBFA"/>
<stop offset="1" stop-color="#6F6F6F" stop-opacity="0.51"/>
</linearGradient>
</defs>
</svg>
