<svg width="90" height="90" viewBox="0 0 90 90" fill="none" xmlns="http://www.w3.org/2000/svg">
<path fill-rule="evenodd" clip-rule="evenodd" d="M64.2347 7C65.4534 7 66.4395 7.98148 66.4395 9.19439V61.8599C66.4395 63.0728 65.4534 64.0542 64.2347 64.0542C55.8007 64.0542 49.1943 59.3783 42.948 54.8567C37.6482 51.0203 32.6034 47.396 26.6055 46.6564V24.3979C32.6034 23.6584 37.6482 20.034 42.948 16.1976C49.1943 11.676 55.8007 7 64.2347 7ZM11.0242 46.4991H22.1954V24.5552H11.0242C4.94574 24.5552 0 29.4775 0 35.5271C0 41.5768 4.94574 46.4991 11.0242 46.4991ZM75.2584 35.5271C75.2584 38.3842 73.4096 40.7972 70.8487 41.7061V29.3481C73.4096 30.2571 75.2584 32.67 75.2584 35.5271ZM13.376 70.6374V50.8879H24.4002C25.1482 50.8879 25.8808 50.9603 26.605 51.0789V70.6374C26.605 71.8503 25.6189 72.8318 24.4002 72.8318H15.5808C14.3622 72.8318 13.376 71.8503 13.376 70.6374Z" fill="url(#paint0_linear_4000_979)"/>
<g filter="url(#filter0_b_4000_979)">
<mask id="path-2-inside-1_4000_979" fill="white">
<path fill-rule="evenodd" clip-rule="evenodd" d="M81.1807 18.3626V71.0281C81.1807 72.241 80.1946 73.2225 78.9759 73.2225C70.5419 73.2225 63.9355 68.5465 57.6892 64.0249C52.3894 60.1885 47.3446 56.5642 41.3467 55.8246V33.5661C47.3446 32.8266 52.3894 29.2022 57.6892 25.3658C63.9355 20.8442 70.5419 16.1682 78.9759 16.1682C80.1946 16.1682 81.1807 17.1497 81.1807 18.3626ZM25.7654 55.6673H36.9366V33.7234H25.7654C19.687 33.7234 14.7412 38.6457 14.7412 44.6953C14.7412 50.745 19.687 55.6673 25.7654 55.6673ZM89.9996 44.6953C89.9996 47.5524 88.1508 49.9654 85.59 50.8743V38.5163C88.1508 39.4253 89.9996 41.8382 89.9996 44.6953ZM28.1172 79.8056V60.0561H39.1414C39.8894 60.0561 40.622 60.1285 41.3462 60.2472V79.8056C41.3462 81.0186 40.3601 82 39.1414 82H30.3221C29.1034 82 28.1172 81.0186 28.1172 79.8056Z"/>
</mask>
<path fill-rule="evenodd" clip-rule="evenodd" d="M81.1807 18.3626V71.0281C81.1807 72.241 80.1946 73.2225 78.9759 73.2225C70.5419 73.2225 63.9355 68.5465 57.6892 64.0249C52.3894 60.1885 47.3446 56.5642 41.3467 55.8246V33.5661C47.3446 32.8266 52.3894 29.2022 57.6892 25.3658C63.9355 20.8442 70.5419 16.1682 78.9759 16.1682C80.1946 16.1682 81.1807 17.1497 81.1807 18.3626ZM25.7654 55.6673H36.9366V33.7234H25.7654C19.687 33.7234 14.7412 38.6457 14.7412 44.6953C14.7412 50.745 19.687 55.6673 25.7654 55.6673ZM89.9996 44.6953C89.9996 47.5524 88.1508 49.9654 85.59 50.8743V38.5163C88.1508 39.4253 89.9996 41.8382 89.9996 44.6953ZM28.1172 79.8056V60.0561H39.1414C39.8894 60.0561 40.622 60.1285 41.3462 60.2472V79.8056C41.3462 81.0186 40.3601 82 39.1414 82H30.3221C29.1034 82 28.1172 81.0186 28.1172 79.8056Z" fill="url(#paint1_linear_4000_979)" fill-opacity="0.56"/>
<path d="M57.6892 64.0249L58.6215 62.7369L58.6215 62.7369L57.6892 64.0249ZM41.3467 55.8246H39.7567V57.2305L41.1521 57.4026L41.3467 55.8246ZM41.3467 33.5661L41.1521 31.9881L39.7567 32.1601V33.5661H41.3467ZM57.6892 25.3658L58.6215 26.6538L58.6215 26.6537L57.6892 25.3658ZM36.9366 55.6673V57.2573H38.5265V55.6673H36.9366ZM36.9366 33.7234H38.5265V32.1334H36.9366V33.7234ZM85.59 50.8743H84V53.1258L86.1218 52.3727L85.59 50.8743ZM85.59 38.5163L86.1218 37.018L84 36.2649V38.5163H85.59ZM28.1172 60.0561V58.4661H26.5272V60.0561H28.1172ZM41.3462 60.2472H42.9362V58.8965L41.6033 58.6781L41.3462 60.2472ZM82.7707 71.0281V18.3626H79.5907V71.0281H82.7707ZM78.9759 74.8124C81.0656 74.8124 82.7707 73.1262 82.7707 71.0281H79.5907C79.5907 71.3558 79.3236 71.6325 78.9759 71.6325V74.8124ZM56.7569 65.3128C62.9466 69.7935 69.9534 74.8124 78.9759 74.8124V71.6325C71.1305 71.6325 64.9244 67.2995 58.6215 62.7369L56.7569 65.3128ZM41.1521 57.4026C46.6727 58.0834 51.3854 61.4246 56.7569 65.3128L58.6215 62.7369C53.3933 58.9524 48.0165 55.0451 41.5413 54.2465L41.1521 57.4026ZM39.7567 33.5661V55.8246H42.9367V33.5661H39.7567ZM56.7569 24.0778C51.3854 27.9661 46.6727 31.3074 41.1521 31.9881L41.5412 35.1441C48.0165 34.3458 53.3934 30.4383 58.6215 26.6538L56.7569 24.0778ZM78.9759 14.5782C69.9534 14.5782 62.9466 19.5972 56.7569 24.0779L58.6215 26.6537C64.9244 22.0912 71.1305 17.7582 78.9759 17.7582V14.5782ZM82.7707 18.3626C82.7707 16.2645 81.0656 14.5782 78.9759 14.5782V17.7582C79.3236 17.7582 79.5907 18.0349 79.5907 18.3626H82.7707ZM36.9366 54.0773H25.7654V57.2573H36.9366V54.0773ZM35.3466 33.7234V55.6673H38.5265V33.7234H35.3466ZM25.7654 35.3133H36.9366V32.1334H25.7654V35.3133ZM16.3312 44.6953C16.3312 39.5309 20.5579 35.3133 25.7654 35.3133V32.1334C18.816 32.1334 13.1512 37.7605 13.1512 44.6953H16.3312ZM25.7654 54.0773C20.5579 54.0773 16.3312 49.8598 16.3312 44.6953H13.1512C13.1512 51.6302 18.816 57.2573 25.7654 57.2573V54.0773ZM86.1218 52.3727C89.2807 51.2515 91.5896 48.2632 91.5896 44.6953H88.4096C88.4096 46.8416 87.0209 48.6792 85.0581 49.3759L86.1218 52.3727ZM84 38.5163V50.8743H87.1799V38.5163H84ZM91.5896 44.6953C91.5896 41.1274 89.2807 38.1391 86.1218 37.018L85.0581 40.0147C87.0209 40.7114 88.4096 42.549 88.4096 44.6953H91.5896ZM26.5272 60.0561V79.8056H29.7072V60.0561H26.5272ZM39.1414 58.4661H28.1172V61.6461H39.1414V58.4661ZM41.6033 58.6781C40.8123 58.5485 39.9922 58.4661 39.1414 58.4661V61.6461C39.7866 61.6461 40.4317 61.7085 41.0892 61.8162L41.6033 58.6781ZM42.9362 79.8056V60.2472H39.7563V79.8056H42.9362ZM39.1414 83.59C41.2311 83.59 42.9362 81.9038 42.9362 79.8056H39.7563C39.7563 80.1333 39.4891 80.4101 39.1414 80.4101V83.59ZM30.3221 83.59H39.1414V80.4101H30.3221V83.59ZM26.5272 79.8056C26.5272 81.9038 28.2324 83.59 30.3221 83.59V80.4101C29.9744 80.4101 29.7072 80.1333 29.7072 79.8056H26.5272Z" fill="url(#paint2_linear_4000_979)" mask="url(#path-2-inside-1_4000_979)"/>
</g>
<defs>
<filter id="filter0_b_4000_979" x="5.44002" y="6.86702" width="93.8612" height="84.4342" filterUnits="userSpaceOnUse" color-interpolation-filters="sRGB">
<feFlood flood-opacity="0" result="BackgroundImageFix"/>
<feGaussianBlur in="BackgroundImageFix" stdDeviation="4.6506"/>
<feComposite in2="SourceAlpha" operator="in" result="effect1_backgroundBlur_4000_979"/>
<feBlend mode="normal" in="SourceGraphic" in2="effect1_backgroundBlur_4000_979" result="shape"/>
</filter>
<linearGradient id="paint0_linear_4000_979" x1="88.7843" y1="-20.016" x2="1.75575" y2="56.9939" gradientUnits="userSpaceOnUse">
<stop stop-color="#FFE9AE"/>
<stop offset="1" stop-color="#E3A729"/>
</linearGradient>
<linearGradient id="paint1_linear_4000_979" x1="53.7795" y1="16.0207" x2="53.7795" y2="81.7239" gradientUnits="userSpaceOnUse">
<stop stop-color="#0D0D0D"/>
<stop offset="1" stop-color="#101010"/>
</linearGradient>
<linearGradient id="paint2_linear_4000_979" x1="53.7795" y1="16.0207" x2="53.7795" y2="81.7239" gradientUnits="userSpaceOnUse">
<stop stop-color="#B9B9B9" stop-opacity="0.08"/>
<stop offset="1" stop-color="#9B9B9B"/>
</linearGradient>
</defs>
</svg>
