<svg width="9" height="15" viewBox="0 0 9 15" fill="none" xmlns="http://www.w3.org/2000/svg">
<path d="M8.66685 6.9147L1.99166 0.23963C1.83727 0.0851194 1.63118 -1.90735e-06 1.41142 -1.90735e-06C1.19167 -1.90735e-06 0.985572 0.0851194 0.831183 0.23963L0.339602 0.73109C0.0197263 1.05133 0.0197263 1.57181 0.339602 1.89157L5.94492 7.49689L0.333382 13.1084C0.178993 13.2629 0.09375 13.4689 0.09375 13.6885C0.09375 13.9084 0.178993 14.1144 0.333382 14.269L0.824964 14.7604C0.979475 14.9149 1.18545 15 1.4052 15C1.62496 15 1.83105 14.9149 1.98544 14.7604L8.66685 8.0792C8.82161 7.9242 8.90661 7.71725 8.90612 7.49725C8.90661 7.2764 8.82161 7.06957 8.66685 6.9147Z" fill="#352101"/>
</svg>
