<?xml version="1.0" encoding="utf-8"?>
<!-- Generator: Adobe Illustrator 24.1.1, SVG Export Plug-In . SVG Version: 6.00 Build 0)  -->
<svg version="1.1" id="Laag_1" xmlns:serif="http://www.serif.com/"
	 xmlns="http://www.w3.org/2000/svg" xmlns:xlink="http://www.w3.org/1999/xlink" x="0px" y="0px" viewBox="0 0 1592 1592"
	 style="enable-background:new 0 0 1592 1592;" xml:space="preserve">
<style type="text/css">
	.st0{fill:#FD025D;}
	.st1{fill-rule:evenodd;clip-rule:evenodd;fill:#FFFFFF;}
</style>
<g transform="matrix(1.29702,0,0,1.29686,0.0031914,-0.00311808)">
	<path class="st0" d="M1209.1,762.3c-82,328.8-415,528.9-743.9,446.9c-328.7-82-528.8-415-446.8-743.8c81.9-328.9,415-529,743.7-447
		C1090.9,100.3,1291,433.4,1209.1,762.3z"/>
</g>
<g transform="matrix(0.0263,0,0,0.0263,25.5493,15.2)">
	<path class="st1" d="M18082.2,27696.2l11308.4-4766.9L40351,27818L29373.2,10507.5L18082.2,27696.2z M18117,32985l11291,6541.4
		L40925.1,32985L29512.4,48868.9L18117,32985z"/>
	<g transform="matrix(1,0,0,1,1.10235e-05,6.64641e-06)">
		<path class="st1" d="M29442.8,25260.6l-11778.1,4958.2l11778.1,6541.6L40890.4,30358L29442.8,25260.6z"/>
	</g>
</g>
</svg>
