<svg width="103" height="101" viewBox="0 0 103 101" fill="none" xmlns="http://www.w3.org/2000/svg">
<g clip-path="url(#clip0_2714_2989)">
<g opacity="0.3" filter="url(#filter0_f_2714_2989)">
<path fill-rule="evenodd" clip-rule="evenodd" d="M59.049 21.9058C59.1644 22.2112 59.1385 22.5575 58.981 22.884C61.2844 22.6589 63.5464 23.9851 64.4015 26.2495L73.6902 50.8473C74.7145 53.5597 73.3388 56.608 70.624 57.6415L31.2319 72.6382C28.5171 73.6717 25.4744 72.3055 24.4501 69.5932L13.3036 40.0757L13.5358 39.9873C13.3167 39.8487 13.1475 39.6539 13.0561 39.4119L11.5841 35.5148C10.7726 33.3662 12.3232 30.7762 15.04 29.742L31.3881 23.5195L41.6181 12.4097C41.9319 12.069 42.3651 11.8484 42.8341 11.7931C43.2999 11.7391 43.7561 11.8559 44.0996 12.1168L49.8527 16.4914L51.1774 15.9872C53.8942 14.9531 56.7656 15.86 57.5771 18.0086L59.049 21.9058Z" fill="url(#paint0_linear_2714_2989)"/>
</g>
<path fill-rule="evenodd" clip-rule="evenodd" d="M59.0457 21.9091C59.1611 22.2146 59.1351 22.5609 58.9777 22.8874C61.2811 22.6623 63.5431 23.9885 64.3982 26.2528L68.0424 35.9034L52.1508 30.6329C48.8428 29.5359 45.4528 30.768 44.5951 33.3792L43.0393 38.1152C42.9398 38.4181 42.9549 38.737 43.0632 39.0395L42.7368 38.9312L31.7343 72.449L31.2286 72.6415C28.5138 73.6751 25.4711 72.3089 24.4468 69.5966L13.3003 40.0791L13.5325 39.9907C13.3134 39.8521 13.1442 39.6573 13.0528 39.4153L11.5808 35.5182C10.7693 33.3696 12.3198 30.7795 15.0367 29.7454L31.3848 23.5229L41.6148 12.4131C41.9286 12.0724 42.3618 11.8518 42.8308 11.7965C43.2966 11.7425 43.7528 11.8592 44.0963 12.1202L49.8493 16.4948L51.174 15.9906C53.8909 14.9565 56.7623 15.8634 57.5738 18.012L59.0457 21.9091Z" fill="url(#paint1_linear_2714_2989)"/>
<path d="M51.8617 31.5796L95.8611 46.1719C98.8673 47.1689 100.289 49.7444 99.6682 51.633L98.1124 56.3691C98.0856 56.4508 97.9985 56.5797 97.7638 56.6657C97.5289 56.7517 97.1999 56.7636 96.8551 56.6493L44.8558 39.4037C44.4997 39.2857 44.2485 39.0752 44.1139 38.8713C43.9804 38.6691 43.9818 38.5168 44.0115 38.4266L45.5672 33.6905C46.1876 31.8019 48.8555 30.5826 51.8617 31.5796Z" fill="url(#paint2_linear_2714_2989)" fill-opacity="0.32" stroke="url(#paint3_linear_2714_2989)" stroke-width="2"/>
<path d="M97.3917 53.8084L92.8385 35.0653C92.7189 34.5737 92.3917 34.1301 91.9309 33.835C91.4662 33.5387 90.9128 33.4195 90.3796 33.4978L53.759 38.8851C52.8525 39.0188 52.1991 39.7022 52.1714 40.5501C52.1436 41.3981 52.7504 42.1974 53.6443 42.4939L94.8981 56.1762C94.9105 56.1784 94.9256 56.1854 94.9374 56.1893C96.0237 56.5496 97.1602 56.0537 97.4784 55.0839C97.6191 54.6552 97.5768 54.2068 97.3917 53.8084Z" fill="url(#paint4_linear_2714_2989)"/>
<path d="M31.9236 75.1453L43.397 40.1928L96.4236 57.7916C99.2089 58.716 100.729 61.7294 99.8195 64.5007L89.9984 94.4195C89.0887 97.1908 86.0832 98.7021 83.2979 97.7777L35.3195 81.8544C32.5341 80.93 31.0139 77.9166 31.9236 75.1453Z" fill="url(#paint5_linear_2714_2989)" fill-opacity="0.32" stroke="url(#paint6_linear_2714_2989)" stroke-width="2"/>
<path d="M77.9916 78.9037C80.5607 79.7564 83.3279 78.3617 84.1725 75.7887C85.0171 73.2156 83.6191 70.4386 81.0501 69.5859C78.4811 68.7332 75.7138 70.1279 74.8692 72.7009C74.0246 75.2739 75.4226 78.051 77.9916 78.9037Z" fill="url(#paint7_linear_2714_2989)"/>
<g opacity="0.2" filter="url(#filter1_f_2714_2989)">
<path fill-rule="evenodd" clip-rule="evenodd" d="M68.0248 35.8718L73.6875 50.8596C74.7127 53.573 73.3383 56.6216 70.6242 57.6544L31.7891 72.4313L42.8085 38.9276L43.0753 39.016C42.9817 38.7267 42.9732 38.424 43.0681 38.1357L44.6297 33.3877C45.4906 30.77 48.8826 29.5312 52.1897 30.6267L68.0248 35.8718Z" fill="url(#paint8_linear_2714_2989)"/>
</g>
</g>
<defs>
<filter id="filter0_f_2714_2989" x="-4.63086" y="-4.21985" width="94.6582" height="93.2032" filterUnits="userSpaceOnUse" color-interpolation-filters="sRGB">
<feFlood flood-opacity="0" result="BackgroundImageFix"/>
<feBlend mode="normal" in="SourceGraphic" in2="BackgroundImageFix" result="shape"/>
<feGaussianBlur stdDeviation="8" result="effect1_foregroundBlur_2714_2989"/>
</filter>
<filter id="filter1_f_2714_2989" x="10.7891" y="9.22778" width="84.2383" height="84.2035" filterUnits="userSpaceOnUse" color-interpolation-filters="sRGB">
<feFlood flood-opacity="0" result="BackgroundImageFix"/>
<feBlend mode="normal" in="SourceGraphic" in2="BackgroundImageFix" result="shape"/>
<feGaussianBlur stdDeviation="10.5" result="effect1_foregroundBlur_2714_2989"/>
</filter>
<linearGradient id="paint0_linear_2714_2989" x1="66.5999" y1="-10.8893" x2="-1.05691" y2="30.3326" gradientUnits="userSpaceOnUse">
<stop stop-color="#FFE9AE"/>
<stop offset="1" stop-color="#E3A729"/>
</linearGradient>
<linearGradient id="paint1_linear_2714_2989" x1="66.6079" y1="-10.9024" x2="-1.05425" y2="30.2749" gradientUnits="userSpaceOnUse">
<stop stop-color="#FFE9AE"/>
<stop offset="1" stop-color="#E3A729"/>
</linearGradient>
<linearGradient id="paint2_linear_2714_2989" x1="75.2301" y1="38.2487" x2="71.5757" y2="49.2675" gradientUnits="userSpaceOnUse">
<stop stop-color="#403F3F"/>
<stop offset="1" stop-color="#161616"/>
</linearGradient>
<linearGradient id="paint3_linear_2714_2989" x1="75.2301" y1="38.2487" x2="71.5757" y2="49.2675" gradientUnits="userSpaceOnUse">
<stop stop-color="#919191" stop-opacity="0.08"/>
<stop offset="1" stop-color="#757272"/>
</linearGradient>
<linearGradient id="paint4_linear_2714_2989" x1="80.6321" y1="30.0135" x2="74.2285" y2="49.3209" gradientUnits="userSpaceOnUse">
<stop stop-color="#F8FBFA"/>
<stop offset="1" stop-color="#B2B6A7"/>
</linearGradient>
<linearGradient id="paint5_linear_2714_2989" x1="73.9" y1="49.1586" x2="60.0407" y2="90.9178" gradientUnits="userSpaceOnUse">
<stop stop-color="#403F3F"/>
<stop offset="1" stop-color="#161616"/>
</linearGradient>
<linearGradient id="paint6_linear_2714_2989" x1="73.9" y1="49.1586" x2="60.0407" y2="90.9178" gradientUnits="userSpaceOnUse">
<stop stop-color="#919191" stop-opacity="0.08"/>
<stop offset="1" stop-color="#757272"/>
</linearGradient>
<linearGradient id="paint7_linear_2714_2989" x1="78.6791" y1="69.0613" x2="80.6556" y2="78.7052" gradientUnits="userSpaceOnUse">
<stop stop-color="#F8FBFA"/>
<stop offset="1" stop-color="#6F6F6F" stop-opacity="0.51"/>
</linearGradient>
<linearGradient id="paint8_linear_2714_2989" x1="91.7897" y1="10.638" x2="22.638" y2="53.8263" gradientUnits="userSpaceOnUse">
<stop stop-color="#FFE9AE"/>
<stop offset="1" stop-color="#E3A729"/>
</linearGradient>
<clipPath id="clip0_2714_2989">
<rect width="103" height="101" fill="white"/>
</clipPath>
</defs>
</svg>
